<svg width="41" height="41" viewBox="0 0 41 41" fill="none" xmlns="http://www.w3.org/2000/svg">
<g id="chat 1">
<path id="Vector" d="M20.7822 3.57541C18.5935 3.57541 16.4263 4.00651 14.4042 4.84408C12.3821 5.68166 10.5448 6.90932 8.99713 8.45696C5.87153 11.5826 4.11558 15.8218 4.11558 20.2421C4.10101 24.0906 5.43357 27.823 7.88225 30.7921L4.54891 34.1254C4.31765 34.3598 4.16099 34.6574 4.0987 34.9807C4.03641 35.304 4.07128 35.6386 4.19891 35.9421C4.33734 36.242 4.56175 36.4939 4.84366 36.6661C5.12556 36.8382 5.45225 36.9226 5.78225 36.9087H20.7822C25.2025 36.9087 29.4418 35.1528 32.5674 32.0272C35.693 28.9016 37.4489 24.6623 37.4489 20.2421C37.4489 15.8218 35.693 11.5826 32.5674 8.45696C29.4418 5.33136 25.2025 3.57541 20.7822 3.57541ZM20.7822 33.5754H9.79891L11.3489 32.0254C11.6593 31.7131 11.8336 31.2907 11.8336 30.8504C11.8336 30.4101 11.6593 29.9877 11.3489 29.6754C9.16656 27.4955 7.80754 24.6263 7.5034 21.5567C7.19926 18.4872 7.96882 15.4071 9.68096 12.8413C11.3931 10.2755 13.9419 8.38267 16.8931 7.48536C19.8443 6.58805 23.0153 6.74175 25.8659 7.92026C28.7165 9.09878 31.0703 11.2292 32.5263 13.9486C33.9823 16.6679 34.4504 19.808 33.8508 22.8338C33.2512 25.8595 31.6211 28.5838 29.2381 30.5425C26.8552 32.5011 23.8669 33.573 20.7822 33.5754Z" fill="#1E1E1E"/>
</g>
</svg>
