<svg width="470" height="405" viewBox="0 0 470 405" fill="none" xmlns="http://www.w3.org/2000/svg">
<path d="M211.746 84.5208H281.552C281.552 84.5208 285.74 64.9753 311.568 64.9753C337.396 64.9753 342.283 84.5209 342.283 95.6898C342.283 106.859 335.302 126.404 312.266 126.404C289.23 126.404 281.552 106.859 281.552 106.859H151.015V118.726H209.652L210.35 178.061H333.879C338.864 165.481 345.746 156.365 363.197 156.365C380.649 156.365 396.006 169.628 396.006 188.475C396.006 207.323 377.158 216.398 363.197 216.398C349.236 216.398 333.879 197.55 333.879 197.55L172.655 197.606V206.681H210.35V255.545H267.564C277.336 255.545 275.94 240.83 291.996 240.83C308.051 240.83 317.824 248.508 317.824 261.771C317.824 275.034 310.145 290.392 291.996 290.392C273.846 290.392 267.564 267.412 267.564 267.412H182.428V281.373H209.652V329.539C209.652 329.539 244.582 329.581 326.925 329.581C326.925 329.581 324.804 299.508 356.915 299.508C389.025 299.508 389.723 328.087 388.327 341.35C386.931 354.613 372.272 365.782 356.915 365.782C341.558 365.782 324.831 349.782 324.831 349.782H162.184C155.203 349.782 157.298 359.555 162.184 359.555H204.067C204.067 359.555 213.142 367.234 189.408 386.779C165.674 406.325 137.931 409.068 107.038 386.779C107.038 386.779 100.057 379.799 93.0764 365.14C86.0958 350.481 86.4355 334.087 85.7036 324.652C84.9716 315.218 78.3991 322.396 78.025 324.652C77.6508 326.909 75.0747 352.575 79.5382 356.065C84.0017 359.555 78.0809 367.065 68.5547 358.159C53.5661 344.713 44.8143 335.269 52.18 309.295C52.6841 307.909 54.0353 307.76 56.7775 307.691C61.7661 307.707 60.6627 308.335 63.1715 306.503C65.5508 304.765 70.8831 298.787 72.8057 295.278C79.0884 271.61 91.0959 263.877 110.528 261.771C136.009 259.01 153.438 287.67 148.921 298.824C146.979 303.619 157.113 303.621 156.6 298.824C155.043 278.944 144.007 254.149 110.528 254.149C72.4304 254.149 66.5806 294.982 60.9658 298.824C55.351 302.667 34.5651 289.707 19.0824 267.412C11.4884 251.737 9.30959 240.188 14.894 222.736C25.6335 232.367 38.6485 236.055 65.1541 234.603C89.16 230.892 102.013 227.547 122.395 216.454C128.471 207.667 123.877 204.881 122.395 204.587C66.4863 236.734 14.8941 219.944 7.21542 205.983C-0.463215 192.022 4.42318 161.307 5.8193 159.213C7.21542 157.119 9.3096 157.817 10.7057 159.213C12.1018 160.609 50.4949 183.645 56.7775 179.457C63.06 175.268 57.4755 170.382 56.0794 170.382C54.6833 170.382 12.208 162.104 12.1018 141.762C11.8598 95.369 23.3296 70.3792 87.4919 57.2967V108.953C87.4919 115.933 100.057 115.933 100.057 108.953V84.5208C100.057 70.5597 112.622 13.3191 160.09 15.4133C207.558 17.5075 210.828 80.0912 211.746 84.5208Z" stroke="#20E399" stroke-width="5"/>
<path d="M297.174 16.0553C297.174 23.4913 291 29.6106 283.27 29.6106C275.54 29.6106 269.365 23.4913 269.365 16.0553C269.365 8.61933 275.54 2.5 283.27 2.5C291 2.5 297.174 8.61933 297.174 16.0553Z" stroke="#20E399" stroke-width="5"/>
<path d="M297.174 386.025C297.174 393.461 291 399.581 283.27 399.581C275.54 399.581 269.365 393.461 269.365 386.025C269.365 378.589 275.54 372.47 283.27 372.47C291 372.47 297.174 378.589 297.174 386.025Z" stroke="#20E399" stroke-width="5"/>
<path d="M467.5 144.498C467.5 151.934 461.326 158.053 453.596 158.053C445.866 158.053 439.691 151.934 439.691 144.498C439.691 137.062 445.866 130.943 453.596 130.943C461.326 130.943 467.5 137.062 467.5 144.498Z" stroke="#20E399" stroke-width="5"/>
</svg>
