<svg width="42" height="41" viewBox="0 0 42 41" fill="none" xmlns="http://www.w3.org/2000/svg">
<path d="M22.2461 7.8358H29.3509C29.3509 7.8358 29.7772 5.81625 32.406 5.81625C35.0347 5.81625 35.5321 7.8358 35.5321 8.98983C35.5321 10.1439 34.8216 12.1634 32.477 12.1634C30.1324 12.1634 29.3509 10.1439 29.3509 10.1439H16.0649V11.37H22.0329L22.104 17.5008H34.6767C35.1841 16.201 35.8845 15.2591 37.6607 15.2591C39.4369 15.2591 41 16.6295 41 18.5769C41 20.5244 39.0817 21.462 37.6607 21.462C36.2398 21.462 34.6767 19.5146 34.6767 19.5146L18.2674 19.5204V20.458H22.104V25.5069H27.9272C28.9218 25.5069 28.7798 23.9865 30.4139 23.9865C32.048 23.9865 33.0426 24.7798 33.0426 26.1503C33.0426 27.5207 32.2611 29.1075 30.4139 29.1075C28.5666 29.1075 27.9272 26.7331 27.9272 26.7331H19.2621V28.1756H22.0329V33.1524C22.0329 33.1524 25.5881 33.1567 33.969 33.1567C33.969 33.1567 33.7531 30.0494 37.0213 30.0494C40.2895 30.0494 40.3606 33.0023 40.2185 34.3727C40.0764 35.7431 38.5844 36.8972 37.0213 36.8972C35.4583 36.8972 33.7559 35.244 33.7559 35.244H17.2017C16.4912 35.244 16.7044 36.2538 17.2017 36.2538H21.4646C21.4646 36.2538 22.3882 37.0472 19.9726 39.0668C17.5569 41.0863 14.7332 41.3698 11.5889 39.0668C11.5889 39.0668 10.8784 38.3455 10.1679 36.8308C9.45746 35.3162 9.49204 33.6223 9.41754 32.6475C9.34304 31.6726 8.6741 32.4143 8.63601 32.6475C8.59793 32.8806 8.33573 35.5325 8.79002 35.8932C9.24432 36.2538 8.6417 37.0297 7.67214 36.1096C6.1466 34.7202 5.25585 33.7444 6.00552 31.0607C6.05683 30.9175 6.19435 30.9021 6.47345 30.8949C6.9812 30.8966 6.86889 30.9615 7.12424 30.7722C7.3664 30.5926 7.90912 29.9749 8.1048 29.6124C8.74425 27.1668 9.96637 26.3678 11.9441 26.1503C14.5376 25.865 16.3116 28.8263 15.8518 29.9788C15.6541 30.4742 16.6856 30.4744 16.6333 29.9788C16.4749 27.9247 15.3517 25.3626 11.9441 25.3626C8.0666 25.3626 7.4712 29.5817 6.89974 29.9788C6.32827 30.3758 4.21268 29.0367 2.63686 26.7331C1.86395 25.1134 1.64219 23.9201 2.21057 22.1169C3.30363 23.1121 4.62829 23.4931 7.32602 23.3431C9.76933 22.9597 11.0775 22.614 13.152 21.4678C13.7704 20.5599 13.3028 20.2721 13.152 20.2416C7.46161 23.5633 2.21057 21.8284 1.42904 20.3859C0.647515 18.9434 1.14485 15.7698 1.28695 15.5534C1.42904 15.337 1.64219 15.4091 1.78428 15.5534C1.92638 15.6976 5.83402 18.0778 6.47345 17.6451C7.11288 17.2123 6.5445 16.7074 6.4024 16.7074C6.26031 16.7074 1.93718 15.8521 1.92638 13.7502C1.90174 8.95669 3.06913 6.37461 9.59956 5.02285V10.3602C9.59956 11.0815 10.8784 11.0815 10.8784 10.3602V7.8358C10.8784 6.39327 12.1573 0.47886 16.9885 0.69524C21.8198 0.911621 22.1526 7.3781 22.2461 7.8358Z" fill="#20E399" stroke="#20E399" stroke-width="0.244491"/>
</svg>
