<svg width="40" height="41" viewBox="0 0 40 41" fill="none" xmlns="http://www.w3.org/2000/svg">
<path d="M21.2409 8.01004H28.316C28.316 8.01004 28.7405 6.02901 31.3583 6.02901C33.9761 6.02901 34.4713 8.01005 34.4713 9.14207C34.4713 10.2741 33.7638 12.2551 31.429 12.2551C29.0942 12.2551 28.316 10.2741 28.316 10.2741H15.0855V11.4769H21.0286L21.0994 17.4907H33.6196C34.1248 16.2157 34.8224 15.2917 36.5911 15.2917C38.3599 15.2917 39.9164 16.636 39.9164 18.5463C39.9164 20.4566 38.0062 21.3764 36.5911 21.3764C35.1761 21.3764 33.6196 19.4661 33.6196 19.4661L17.2788 19.4717V20.3915H21.0994V25.3441H26.8982C27.8887 25.3441 27.7472 23.8526 29.3745 23.8526C31.0018 23.8526 31.9923 24.6309 31.9923 25.9752C31.9923 27.3195 31.214 28.876 29.3745 28.876C27.535 28.876 26.8982 26.5469 26.8982 26.5469H18.2693V27.9619H21.0286V32.8437C21.0286 32.8437 24.5689 32.848 32.9148 32.848C32.9148 32.848 32.6998 29.8 35.9544 29.8C39.2089 29.8 39.2797 32.6965 39.1382 34.0408C38.9967 35.3851 37.5109 36.5171 35.9544 36.5171C34.3978 36.5171 32.7026 34.8955 32.7026 34.8955H16.2175C15.51 34.8955 15.7223 35.886 16.2175 35.886H20.4626C20.4626 35.886 21.3824 36.6643 18.9768 38.6453C16.5713 40.6264 13.7594 40.9044 10.6282 38.6453C10.6282 38.6453 9.92066 37.9378 9.21315 36.452C8.50564 34.9663 8.54007 33.3047 8.46588 32.3485C8.39169 31.3922 7.72554 32.1198 7.68762 32.3485C7.64969 32.5772 7.38859 35.1785 7.84099 35.5323C8.29338 35.886 7.69329 36.6472 6.72777 35.7445C5.2086 34.3817 4.32157 33.4245 5.06811 30.7919C5.11921 30.6515 5.25616 30.6364 5.53409 30.6293C6.03971 30.631 5.92788 30.6946 6.18215 30.5089C6.42331 30.3328 6.96376 29.7269 7.15862 29.3712C7.7954 26.9724 9.01242 26.1886 10.9819 25.9752C13.5645 25.6954 15.3311 28.6001 14.8732 29.7307C14.6764 30.2167 15.7036 30.2168 15.6515 29.7307C15.4938 27.7157 14.3752 25.2026 10.9819 25.2026C7.12058 25.2026 6.52767 29.3412 5.95859 29.7307C5.38951 30.1202 3.28276 28.8066 1.71352 26.5469C0.943837 24.9581 0.723002 23.7876 1.28901 22.0188C2.3775 22.995 3.69664 23.3687 6.3831 23.2216C8.8162 22.8455 10.1189 22.5064 12.1847 21.382C12.8005 20.4915 12.3349 20.2091 12.1847 20.1793C6.51812 23.4376 1.28901 21.7358 0.510748 20.3208C-0.267516 18.9057 0.227741 15.7927 0.369245 15.5804C0.510748 15.3682 0.723003 15.4389 0.864504 15.5804C1.00601 15.7219 4.89733 18.0567 5.53409 17.6322C6.17085 17.2077 5.60484 16.7124 5.46333 16.7124C5.32183 16.7124 1.01676 15.8735 1.00601 13.8116C0.981473 9.10955 2.14399 6.57672 8.64714 5.25075V10.4863C8.64714 11.1939 9.92066 11.1939 9.92066 10.4863V8.01004C9.92066 6.59502 11.1942 0.793423 16.0053 1.00568C20.8163 1.21793 21.1478 7.56107 21.2409 8.01004Z" fill="white" stroke="#1ED690" stroke-width="0.141502"/>
</svg>
