<svg width="1363" height="163" viewBox="0 0 1363 163" fill="none" xmlns="http://www.w3.org/2000/svg">
<path d="M0 15C0 6.71573 6.71573 0 15 0H37V163H15C6.71573 163 0 156.284 0 148V15Z" fill="#424242"/>
<rect width="1097" height="163" transform="translate(37)" fill="#F0F0F0"/>
<path d="M101.906 53.9219L94.3945 51.2383V48.0859L104.602 52.375V54.6367L101.906 53.9219ZM94.3945 56.1719L101.918 53.4297L104.602 52.7852V55.0352L94.3945 59.3242V56.1719ZM118.137 61H114.422L114.445 58.2578H118.137C119.059 58.2578 119.836 58.0508 120.469 57.6367C121.102 57.2148 121.578 56.6016 121.898 55.7969C122.227 54.9922 122.391 54.0195 122.391 52.8789V52.0469C122.391 51.1719 122.297 50.4023 122.109 49.7383C121.93 49.0742 121.66 48.5156 121.301 48.0625C120.941 47.6094 120.5 47.2695 119.977 47.043C119.453 46.8086 118.852 46.6914 118.172 46.6914H114.352V43.9375H118.172C119.312 43.9375 120.355 44.1328 121.301 44.5234C122.254 44.9062 123.078 45.457 123.773 46.1758C124.469 46.8945 125.004 47.7539 125.379 48.7539C125.762 49.7461 125.953 50.8516 125.953 52.0703V52.8789C125.953 54.0898 125.762 55.1953 125.379 56.1953C125.004 57.1953 124.469 58.0547 123.773 58.7734C123.086 59.4844 122.262 60.0352 121.301 60.4258C120.348 60.8086 119.293 61 118.137 61ZM116.414 43.9375V61H112.898V43.9375H116.414ZM131.859 48.3203V61H128.473V48.3203H131.859ZM128.262 45.0156C128.262 44.5234 128.434 44.1172 128.777 43.7969C129.121 43.4766 129.582 43.3164 130.16 43.3164C130.73 43.3164 131.188 43.4766 131.531 43.7969C131.883 44.1172 132.059 44.5234 132.059 45.0156C132.059 45.5078 131.883 45.9141 131.531 46.2344C131.188 46.5547 130.73 46.7148 130.16 46.7148C129.582 46.7148 129.121 46.5547 128.777 46.2344C128.434 45.9141 128.262 45.5078 128.262 45.0156ZM142.676 48.3203H145.734V60.5781C145.734 61.7344 145.477 62.7148 144.961 63.5195C144.453 64.332 143.742 64.9453 142.828 65.3594C141.914 65.7812 140.852 65.9922 139.641 65.9922C139.109 65.9922 138.547 65.9219 137.953 65.7812C137.367 65.6406 136.805 65.4219 136.266 65.125C135.734 64.8281 135.289 64.4531 134.93 64L136.418 62.0078C136.809 62.4609 137.262 62.8125 137.777 63.0625C138.293 63.3203 138.863 63.4492 139.488 63.4492C140.098 63.4492 140.613 63.3359 141.035 63.1094C141.457 62.8906 141.781 62.5664 142.008 62.1367C142.234 61.7148 142.348 61.2031 142.348 60.6016V51.25L142.676 48.3203ZM134.145 54.8125V54.5664C134.145 53.5977 134.262 52.7188 134.496 51.9297C134.738 51.1328 135.078 50.4492 135.516 49.8789C135.961 49.3086 136.5 48.8672 137.133 48.5547C137.766 48.2422 138.48 48.0859 139.277 48.0859C140.121 48.0859 140.828 48.2422 141.398 48.5547C141.969 48.8672 142.438 49.3125 142.805 49.8906C143.172 50.4609 143.457 51.1367 143.66 51.918C143.871 52.6914 144.035 53.5391 144.152 54.4609V55C144.035 55.8828 143.859 56.7031 143.625 57.4609C143.391 58.2188 143.082 58.8828 142.699 59.4531C142.316 60.0156 141.84 60.4531 141.27 60.7656C140.707 61.0781 140.035 61.2344 139.254 61.2344C138.473 61.2344 137.766 61.0742 137.133 60.7539C136.508 60.4336 135.973 59.9844 135.527 59.4062C135.082 58.8281 134.738 58.1484 134.496 57.3672C134.262 56.5859 134.145 55.7344 134.145 54.8125ZM137.52 54.5664V54.8125C137.52 55.3359 137.57 55.8242 137.672 56.2773C137.773 56.7305 137.93 57.1328 138.141 57.4844C138.359 57.8281 138.629 58.0977 138.949 58.293C139.277 58.4805 139.664 58.5742 140.109 58.5742C140.727 58.5742 141.23 58.4453 141.621 58.1875C142.012 57.9219 142.305 57.5586 142.5 57.0977C142.695 56.6367 142.809 56.1055 142.84 55.5039V53.9688C142.824 53.4766 142.758 53.0352 142.641 52.6445C142.523 52.2461 142.359 51.9062 142.148 51.625C141.938 51.3438 141.664 51.125 141.328 50.9688C140.992 50.8125 140.594 50.7344 140.133 50.7344C139.688 50.7344 139.301 50.8359 138.973 51.0391C138.652 51.2344 138.383 51.5039 138.164 51.8477C137.953 52.1914 137.793 52.5977 137.684 53.0664C137.574 53.5273 137.52 54.0273 137.52 54.5664ZM151.922 48.3203V61H148.535V48.3203H151.922ZM148.324 45.0156C148.324 44.5234 148.496 44.1172 148.84 43.7969C149.184 43.4766 149.645 43.3164 150.223 43.3164C150.793 43.3164 151.25 43.4766 151.594 43.7969C151.945 44.1172 152.121 44.5234 152.121 45.0156C152.121 45.5078 151.945 45.9141 151.594 46.2344C151.25 46.5547 150.793 46.7148 150.223 46.7148C149.645 46.7148 149.184 46.5547 148.84 46.2344C148.496 45.9141 148.324 45.5078 148.324 45.0156ZM160.922 48.3203V50.7109H153.539V48.3203H160.922ZM155.367 45.1914H158.742V57.1797C158.742 57.5469 158.789 57.8281 158.883 58.0234C158.984 58.2188 159.133 58.3555 159.328 58.4336C159.523 58.5039 159.77 58.5391 160.066 58.5391C160.277 58.5391 160.465 58.5312 160.629 58.5156C160.801 58.4922 160.945 58.4688 161.062 58.4453L161.074 60.9297C160.785 61.0234 160.473 61.0977 160.137 61.1523C159.801 61.207 159.43 61.2344 159.023 61.2344C158.281 61.2344 157.633 61.1133 157.078 60.8711C156.531 60.6211 156.109 60.2227 155.812 59.6758C155.516 59.1289 155.367 58.4102 155.367 57.5195V45.1914ZM169.688 58.1406V52.4922C169.688 52.0859 169.621 51.7383 169.488 51.4492C169.355 51.1523 169.148 50.9219 168.867 50.7578C168.594 50.5938 168.238 50.5117 167.801 50.5117C167.426 50.5117 167.102 50.5781 166.828 50.7109C166.555 50.8359 166.344 51.0195 166.195 51.2617C166.047 51.4961 165.973 51.7734 165.973 52.0938H162.598C162.598 51.5547 162.723 51.043 162.973 50.5586C163.223 50.0742 163.586 49.6484 164.062 49.2812C164.539 48.9062 165.105 48.6133 165.762 48.4023C166.426 48.1914 167.168 48.0859 167.988 48.0859C168.973 48.0859 169.848 48.25 170.613 48.5781C171.379 48.9062 171.98 49.3984 172.418 50.0547C172.863 50.7109 173.086 51.5312 173.086 52.5156V57.9414C173.086 58.6367 173.129 59.207 173.215 59.6523C173.301 60.0898 173.426 60.4727 173.59 60.8008V61H170.18C170.016 60.6562 169.891 60.2266 169.805 59.7109C169.727 59.1875 169.688 58.6641 169.688 58.1406ZM170.133 53.2773L170.156 55.1875H168.27C167.824 55.1875 167.438 55.2383 167.109 55.3398C166.781 55.4414 166.512 55.5859 166.301 55.7734C166.09 55.9531 165.934 56.1641 165.832 56.4062C165.738 56.6484 165.691 56.9141 165.691 57.2031C165.691 57.4922 165.758 57.7539 165.891 57.9883C166.023 58.2148 166.215 58.3945 166.465 58.5273C166.715 58.6523 167.008 58.7148 167.344 58.7148C167.852 58.7148 168.293 58.6133 168.668 58.4102C169.043 58.207 169.332 57.957 169.535 57.6602C169.746 57.3633 169.855 57.082 169.863 56.8164L170.754 58.2461C170.629 58.5664 170.457 58.8984 170.238 59.2422C170.027 59.5859 169.758 59.9102 169.43 60.2148C169.102 60.5117 168.707 60.7578 168.246 60.9531C167.785 61.1406 167.238 61.2344 166.605 61.2344C165.801 61.2344 165.07 61.0742 164.414 60.7539C163.766 60.4258 163.25 59.9766 162.867 59.4062C162.492 58.8281 162.305 58.1719 162.305 57.4375C162.305 56.7734 162.43 56.1836 162.68 55.668C162.93 55.1523 163.297 54.7188 163.781 54.3672C164.273 54.0078 164.887 53.7383 165.621 53.5586C166.355 53.3711 167.207 53.2773 168.176 53.2773H170.133ZM179.25 43V61H175.863V43H179.25ZM189.832 43.9375H192.809L197.191 56.4648L201.574 43.9375H204.551L198.387 61H195.996L189.832 43.9375ZM188.227 43.9375H191.191L191.73 56.1484V61H188.227V43.9375ZM203.191 43.9375H206.168V61H202.652V56.1484L203.191 43.9375ZM212.602 48.3203V61H209.215V48.3203H212.602ZM209.004 45.0156C209.004 44.5234 209.176 44.1172 209.52 43.7969C209.863 43.4766 210.324 43.3164 210.902 43.3164C211.473 43.3164 211.93 43.4766 212.273 43.7969C212.625 44.1172 212.801 44.5234 212.801 45.0156C212.801 45.5078 212.625 45.9141 212.273 46.2344C211.93 46.5547 211.473 46.7148 210.902 46.7148C210.324 46.7148 209.863 46.5547 209.52 46.2344C209.176 45.9141 209.004 45.5078 209.004 45.0156ZM218.695 51.0273V61H215.32V48.3203H218.484L218.695 51.0273ZM218.203 54.2148H217.289C217.289 53.2773 217.41 52.4336 217.652 51.6836C217.895 50.9258 218.234 50.2812 218.672 49.75C219.109 49.2109 219.629 48.8008 220.23 48.5195C220.84 48.2305 221.52 48.0859 222.27 48.0859C222.863 48.0859 223.406 48.1719 223.898 48.3438C224.391 48.5156 224.812 48.7891 225.164 49.1641C225.523 49.5391 225.797 50.0352 225.984 50.6523C226.18 51.2695 226.277 52.0234 226.277 52.9141V61H222.879V52.9023C222.879 52.3398 222.801 51.9023 222.645 51.5898C222.488 51.2773 222.258 51.0586 221.953 50.9336C221.656 50.8008 221.289 50.7344 220.852 50.7344C220.398 50.7344 220.004 50.8242 219.668 51.0039C219.34 51.1836 219.066 51.4336 218.848 51.7539C218.637 52.0664 218.477 52.4336 218.367 52.8555C218.258 53.2773 218.203 53.7305 218.203 54.2148ZM236.332 58.2344V43H239.73V61H236.672L236.332 58.2344ZM228.316 54.8125V54.5664C228.316 53.5977 228.426 52.7188 228.645 51.9297C228.863 51.1328 229.184 50.4492 229.605 49.8789C230.027 49.3086 230.547 48.8672 231.164 48.5547C231.781 48.2422 232.484 48.0859 233.273 48.0859C234.016 48.0859 234.664 48.2422 235.219 48.5547C235.781 48.8672 236.258 49.3125 236.648 49.8906C237.047 50.4609 237.367 51.1367 237.609 51.918C237.852 52.6914 238.027 53.5391 238.137 54.4609V55C238.027 55.8828 237.852 56.7031 237.609 57.4609C237.367 58.2188 237.047 58.8828 236.648 59.4531C236.258 60.0156 235.781 60.4531 235.219 60.7656C234.656 61.0781 234 61.2344 233.25 61.2344C232.461 61.2344 231.758 61.0742 231.141 60.7539C230.531 60.4336 230.016 59.9844 229.594 59.4062C229.18 58.8281 228.863 58.1484 228.645 57.3672C228.426 56.5859 228.316 55.7344 228.316 54.8125ZM231.691 54.5664V54.8125C231.691 55.3359 231.73 55.8242 231.809 56.2773C231.895 56.7305 232.031 57.1328 232.219 57.4844C232.414 57.8281 232.664 58.0977 232.969 58.293C233.281 58.4805 233.66 58.5742 234.105 58.5742C234.684 58.5742 235.16 58.4453 235.535 58.1875C235.91 57.9219 236.195 57.5586 236.391 57.0977C236.594 56.6367 236.711 56.1055 236.742 55.5039V53.9688C236.719 53.4766 236.648 53.0352 236.531 52.6445C236.422 52.2461 236.258 51.9062 236.039 51.625C235.828 51.3438 235.562 51.125 235.242 50.9688C234.93 50.8125 234.559 50.7344 234.129 50.7344C233.691 50.7344 233.316 50.8359 233.004 51.0391C232.691 51.2344 232.438 51.5039 232.242 51.8477C232.055 52.1914 231.914 52.5977 231.82 53.0664C231.734 53.5273 231.691 54.0273 231.691 54.5664Z" fill="#888888"/>
<path d="M112.125 84.875V119H103.898V84.875H112.125ZM122.391 84.875V91.2266H93.8672V84.875H122.391ZM134.695 112.625V102.172C134.695 101.453 134.594 100.836 134.391 100.32C134.188 99.8047 133.867 99.4062 133.43 99.125C132.992 98.8281 132.406 98.6797 131.672 98.6797C131.078 98.6797 130.57 98.7812 130.148 98.9844C129.727 99.1875 129.406 99.4922 129.188 99.8984C128.969 100.305 128.859 100.82 128.859 101.445H120.961C120.961 100.273 121.219 99.1875 121.734 98.1875C122.266 97.1719 123.016 96.2891 123.984 95.5391C124.969 94.7891 126.141 94.2109 127.5 93.8047C128.875 93.3828 130.406 93.1719 132.094 93.1719C134.109 93.1719 135.906 93.5078 137.484 94.1797C139.078 94.8516 140.336 95.8594 141.258 97.2031C142.18 98.5312 142.641 100.203 142.641 102.219V112.602C142.641 114.258 142.734 115.516 142.922 116.375C143.109 117.219 143.375 117.961 143.719 118.602V119H135.797C135.422 118.219 135.141 117.266 134.953 116.141C134.781 115 134.695 113.828 134.695 112.625ZM135.656 103.508L135.703 107.727H132.211C131.477 107.727 130.852 107.828 130.336 108.031C129.836 108.234 129.43 108.516 129.117 108.875C128.82 109.219 128.602 109.609 128.461 110.047C128.336 110.484 128.273 110.945 128.273 111.43C128.273 111.898 128.383 112.32 128.602 112.695C128.836 113.055 129.148 113.336 129.539 113.539C129.93 113.742 130.367 113.844 130.852 113.844C131.727 113.844 132.469 113.68 133.078 113.352C133.703 113.008 134.18 112.594 134.508 112.109C134.836 111.625 135 111.172 135 110.75L136.734 113.984C136.422 114.609 136.062 115.242 135.656 115.883C135.266 116.523 134.773 117.117 134.18 117.664C133.602 118.195 132.891 118.633 132.047 118.977C131.203 119.305 130.18 119.469 128.977 119.469C127.414 119.469 125.977 119.148 124.664 118.508C123.367 117.867 122.328 116.977 121.547 115.836C120.766 114.68 120.375 113.352 120.375 111.852C120.375 110.539 120.609 109.367 121.078 108.336C121.562 107.305 122.289 106.43 123.258 105.711C124.227 104.992 125.461 104.445 126.961 104.07C128.461 103.695 130.227 103.508 132.258 103.508H135.656ZM147.094 83H154.992V112.766L154.172 119H147.094V83ZM170.555 106.039V106.531C170.555 108.453 170.359 110.203 169.969 111.781C169.578 113.359 168.977 114.727 168.164 115.883C167.352 117.023 166.328 117.906 165.094 118.531C163.859 119.156 162.398 119.469 160.711 119.469C159.18 119.469 157.867 119.141 156.773 118.484C155.68 117.812 154.766 116.891 154.031 115.719C153.297 114.531 152.703 113.164 152.25 111.617C151.797 110.055 151.438 108.383 151.172 106.602V106.016C151.438 104.25 151.797 102.594 152.25 101.047C152.703 99.4844 153.297 98.1172 154.031 96.9453C154.766 95.7578 155.672 94.8359 156.75 94.1797C157.844 93.5078 159.148 93.1719 160.664 93.1719C162.367 93.1719 163.836 93.4922 165.07 94.1328C166.32 94.7734 167.352 95.6719 168.164 96.8281C168.977 97.9844 169.578 99.3438 169.969 100.906C170.359 102.469 170.555 104.18 170.555 106.039ZM162.656 106.531V106.039C162.656 105.117 162.602 104.25 162.492 103.438C162.383 102.625 162.188 101.906 161.906 101.281C161.625 100.656 161.227 100.164 160.711 99.8047C160.195 99.4453 159.523 99.2656 158.695 99.2656C157.852 99.2656 157.141 99.4062 156.562 99.6875C156 99.9688 155.547 100.375 155.203 100.906C154.875 101.422 154.641 102.062 154.5 102.828C154.359 103.578 154.297 104.43 154.312 105.383V107.234C154.281 108.531 154.398 109.641 154.664 110.562C154.93 111.484 155.391 112.188 156.047 112.672C156.703 113.156 157.602 113.398 158.742 113.398C159.586 113.398 160.266 113.234 160.781 112.906C161.312 112.578 161.711 112.109 161.977 111.5C162.242 110.891 162.422 110.164 162.516 109.32C162.609 108.477 162.656 107.547 162.656 106.531ZM182.414 83V119H174.492V83H182.414ZM199.57 119.469C197.508 119.469 195.664 119.148 194.039 118.508C192.414 117.852 191.039 116.953 189.914 115.812C188.805 114.672 187.953 113.359 187.359 111.875C186.781 110.391 186.492 108.82 186.492 107.164V106.273C186.492 104.414 186.75 102.695 187.266 101.117C187.781 99.5234 188.547 98.1328 189.562 96.9453C190.578 95.7578 191.852 94.8359 193.383 94.1797C194.914 93.5078 196.695 93.1719 198.727 93.1719C200.523 93.1719 202.133 93.4609 203.555 94.0391C204.977 94.6172 206.18 95.4453 207.164 96.5234C208.164 97.6016 208.922 98.9062 209.438 100.438C209.969 101.969 210.234 103.688 210.234 105.594V108.805H189.516V103.859H202.523V103.25C202.539 102.406 202.391 101.688 202.078 101.094C201.781 100.5 201.344 100.047 200.766 99.7344C200.188 99.4219 199.484 99.2656 198.656 99.2656C197.797 99.2656 197.086 99.4531 196.523 99.8281C195.977 100.203 195.547 100.719 195.234 101.375C194.938 102.016 194.727 102.758 194.602 103.602C194.477 104.445 194.414 105.336 194.414 106.273V107.164C194.414 108.102 194.539 108.953 194.789 109.719C195.055 110.484 195.43 111.141 195.914 111.688C196.414 112.219 197.008 112.633 197.695 112.93C198.398 113.227 199.195 113.375 200.086 113.375C201.164 113.375 202.227 113.172 203.273 112.766C204.32 112.359 205.219 111.688 205.969 110.75L209.555 115.016C209.039 115.75 208.305 116.461 207.352 117.148C206.414 117.836 205.289 118.398 203.977 118.836C202.664 119.258 201.195 119.469 199.57 119.469ZM224.414 106.578V106.086C224.414 104.227 224.68 102.516 225.211 100.953C225.742 99.375 226.523 98.0078 227.555 96.8516C228.586 95.6953 229.859 94.7969 231.375 94.1562C232.891 93.5 234.641 93.1719 236.625 93.1719C238.625 93.1719 240.383 93.5 241.898 94.1562C243.43 94.7969 244.711 95.6953 245.742 96.8516C246.773 98.0078 247.555 99.375 248.086 100.953C248.617 102.516 248.883 104.227 248.883 106.086V106.578C248.883 108.422 248.617 110.133 248.086 111.711C247.555 113.273 246.773 114.641 245.742 115.812C244.711 116.969 243.438 117.867 241.922 118.508C240.406 119.148 238.656 119.469 236.672 119.469C234.688 119.469 232.93 119.148 231.398 118.508C229.867 117.867 228.586 116.969 227.555 115.812C226.523 114.641 225.742 113.273 225.211 111.711C224.68 110.133 224.414 108.422 224.414 106.578ZM232.312 106.086V106.578C232.312 107.531 232.383 108.422 232.523 109.25C232.664 110.078 232.898 110.805 233.227 111.43C233.555 112.039 234 112.516 234.562 112.859C235.125 113.203 235.828 113.375 236.672 113.375C237.5 113.375 238.188 113.203 238.734 112.859C239.297 112.516 239.742 112.039 240.07 111.43C240.398 110.805 240.633 110.078 240.773 109.25C240.914 108.422 240.984 107.531 240.984 106.578V106.086C240.984 105.164 240.914 104.297 240.773 103.484C240.633 102.656 240.398 101.93 240.07 101.305C239.742 100.664 239.297 100.164 238.734 99.8047C238.172 99.4453 237.469 99.2656 236.625 99.2656C235.797 99.2656 235.102 99.4453 234.539 99.8047C233.992 100.164 233.555 100.664 233.227 101.305C232.898 101.93 232.664 102.656 232.523 103.484C232.383 104.297 232.312 105.164 232.312 106.086ZM262.078 119H254.133V91.5781C254.133 89.6094 254.531 87.9531 255.328 86.6094C256.125 85.2656 257.25 84.25 258.703 83.5625C260.156 82.8594 261.875 82.5078 263.859 82.5078C264.547 82.5078 265.195 82.5547 265.805 82.6484C266.414 82.7422 267.008 82.8594 267.586 83L267.609 88.8125C267.328 88.7344 267.039 88.6797 266.742 88.6484C266.445 88.6172 266.078 88.6016 265.641 88.6016C264.875 88.6016 264.227 88.7188 263.695 88.9531C263.164 89.1719 262.758 89.5078 262.477 89.9609C262.211 90.3984 262.078 90.9375 262.078 91.5781V119ZM267 93.6406V99.125H250.477V93.6406H267ZM301.57 107.445H309.773C309.664 109.82 309.023 111.914 307.852 113.727C306.68 115.539 305.055 116.953 302.977 117.969C300.914 118.969 298.477 119.469 295.664 119.469C293.383 119.469 291.344 119.086 289.547 118.32C287.766 117.555 286.25 116.453 285 115.016C283.766 113.578 282.82 111.836 282.164 109.789C281.523 107.742 281.203 105.438 281.203 102.875V101.023C281.203 98.4609 281.539 96.1562 282.211 94.1094C282.898 92.0469 283.867 90.2969 285.117 88.8594C286.383 87.4062 287.898 86.2969 289.664 85.5312C291.43 84.7656 293.391 84.3828 295.547 84.3828C298.516 84.3828 301.023 84.9141 303.07 85.9766C305.117 87.0391 306.703 88.5 307.828 90.3594C308.953 92.2031 309.617 94.3047 309.82 96.6641H301.617C301.586 95.3828 301.367 94.3125 300.961 93.4531C300.555 92.5781 299.914 91.9219 299.039 91.4844C298.164 91.0469 297 90.8281 295.547 90.8281C294.531 90.8281 293.648 91.0156 292.898 91.3906C292.148 91.7656 291.523 92.3594 291.023 93.1719C290.523 93.9844 290.148 95.0391 289.898 96.3359C289.664 97.6172 289.547 99.1641 289.547 100.977V102.875C289.547 104.688 289.656 106.234 289.875 107.516C290.094 108.797 290.445 109.844 290.93 110.656C291.414 111.469 292.039 112.07 292.805 112.461C293.586 112.836 294.539 113.023 295.664 113.023C296.914 113.023 297.969 112.828 298.828 112.438C299.688 112.031 300.352 111.422 300.82 110.609C301.289 109.781 301.539 108.727 301.57 107.445ZM312.305 106.578V106.086C312.305 104.227 312.57 102.516 313.102 100.953C313.633 99.375 314.414 98.0078 315.445 96.8516C316.477 95.6953 317.75 94.7969 319.266 94.1562C320.781 93.5 322.531 93.1719 324.516 93.1719C326.516 93.1719 328.273 93.5 329.789 94.1562C331.32 94.7969 332.602 95.6953 333.633 96.8516C334.664 98.0078 335.445 99.375 335.977 100.953C336.508 102.516 336.773 104.227 336.773 106.086V106.578C336.773 108.422 336.508 110.133 335.977 111.711C335.445 113.273 334.664 114.641 333.633 115.812C332.602 116.969 331.328 117.867 329.812 118.508C328.297 119.148 326.547 119.469 324.562 119.469C322.578 119.469 320.82 119.148 319.289 118.508C317.758 117.867 316.477 116.969 315.445 115.812C314.414 114.641 313.633 113.273 313.102 111.711C312.57 110.133 312.305 108.422 312.305 106.578ZM320.203 106.086V106.578C320.203 107.531 320.273 108.422 320.414 109.25C320.555 110.078 320.789 110.805 321.117 111.43C321.445 112.039 321.891 112.516 322.453 112.859C323.016 113.203 323.719 113.375 324.562 113.375C325.391 113.375 326.078 113.203 326.625 112.859C327.188 112.516 327.633 112.039 327.961 111.43C328.289 110.805 328.523 110.078 328.664 109.25C328.805 108.422 328.875 107.531 328.875 106.578V106.086C328.875 105.164 328.805 104.297 328.664 103.484C328.523 102.656 328.289 101.93 327.961 101.305C327.633 100.664 327.188 100.164 326.625 99.8047C326.062 99.4453 325.359 99.2656 324.516 99.2656C323.688 99.2656 322.992 99.4453 322.43 99.8047C321.883 100.164 321.445 100.664 321.117 101.305C320.789 101.93 320.555 102.656 320.414 103.484C320.273 104.297 320.203 105.164 320.203 106.086ZM348.047 99.0547V119H340.148V93.6406H347.555L348.047 99.0547ZM347.109 105.453L345.258 105.5C345.258 103.562 345.492 101.836 345.961 100.32C346.43 98.7891 347.094 97.4922 347.953 96.4297C348.812 95.3672 349.836 94.5625 351.023 94.0156C352.227 93.4531 353.562 93.1719 355.031 93.1719C356.203 93.1719 357.273 93.3438 358.242 93.6875C359.227 94.0312 360.07 94.5859 360.773 95.3516C361.492 96.1172 362.039 97.1328 362.414 98.3984C362.805 99.6484 363 101.195 363 103.039V119H355.055V103.016C355.055 102 354.914 101.227 354.633 100.695C354.352 100.148 353.945 99.7734 353.414 99.5703C352.883 99.3672 352.234 99.2656 351.469 99.2656C350.656 99.2656 349.969 99.4219 349.406 99.7344C348.844 100.047 348.391 100.484 348.047 101.047C347.719 101.594 347.477 102.242 347.32 102.992C347.18 103.742 347.109 104.562 347.109 105.453ZM380.742 93.6406V99.125H365.461V93.6406H380.742ZM368.672 87.3359H376.57V110.727C376.57 111.398 376.648 111.922 376.805 112.297C376.961 112.656 377.227 112.914 377.602 113.07C377.992 113.211 378.508 113.281 379.148 113.281C379.602 113.281 379.977 113.273 380.273 113.258C380.57 113.227 380.852 113.188 381.117 113.141V118.789C380.445 119.008 379.742 119.172 379.008 119.281C378.273 119.406 377.492 119.469 376.664 119.469C374.977 119.469 373.531 119.203 372.328 118.672C371.141 118.141 370.234 117.305 369.609 116.164C368.984 115.023 368.672 113.539 368.672 111.711V87.3359ZM396.164 119.469C394.102 119.469 392.258 119.148 390.633 118.508C389.008 117.852 387.633 116.953 386.508 115.812C385.398 114.672 384.547 113.359 383.953 111.875C383.375 110.391 383.086 108.82 383.086 107.164V106.273C383.086 104.414 383.344 102.695 383.859 101.117C384.375 99.5234 385.141 98.1328 386.156 96.9453C387.172 95.7578 388.445 94.8359 389.977 94.1797C391.508 93.5078 393.289 93.1719 395.32 93.1719C397.117 93.1719 398.727 93.4609 400.148 94.0391C401.57 94.6172 402.773 95.4453 403.758 96.5234C404.758 97.6016 405.516 98.9062 406.031 100.438C406.562 101.969 406.828 103.688 406.828 105.594V108.805H386.109V103.859H399.117V103.25C399.133 102.406 398.984 101.688 398.672 101.094C398.375 100.5 397.938 100.047 397.359 99.7344C396.781 99.4219 396.078 99.2656 395.25 99.2656C394.391 99.2656 393.68 99.4531 393.117 99.8281C392.57 100.203 392.141 100.719 391.828 101.375C391.531 102.016 391.32 102.758 391.195 103.602C391.07 104.445 391.008 105.336 391.008 106.273V107.164C391.008 108.102 391.133 108.953 391.383 109.719C391.648 110.484 392.023 111.141 392.508 111.688C393.008 112.219 393.602 112.633 394.289 112.93C394.992 113.227 395.789 113.375 396.68 113.375C397.758 113.375 398.82 113.172 399.867 112.766C400.914 112.359 401.812 111.688 402.562 110.75L406.148 115.016C405.633 115.75 404.898 116.461 403.945 117.148C403.008 117.836 401.883 118.398 400.57 118.836C399.258 119.258 397.789 119.469 396.164 119.469ZM417.797 99.0547V119H409.898V93.6406H417.305L417.797 99.0547ZM416.859 105.453L415.008 105.5C415.008 103.562 415.242 101.836 415.711 100.32C416.18 98.7891 416.844 97.4922 417.703 96.4297C418.562 95.3672 419.586 94.5625 420.773 94.0156C421.977 93.4531 423.312 93.1719 424.781 93.1719C425.953 93.1719 427.023 93.3438 427.992 93.6875C428.977 94.0312 429.82 94.5859 430.523 95.3516C431.242 96.1172 431.789 97.1328 432.164 98.3984C432.555 99.6484 432.75 101.195 432.75 103.039V119H424.805V103.016C424.805 102 424.664 101.227 424.383 100.695C424.102 100.148 423.695 99.7734 423.164 99.5703C422.633 99.3672 421.984 99.2656 421.219 99.2656C420.406 99.2656 419.719 99.4219 419.156 99.7344C418.594 100.047 418.141 100.484 417.797 101.047C417.469 101.594 417.227 102.242 417.07 102.992C416.93 103.742 416.859 104.562 416.859 105.453ZM450.492 93.6406V99.125H435.211V93.6406H450.492ZM438.422 87.3359H446.32V110.727C446.32 111.398 446.398 111.922 446.555 112.297C446.711 112.656 446.977 112.914 447.352 113.07C447.742 113.211 448.258 113.281 448.898 113.281C449.352 113.281 449.727 113.273 450.023 113.258C450.32 113.227 450.602 113.188 450.867 113.141V118.789C450.195 119.008 449.492 119.172 448.758 119.281C448.023 119.406 447.242 119.469 446.414 119.469C444.727 119.469 443.281 119.203 442.078 118.672C440.891 118.141 439.984 117.305 439.359 116.164C438.734 115.023 438.422 113.539 438.422 111.711V87.3359ZM466.922 111.875C466.922 111.438 466.773 111.062 466.477 110.75C466.195 110.422 465.695 110.125 464.977 109.859C464.258 109.578 463.25 109.297 461.953 109.016C460.719 108.75 459.555 108.398 458.461 107.961C457.383 107.523 456.438 106.992 455.625 106.367C454.812 105.742 454.172 105 453.703 104.141C453.25 103.281 453.023 102.297 453.023 101.188C453.023 100.109 453.25 99.0938 453.703 98.1406C454.172 97.1719 454.852 96.3203 455.742 95.5859C456.648 94.8359 457.75 94.25 459.047 93.8281C460.344 93.3906 461.82 93.1719 463.477 93.1719C465.758 93.1719 467.727 93.5234 469.383 94.2266C471.039 94.9141 472.312 95.8828 473.203 97.1328C474.109 98.3672 474.562 99.7969 474.562 101.422H466.664C466.664 100.781 466.555 100.234 466.336 99.7812C466.133 99.3281 465.797 98.9844 465.328 98.75C464.859 98.5 464.234 98.375 463.453 98.375C462.906 98.375 462.406 98.4766 461.953 98.6797C461.516 98.8828 461.164 99.1641 460.898 99.5234C460.633 99.8828 460.5 100.305 460.5 100.789C460.5 101.133 460.578 101.445 460.734 101.727C460.906 101.992 461.164 102.242 461.508 102.477C461.852 102.695 462.289 102.898 462.82 103.086C463.352 103.258 463.992 103.414 464.742 103.555C466.445 103.867 468.039 104.312 469.523 104.891C471.008 105.469 472.211 106.289 473.133 107.352C474.07 108.414 474.539 109.844 474.539 111.641C474.539 112.766 474.281 113.805 473.766 114.758C473.25 115.695 472.508 116.523 471.539 117.242C470.57 117.945 469.406 118.492 468.047 118.883C466.688 119.273 465.156 119.469 463.453 119.469C461.031 119.469 458.984 119.039 457.312 118.18C455.641 117.305 454.375 116.211 453.516 114.898C452.672 113.57 452.25 112.227 452.25 110.867H459.609C459.641 111.648 459.828 112.289 460.172 112.789C460.531 113.289 461.008 113.656 461.602 113.891C462.195 114.125 462.883 114.242 463.664 114.242C464.383 114.242 464.977 114.141 465.445 113.938C465.93 113.734 466.297 113.461 466.547 113.117C466.797 112.758 466.922 112.344 466.922 111.875Z" fill="black"/>
<path d="M1134 0H1348C1356.28 0 1363 6.71573 1363 15V148C1363 156.284 1356.28 163 1348 163H1134V0Z" fill="#20E399"/>
<path d="M1241 100.25H1238C1233.8 100.25 1231.7 100.25 1230.1 99.4325C1228.68 98.7136 1227.54 97.5661 1226.82 96.155C1226 94.5508 1226 92.4504 1226 88.25V77.75C1226 81.2446 1226 82.9918 1226.57 84.3703C1227.33 86.2078 1228.79 87.668 1230.63 88.4293C1232.01 89 1233.76 89 1237.25 89M1214.75 66.5H1282.25M1248.5 77.75H1271M1252.25 89H1271M1226.75 111.5H1270.25C1274.45 111.5 1276.55 111.5 1278.16 110.683C1279.57 109.964 1280.71 108.816 1281.43 107.405C1282.25 105.801 1282.25 103.7 1282.25 99.5V63.5C1282.25 59.2996 1282.25 57.1994 1281.43 55.5951C1280.71 54.1838 1279.57 53.0365 1278.16 52.3175C1276.55 51.5 1274.45 51.5 1270.25 51.5H1226.75C1222.55 51.5 1220.45 51.5 1218.85 52.3175C1217.43 53.0365 1216.29 54.1838 1215.57 55.5951C1214.75 57.1994 1214.75 59.2996 1214.75 63.5V99.5C1214.75 103.7 1214.75 105.801 1215.57 107.405C1216.29 108.816 1217.43 109.964 1218.85 110.683C1220.45 111.5 1222.55 111.5 1226.75 111.5Z" stroke="white" stroke-width="5" stroke-linecap="round" stroke-linejoin="round"/>
</svg>
