<svg width="1363" height="163" viewBox="0 0 1363 163" fill="none" xmlns="http://www.w3.org/2000/svg">
<path d="M0 15C0 6.71573 6.71573 0 15 0H37V163H15C6.71573 163 0 156.284 0 148V15Z" fill="#424242"/>
<rect width="1097" height="163" transform="translate(37)" fill="#F0F0F0"/>
<path d="M101.906 53.9219L94.3945 51.2383V48.0859L104.602 52.375V54.6367L101.906 53.9219ZM94.3945 56.1719L101.918 53.4297L104.602 52.7852V55.0352L94.3945 59.3242V56.1719ZM118.137 61H114.422L114.445 58.2578H118.137C119.059 58.2578 119.836 58.0508 120.469 57.6367C121.102 57.2148 121.578 56.6016 121.898 55.7969C122.227 54.9922 122.391 54.0195 122.391 52.8789V52.0469C122.391 51.1719 122.297 50.4023 122.109 49.7383C121.93 49.0742 121.66 48.5156 121.301 48.0625C120.941 47.6094 120.5 47.2695 119.977 47.043C119.453 46.8086 118.852 46.6914 118.172 46.6914H114.352V43.9375H118.172C119.312 43.9375 120.355 44.1328 121.301 44.5234C122.254 44.9062 123.078 45.457 123.773 46.1758C124.469 46.8945 125.004 47.7539 125.379 48.7539C125.762 49.7461 125.953 50.8516 125.953 52.0703V52.8789C125.953 54.0898 125.762 55.1953 125.379 56.1953C125.004 57.1953 124.469 58.0547 123.773 58.7734C123.086 59.4844 122.262 60.0352 121.301 60.4258C120.348 60.8086 119.293 61 118.137 61ZM116.414 43.9375V61H112.898V43.9375H116.414ZM131.859 48.3203V61H128.473V48.3203H131.859ZM128.262 45.0156C128.262 44.5234 128.434 44.1172 128.777 43.7969C129.121 43.4766 129.582 43.3164 130.16 43.3164C130.73 43.3164 131.188 43.4766 131.531 43.7969C131.883 44.1172 132.059 44.5234 132.059 45.0156C132.059 45.5078 131.883 45.9141 131.531 46.2344C131.188 46.5547 130.73 46.7148 130.16 46.7148C129.582 46.7148 129.121 46.5547 128.777 46.2344C128.434 45.9141 128.262 45.5078 128.262 45.0156ZM142.676 48.3203H145.734V60.5781C145.734 61.7344 145.477 62.7148 144.961 63.5195C144.453 64.332 143.742 64.9453 142.828 65.3594C141.914 65.7812 140.852 65.9922 139.641 65.9922C139.109 65.9922 138.547 65.9219 137.953 65.7812C137.367 65.6406 136.805 65.4219 136.266 65.125C135.734 64.8281 135.289 64.4531 134.93 64L136.418 62.0078C136.809 62.4609 137.262 62.8125 137.777 63.0625C138.293 63.3203 138.863 63.4492 139.488 63.4492C140.098 63.4492 140.613 63.3359 141.035 63.1094C141.457 62.8906 141.781 62.5664 142.008 62.1367C142.234 61.7148 142.348 61.2031 142.348 60.6016V51.25L142.676 48.3203ZM134.145 54.8125V54.5664C134.145 53.5977 134.262 52.7188 134.496 51.9297C134.738 51.1328 135.078 50.4492 135.516 49.8789C135.961 49.3086 136.5 48.8672 137.133 48.5547C137.766 48.2422 138.48 48.0859 139.277 48.0859C140.121 48.0859 140.828 48.2422 141.398 48.5547C141.969 48.8672 142.438 49.3125 142.805 49.8906C143.172 50.4609 143.457 51.1367 143.66 51.918C143.871 52.6914 144.035 53.5391 144.152 54.4609V55C144.035 55.8828 143.859 56.7031 143.625 57.4609C143.391 58.2188 143.082 58.8828 142.699 59.4531C142.316 60.0156 141.84 60.4531 141.27 60.7656C140.707 61.0781 140.035 61.2344 139.254 61.2344C138.473 61.2344 137.766 61.0742 137.133 60.7539C136.508 60.4336 135.973 59.9844 135.527 59.4062C135.082 58.8281 134.738 58.1484 134.496 57.3672C134.262 56.5859 134.145 55.7344 134.145 54.8125ZM137.52 54.5664V54.8125C137.52 55.3359 137.57 55.8242 137.672 56.2773C137.773 56.7305 137.93 57.1328 138.141 57.4844C138.359 57.8281 138.629 58.0977 138.949 58.293C139.277 58.4805 139.664 58.5742 140.109 58.5742C140.727 58.5742 141.23 58.4453 141.621 58.1875C142.012 57.9219 142.305 57.5586 142.5 57.0977C142.695 56.6367 142.809 56.1055 142.84 55.5039V53.9688C142.824 53.4766 142.758 53.0352 142.641 52.6445C142.523 52.2461 142.359 51.9062 142.148 51.625C141.938 51.3438 141.664 51.125 141.328 50.9688C140.992 50.8125 140.594 50.7344 140.133 50.7344C139.688 50.7344 139.301 50.8359 138.973 51.0391C138.652 51.2344 138.383 51.5039 138.164 51.8477C137.953 52.1914 137.793 52.5977 137.684 53.0664C137.574 53.5273 137.52 54.0273 137.52 54.5664ZM151.922 48.3203V61H148.535V48.3203H151.922ZM148.324 45.0156C148.324 44.5234 148.496 44.1172 148.84 43.7969C149.184 43.4766 149.645 43.3164 150.223 43.3164C150.793 43.3164 151.25 43.4766 151.594 43.7969C151.945 44.1172 152.121 44.5234 152.121 45.0156C152.121 45.5078 151.945 45.9141 151.594 46.2344C151.25 46.5547 150.793 46.7148 150.223 46.7148C149.645 46.7148 149.184 46.5547 148.84 46.2344C148.496 45.9141 148.324 45.5078 148.324 45.0156ZM160.922 48.3203V50.7109H153.539V48.3203H160.922ZM155.367 45.1914H158.742V57.1797C158.742 57.5469 158.789 57.8281 158.883 58.0234C158.984 58.2188 159.133 58.3555 159.328 58.4336C159.523 58.5039 159.77 58.5391 160.066 58.5391C160.277 58.5391 160.465 58.5312 160.629 58.5156C160.801 58.4922 160.945 58.4688 161.062 58.4453L161.074 60.9297C160.785 61.0234 160.473 61.0977 160.137 61.1523C159.801 61.207 159.43 61.2344 159.023 61.2344C158.281 61.2344 157.633 61.1133 157.078 60.8711C156.531 60.6211 156.109 60.2227 155.812 59.6758C155.516 59.1289 155.367 58.4102 155.367 57.5195V45.1914ZM169.688 58.1406V52.4922C169.688 52.0859 169.621 51.7383 169.488 51.4492C169.355 51.1523 169.148 50.9219 168.867 50.7578C168.594 50.5938 168.238 50.5117 167.801 50.5117C167.426 50.5117 167.102 50.5781 166.828 50.7109C166.555 50.8359 166.344 51.0195 166.195 51.2617C166.047 51.4961 165.973 51.7734 165.973 52.0938H162.598C162.598 51.5547 162.723 51.043 162.973 50.5586C163.223 50.0742 163.586 49.6484 164.062 49.2812C164.539 48.9062 165.105 48.6133 165.762 48.4023C166.426 48.1914 167.168 48.0859 167.988 48.0859C168.973 48.0859 169.848 48.25 170.613 48.5781C171.379 48.9062 171.98 49.3984 172.418 50.0547C172.863 50.7109 173.086 51.5312 173.086 52.5156V57.9414C173.086 58.6367 173.129 59.207 173.215 59.6523C173.301 60.0898 173.426 60.4727 173.59 60.8008V61H170.18C170.016 60.6562 169.891 60.2266 169.805 59.7109C169.727 59.1875 169.688 58.6641 169.688 58.1406ZM170.133 53.2773L170.156 55.1875H168.27C167.824 55.1875 167.438 55.2383 167.109 55.3398C166.781 55.4414 166.512 55.5859 166.301 55.7734C166.09 55.9531 165.934 56.1641 165.832 56.4062C165.738 56.6484 165.691 56.9141 165.691 57.2031C165.691 57.4922 165.758 57.7539 165.891 57.9883C166.023 58.2148 166.215 58.3945 166.465 58.5273C166.715 58.6523 167.008 58.7148 167.344 58.7148C167.852 58.7148 168.293 58.6133 168.668 58.4102C169.043 58.207 169.332 57.957 169.535 57.6602C169.746 57.3633 169.855 57.082 169.863 56.8164L170.754 58.2461C170.629 58.5664 170.457 58.8984 170.238 59.2422C170.027 59.5859 169.758 59.9102 169.43 60.2148C169.102 60.5117 168.707 60.7578 168.246 60.9531C167.785 61.1406 167.238 61.2344 166.605 61.2344C165.801 61.2344 165.07 61.0742 164.414 60.7539C163.766 60.4258 163.25 59.9766 162.867 59.4062C162.492 58.8281 162.305 58.1719 162.305 57.4375C162.305 56.7734 162.43 56.1836 162.68 55.668C162.93 55.1523 163.297 54.7188 163.781 54.3672C164.273 54.0078 164.887 53.7383 165.621 53.5586C166.355 53.3711 167.207 53.2773 168.176 53.2773H170.133ZM179.25 43V61H175.863V43H179.25ZM189.832 43.9375H192.809L197.191 56.4648L201.574 43.9375H204.551L198.387 61H195.996L189.832 43.9375ZM188.227 43.9375H191.191L191.73 56.1484V61H188.227V43.9375ZM203.191 43.9375H206.168V61H202.652V56.1484L203.191 43.9375ZM212.602 48.3203V61H209.215V48.3203H212.602ZM209.004 45.0156C209.004 44.5234 209.176 44.1172 209.52 43.7969C209.863 43.4766 210.324 43.3164 210.902 43.3164C211.473 43.3164 211.93 43.4766 212.273 43.7969C212.625 44.1172 212.801 44.5234 212.801 45.0156C212.801 45.5078 212.625 45.9141 212.273 46.2344C211.93 46.5547 211.473 46.7148 210.902 46.7148C210.324 46.7148 209.863 46.5547 209.52 46.2344C209.176 45.9141 209.004 45.5078 209.004 45.0156ZM218.695 51.0273V61H215.32V48.3203H218.484L218.695 51.0273ZM218.203 54.2148H217.289C217.289 53.2773 217.41 52.4336 217.652 51.6836C217.895 50.9258 218.234 50.2812 218.672 49.75C219.109 49.2109 219.629 48.8008 220.23 48.5195C220.84 48.2305 221.52 48.0859 222.27 48.0859C222.863 48.0859 223.406 48.1719 223.898 48.3438C224.391 48.5156 224.812 48.7891 225.164 49.1641C225.523 49.5391 225.797 50.0352 225.984 50.6523C226.18 51.2695 226.277 52.0234 226.277 52.9141V61H222.879V52.9023C222.879 52.3398 222.801 51.9023 222.645 51.5898C222.488 51.2773 222.258 51.0586 221.953 50.9336C221.656 50.8008 221.289 50.7344 220.852 50.7344C220.398 50.7344 220.004 50.8242 219.668 51.0039C219.34 51.1836 219.066 51.4336 218.848 51.7539C218.637 52.0664 218.477 52.4336 218.367 52.8555C218.258 53.2773 218.203 53.7305 218.203 54.2148ZM236.332 58.2344V43H239.73V61H236.672L236.332 58.2344ZM228.316 54.8125V54.5664C228.316 53.5977 228.426 52.7188 228.645 51.9297C228.863 51.1328 229.184 50.4492 229.605 49.8789C230.027 49.3086 230.547 48.8672 231.164 48.5547C231.781 48.2422 232.484 48.0859 233.273 48.0859C234.016 48.0859 234.664 48.2422 235.219 48.5547C235.781 48.8672 236.258 49.3125 236.648 49.8906C237.047 50.4609 237.367 51.1367 237.609 51.918C237.852 52.6914 238.027 53.5391 238.137 54.4609V55C238.027 55.8828 237.852 56.7031 237.609 57.4609C237.367 58.2188 237.047 58.8828 236.648 59.4531C236.258 60.0156 235.781 60.4531 235.219 60.7656C234.656 61.0781 234 61.2344 233.25 61.2344C232.461 61.2344 231.758 61.0742 231.141 60.7539C230.531 60.4336 230.016 59.9844 229.594 59.4062C229.18 58.8281 228.863 58.1484 228.645 57.3672C228.426 56.5859 228.316 55.7344 228.316 54.8125ZM231.691 54.5664V54.8125C231.691 55.3359 231.73 55.8242 231.809 56.2773C231.895 56.7305 232.031 57.1328 232.219 57.4844C232.414 57.8281 232.664 58.0977 232.969 58.293C233.281 58.4805 233.66 58.5742 234.105 58.5742C234.684 58.5742 235.16 58.4453 235.535 58.1875C235.91 57.9219 236.195 57.5586 236.391 57.0977C236.594 56.6367 236.711 56.1055 236.742 55.5039V53.9688C236.719 53.4766 236.648 53.0352 236.531 52.6445C236.422 52.2461 236.258 51.9062 236.039 51.625C235.828 51.3438 235.562 51.125 235.242 50.9688C234.93 50.8125 234.559 50.7344 234.129 50.7344C233.691 50.7344 233.316 50.8359 233.004 51.0391C232.691 51.2344 232.438 51.5039 232.242 51.8477C232.055 52.1914 231.914 52.5977 231.82 53.0664C231.734 53.5273 231.691 54.0273 231.691 54.5664Z" fill="#888888"/>
<path d="M118.594 98.4219V104.75H101.086V98.4219H118.594ZM103.828 84.875V119H95.6016V84.875H103.828ZM124.125 84.875V119H115.922V84.875H124.125ZM127.992 106.578V106.086C127.992 104.227 128.258 102.516 128.789 100.953C129.32 99.375 130.102 98.0078 131.133 96.8516C132.164 95.6953 133.438 94.7969 134.953 94.1562C136.469 93.5 138.219 93.1719 140.203 93.1719C142.203 93.1719 143.961 93.5 145.477 94.1562C147.008 94.7969 148.289 95.6953 149.32 96.8516C150.352 98.0078 151.133 99.375 151.664 100.953C152.195 102.516 152.461 104.227 152.461 106.086V106.578C152.461 108.422 152.195 110.133 151.664 111.711C151.133 113.273 150.352 114.641 149.32 115.812C148.289 116.969 147.016 117.867 145.5 118.508C143.984 119.148 142.234 119.469 140.25 119.469C138.266 119.469 136.508 119.148 134.977 118.508C133.445 117.867 132.164 116.969 131.133 115.812C130.102 114.641 129.32 113.273 128.789 111.711C128.258 110.133 127.992 108.422 127.992 106.578ZM135.891 106.086V106.578C135.891 107.531 135.961 108.422 136.102 109.25C136.242 110.078 136.477 110.805 136.805 111.43C137.133 112.039 137.578 112.516 138.141 112.859C138.703 113.203 139.406 113.375 140.25 113.375C141.078 113.375 141.766 113.203 142.312 112.859C142.875 112.516 143.32 112.039 143.648 111.43C143.977 110.805 144.211 110.078 144.352 109.25C144.492 108.422 144.562 107.531 144.562 106.578V106.086C144.562 105.164 144.492 104.297 144.352 103.484C144.211 102.656 143.977 101.93 143.648 101.305C143.32 100.664 142.875 100.164 142.312 99.8047C141.75 99.4453 141.047 99.2656 140.203 99.2656C139.375 99.2656 138.68 99.4453 138.117 99.8047C137.57 100.164 137.133 100.664 136.805 101.305C136.477 101.93 136.242 102.656 136.102 103.484C135.961 104.297 135.891 105.164 135.891 106.086ZM163.688 111.453L168.375 93.6406H173.32L171.562 102.57L166.922 119H162.961L163.688 111.453ZM161.836 93.6406L164.742 111.312L165.07 119H160.266L154.266 93.6406H161.836ZM177.492 110.938L180.422 93.6406H187.992L182.039 119H177.234L177.492 110.938ZM173.883 93.6406L178.617 111.406L179.344 119H175.336L170.789 102.617L169.102 93.6406H173.883ZM218.297 84.875V119H210.07V84.875H218.297ZM228.562 84.875V91.2266H200.039V84.875H228.562ZM225.773 106.578V106.086C225.773 104.227 226.039 102.516 226.57 100.953C227.102 99.375 227.883 98.0078 228.914 96.8516C229.945 95.6953 231.219 94.7969 232.734 94.1562C234.25 93.5 236 93.1719 237.984 93.1719C239.984 93.1719 241.742 93.5 243.258 94.1562C244.789 94.7969 246.07 95.6953 247.102 96.8516C248.133 98.0078 248.914 99.375 249.445 100.953C249.977 102.516 250.242 104.227 250.242 106.086V106.578C250.242 108.422 249.977 110.133 249.445 111.711C248.914 113.273 248.133 114.641 247.102 115.812C246.07 116.969 244.797 117.867 243.281 118.508C241.766 119.148 240.016 119.469 238.031 119.469C236.047 119.469 234.289 119.148 232.758 118.508C231.227 117.867 229.945 116.969 228.914 115.812C227.883 114.641 227.102 113.273 226.57 111.711C226.039 110.133 225.773 108.422 225.773 106.578ZM233.672 106.086V106.578C233.672 107.531 233.742 108.422 233.883 109.25C234.023 110.078 234.258 110.805 234.586 111.43C234.914 112.039 235.359 112.516 235.922 112.859C236.484 113.203 237.188 113.375 238.031 113.375C238.859 113.375 239.547 113.203 240.094 112.859C240.656 112.516 241.102 112.039 241.43 111.43C241.758 110.805 241.992 110.078 242.133 109.25C242.273 108.422 242.344 107.531 242.344 106.578V106.086C242.344 105.164 242.273 104.297 242.133 103.484C241.992 102.656 241.758 101.93 241.43 101.305C241.102 100.664 240.656 100.164 240.094 99.8047C239.531 99.4453 238.828 99.2656 237.984 99.2656C237.156 99.2656 236.461 99.4453 235.898 99.8047C235.352 100.164 234.914 100.664 234.586 101.305C234.258 101.93 234.023 102.656 233.883 103.484C233.742 104.297 233.672 105.164 233.672 106.086ZM266.086 84.875H279.516C282.141 84.875 284.422 85.2656 286.359 86.0469C288.297 86.8281 289.789 87.9844 290.836 89.5156C291.898 91.0469 292.43 92.9375 292.43 95.1875C292.43 97.1406 292.125 98.7734 291.516 100.086C290.906 101.398 290.055 102.484 288.961 103.344C287.883 104.188 286.625 104.883 285.188 105.43L282.492 106.953H271.219L271.172 100.602H279.516C280.562 100.602 281.43 100.414 282.117 100.039C282.805 99.6641 283.32 99.1328 283.664 98.4453C284.023 97.7422 284.203 96.9062 284.203 95.9375C284.203 94.9531 284.023 94.1094 283.664 93.4062C283.305 92.7031 282.773 92.1641 282.07 91.7891C281.383 91.4141 280.531 91.2266 279.516 91.2266H274.312V119H266.086V84.875ZM284.766 119L277.219 103.906L285.938 103.859L293.578 118.648V119H284.766ZM311.836 112.836V93.6406H319.758V119H312.352L311.836 112.836ZM312.586 107.68L314.648 107.633C314.648 109.336 314.445 110.914 314.039 112.367C313.633 113.805 313.031 115.055 312.234 116.117C311.453 117.18 310.484 118.008 309.328 118.602C308.188 119.18 306.867 119.469 305.367 119.469C304.117 119.469 302.969 119.297 301.922 118.953C300.891 118.594 300 118.039 299.25 117.289C298.5 116.523 297.914 115.547 297.492 114.359C297.086 113.156 296.883 111.719 296.883 110.047V93.6406H304.781V110.094C304.781 110.656 304.852 111.141 304.992 111.547C305.133 111.953 305.336 112.297 305.602 112.578C305.867 112.844 306.195 113.047 306.586 113.188C306.992 113.312 307.453 113.375 307.969 113.375C309.156 113.375 310.086 113.125 310.758 112.625C311.43 112.125 311.898 111.445 312.164 110.586C312.445 109.727 312.586 108.758 312.586 107.68ZM331.875 99.0547V119H323.977V93.6406H331.383L331.875 99.0547ZM330.938 105.453L329.086 105.5C329.086 103.562 329.32 101.836 329.789 100.32C330.258 98.7891 330.922 97.4922 331.781 96.4297C332.641 95.3672 333.664 94.5625 334.852 94.0156C336.055 93.4531 337.391 93.1719 338.859 93.1719C340.031 93.1719 341.102 93.3438 342.07 93.6875C343.055 94.0312 343.898 94.5859 344.602 95.3516C345.32 96.1172 345.867 97.1328 346.242 98.3984C346.633 99.6484 346.828 101.195 346.828 103.039V119H338.883V103.016C338.883 102 338.742 101.227 338.461 100.695C338.18 100.148 337.773 99.7734 337.242 99.5703C336.711 99.3672 336.062 99.2656 335.297 99.2656C334.484 99.2656 333.797 99.4219 333.234 99.7344C332.672 100.047 332.219 100.484 331.875 101.047C331.547 101.594 331.305 102.242 331.148 102.992C331.008 103.742 330.938 104.562 330.938 105.453ZM363.773 108.195H357.047C357.047 106.82 357.141 105.609 357.328 104.562C357.531 103.5 357.875 102.547 358.359 101.703C358.844 100.859 359.5 100.078 360.328 99.3594C361.062 98.75 361.695 98.1641 362.227 97.6016C362.758 97.0391 363.164 96.4688 363.445 95.8906C363.727 95.3125 363.867 94.6953 363.867 94.0391C363.867 93.2266 363.75 92.5625 363.516 92.0469C363.297 91.5312 362.961 91.1484 362.508 90.8984C362.07 90.6328 361.516 90.5 360.844 90.5C360.297 90.5 359.781 90.6328 359.297 90.8984C358.828 91.1641 358.445 91.5781 358.148 92.1406C357.852 92.6875 357.688 93.4141 357.656 94.3203H349.711C349.758 91.9922 350.273 90.1016 351.258 88.6484C352.258 87.1797 353.586 86.1094 355.242 85.4375C356.914 84.75 358.781 84.4062 360.844 84.4062C363.125 84.4062 365.086 84.7578 366.727 85.4609C368.367 86.1641 369.625 87.2109 370.5 88.6016C371.375 89.9766 371.812 91.6719 371.812 93.6875C371.812 95.0312 371.555 96.2031 371.039 97.2031C370.539 98.1875 369.859 99.1094 369 99.9688C368.156 100.812 367.211 101.719 366.164 102.688C365.258 103.484 364.641 104.297 364.312 105.125C363.984 105.938 363.805 106.961 363.773 108.195ZM356.086 115.32C356.086 114.195 356.492 113.258 357.305 112.508C358.117 111.742 359.172 111.359 360.469 111.359C361.766 111.359 362.82 111.742 363.633 112.508C364.445 113.258 364.852 114.195 364.852 115.32C364.852 116.445 364.445 117.391 363.633 118.156C362.82 118.906 361.766 119.281 360.469 119.281C359.172 119.281 358.117 118.906 357.305 118.156C356.492 117.391 356.086 116.445 356.086 115.32Z" fill="black"/>
<path d="M1134 0H1348C1356.28 0 1363 6.71573 1363 15V148C1363 156.284 1356.28 163 1348 163H1134V0Z" fill="#20E399"/>
<path d="M1260.62 78.8078C1263.81 78.8078 1266.93 79.7552 1269.59 81.5302C1272.25 83.3052 1274.32 85.8281 1275.54 88.7798C1276.76 91.7315 1277.08 94.9795 1276.46 98.1131C1275.84 101.247 1274.3 104.125 1272.04 106.384C1269.78 108.643 1266.9 110.182 1263.77 110.805C1260.63 111.428 1257.39 111.108 1254.43 109.886C1251.48 108.663 1248.96 106.593 1247.18 103.936C1245.41 101.28 1244.46 98.1565 1244.46 94.9616C1244.46 90.6774 1246.16 86.5686 1249.19 83.5392C1252.22 80.5097 1256.33 78.8078 1260.62 78.8078ZM1260.62 73.4232C1256.36 73.4232 1252.19 74.6864 1248.65 77.0531C1245.11 79.4198 1242.35 82.7836 1240.72 86.7192C1239.09 90.6549 1238.66 94.9855 1239.49 99.1636C1240.32 103.342 1242.37 107.179 1245.39 110.192C1248.4 113.204 1252.24 115.255 1256.41 116.086C1260.59 116.917 1264.92 116.491 1268.86 114.861C1272.79 113.23 1276.16 110.47 1278.52 106.928C1280.89 103.386 1282.15 99.2215 1282.15 94.9616C1282.15 89.2493 1279.88 83.7709 1275.85 79.7317C1271.81 75.6924 1266.33 73.4232 1260.62 73.4232Z" fill="white"/>
<path d="M1274.08 46.4999H1220.23C1218.8 46.4999 1217.43 47.0672 1216.42 48.0771C1215.41 49.0869 1214.85 50.4565 1214.85 51.8845V105.731C1214.85 107.159 1215.41 108.528 1216.42 109.538C1217.43 110.548 1218.8 111.115 1220.23 111.115H1231V105.731H1220.23V68.0383H1279.46V51.8845C1279.46 50.4565 1278.89 49.0869 1277.88 48.0771C1276.87 47.0672 1275.5 46.4999 1274.08 46.4999ZM1220.23 62.6537V51.8845H1274.08V62.6537H1220.23Z" fill="white"/>
<path d="M1255.23 86.8848V103.039L1268.69 94.9617L1255.23 86.8848Z" fill="white"/>
</svg>
