<svg width="1363" height="297" viewBox="0 0 1363 297" fill="none" xmlns="http://www.w3.org/2000/svg">
<path d="M0 15C0 6.71573 6.71573 0 15 0H37V297H15C6.71573 297 0 290.284 0 282V15Z" fill="#20E399"/>
<path d="M37 0H1066V297H37V0Z" fill="#F0F0F0"/>
<path d="M113.795 70.8867V75H95.6543V70.8867H113.795ZM113.531 52.3418L97.9922 75H94.2832V71.9766L109.945 49.4062H113.531V52.3418ZM111.721 49.4062V53.5371H94.3008V49.4062H111.721ZM125.203 75.3516C123.727 75.3516 122.402 75.1172 121.23 74.6484C120.059 74.168 119.062 73.5059 118.242 72.6621C117.434 71.8184 116.812 70.8398 116.379 69.7266C115.945 68.6016 115.729 67.4062 115.729 66.1406V65.4375C115.729 63.9961 115.934 62.6777 116.344 61.4824C116.754 60.2871 117.34 59.25 118.102 58.3711C118.875 57.4922 119.812 56.8184 120.914 56.3496C122.016 55.8691 123.258 55.6289 124.641 55.6289C125.988 55.6289 127.184 55.8516 128.227 56.2969C129.27 56.7422 130.143 57.375 130.846 58.1953C131.561 59.0156 132.1 60 132.463 61.1484C132.826 62.2852 133.008 63.5508 133.008 64.9453V67.0547H117.891V63.6797H128.033V63.293C128.033 62.5898 127.904 61.9629 127.646 61.4121C127.4 60.8496 127.025 60.4043 126.521 60.0762C126.018 59.748 125.373 59.584 124.588 59.584C123.92 59.584 123.346 59.7305 122.865 60.0234C122.385 60.3164 121.992 60.7266 121.688 61.2539C121.395 61.7812 121.172 62.4023 121.02 63.1172C120.879 63.8203 120.809 64.5938 120.809 65.4375V66.1406C120.809 66.9023 120.914 67.6055 121.125 68.25C121.348 68.8945 121.658 69.4512 122.057 69.9199C122.467 70.3887 122.959 70.752 123.533 71.0098C124.119 71.2676 124.781 71.3965 125.52 71.3965C126.434 71.3965 127.283 71.2207 128.068 70.8691C128.865 70.5059 129.551 69.9609 130.125 69.2344L132.586 71.9062C132.188 72.4805 131.643 73.0312 130.951 73.5586C130.271 74.0859 129.451 74.5195 128.49 74.8594C127.529 75.1875 126.434 75.3516 125.203 75.3516ZM141.234 55.9805V75H136.154V55.9805H141.234ZM135.838 51.0234C135.838 50.2852 136.096 49.6758 136.611 49.1953C137.127 48.7148 137.818 48.4746 138.686 48.4746C139.541 48.4746 140.227 48.7148 140.742 49.1953C141.27 49.6758 141.533 50.2852 141.533 51.0234C141.533 51.7617 141.27 52.3711 140.742 52.8516C140.227 53.332 139.541 53.5723 138.686 53.5723C137.818 53.5723 137.127 53.332 136.611 52.8516C136.096 52.3711 135.838 51.7617 135.838 51.0234ZM150.375 60.041V75H145.312V55.9805H150.059L150.375 60.041ZM149.637 64.8223H148.266C148.266 63.416 148.447 62.1504 148.811 61.0254C149.174 59.8887 149.684 58.9219 150.34 58.125C150.996 57.3164 151.775 56.7012 152.678 56.2793C153.592 55.8457 154.611 55.6289 155.736 55.6289C156.627 55.6289 157.441 55.7578 158.18 56.0156C158.918 56.2734 159.551 56.6836 160.078 57.2461C160.617 57.8086 161.027 58.5527 161.309 59.4785C161.602 60.4043 161.748 61.5352 161.748 62.8711V75H156.65V62.8535C156.65 62.0098 156.533 61.3535 156.299 60.8848C156.064 60.416 155.719 60.0879 155.262 59.9004C154.816 59.7012 154.266 59.6016 153.609 59.6016C152.93 59.6016 152.338 59.7363 151.834 60.0059C151.342 60.2754 150.932 60.6504 150.604 61.1309C150.287 61.5996 150.047 62.1504 149.883 62.7832C149.719 63.416 149.637 64.0957 149.637 64.8223ZM175.863 70.7109V62.2383C175.863 61.6289 175.764 61.1074 175.564 60.6738C175.365 60.2285 175.055 59.8828 174.633 59.6367C174.223 59.3906 173.689 59.2676 173.033 59.2676C172.471 59.2676 171.984 59.3672 171.574 59.5664C171.164 59.7539 170.848 60.0293 170.625 60.3926C170.402 60.7441 170.291 61.1602 170.291 61.6406H165.229C165.229 60.832 165.416 60.0645 165.791 59.3379C166.166 58.6113 166.711 57.9727 167.426 57.4219C168.141 56.8594 168.99 56.4199 169.975 56.1035C170.971 55.7871 172.084 55.6289 173.314 55.6289C174.791 55.6289 176.104 55.875 177.252 56.3672C178.4 56.8594 179.303 57.5977 179.959 58.582C180.627 59.5664 180.961 60.7969 180.961 62.2734V70.4121C180.961 71.4551 181.025 72.3105 181.154 72.9785C181.283 73.6348 181.471 74.209 181.717 74.7012V75H176.602C176.355 74.4844 176.168 73.8398 176.039 73.0664C175.922 72.2812 175.863 71.4961 175.863 70.7109ZM176.531 63.416L176.566 66.2812H173.736C173.068 66.2812 172.488 66.3574 171.996 66.5098C171.504 66.6621 171.1 66.8789 170.783 67.1602C170.467 67.4297 170.232 67.7461 170.08 68.1094C169.939 68.4727 169.869 68.8711 169.869 69.3047C169.869 69.7383 169.969 70.1309 170.168 70.4824C170.367 70.8223 170.654 71.0918 171.029 71.291C171.404 71.4785 171.844 71.5723 172.348 71.5723C173.109 71.5723 173.771 71.4199 174.334 71.1152C174.896 70.8105 175.33 70.4355 175.635 69.9902C175.951 69.5449 176.115 69.123 176.127 68.7246L177.463 70.8691C177.275 71.3496 177.018 71.8477 176.689 72.3633C176.373 72.8789 175.969 73.3652 175.477 73.8223C174.984 74.2676 174.393 74.6367 173.701 74.9297C173.01 75.2109 172.189 75.3516 171.24 75.3516C170.033 75.3516 168.938 75.1113 167.953 74.6309C166.98 74.1387 166.207 73.4648 165.633 72.6094C165.07 71.7422 164.789 70.7578 164.789 69.6562C164.789 68.6602 164.977 67.7754 165.352 67.002C165.727 66.2285 166.277 65.5781 167.004 65.0508C167.742 64.5117 168.662 64.1074 169.764 63.8379C170.865 63.5566 172.143 63.416 173.596 63.416H176.531ZM207.469 68.3027C207.469 67.8457 207.398 67.4355 207.258 67.0723C207.129 66.6973 206.883 66.3574 206.52 66.0527C206.156 65.7363 205.646 65.4258 204.99 65.1211C204.334 64.8164 203.484 64.5 202.441 64.1719C201.281 63.7969 200.18 63.375 199.137 62.9062C198.105 62.4375 197.191 61.8926 196.395 61.2715C195.609 60.6387 194.988 59.9062 194.531 59.0742C194.086 58.2422 193.863 57.2754 193.863 56.1738C193.863 55.1074 194.098 54.1406 194.566 53.2734C195.035 52.3945 195.691 51.6445 196.535 51.0234C197.379 50.3906 198.375 49.9043 199.523 49.5645C200.684 49.2246 201.955 49.0547 203.338 49.0547C205.225 49.0547 206.871 49.3945 208.277 50.0742C209.684 50.7539 210.773 51.6855 211.547 52.8691C212.332 54.0527 212.725 55.4062 212.725 56.9297H207.486C207.486 56.1797 207.328 55.5234 207.012 54.9609C206.707 54.3867 206.238 53.9355 205.605 53.6074C204.984 53.2793 204.199 53.1152 203.25 53.1152C202.336 53.1152 201.574 53.2559 200.965 53.5371C200.355 53.8066 199.898 54.1758 199.594 54.6445C199.289 55.1016 199.137 55.6172 199.137 56.1914C199.137 56.625 199.242 57.0176 199.453 57.3691C199.676 57.7207 200.004 58.0488 200.438 58.3535C200.871 58.6582 201.404 58.9453 202.037 59.2148C202.67 59.4844 203.402 59.748 204.234 60.0059C205.629 60.4277 206.854 60.9023 207.908 61.4297C208.975 61.957 209.865 62.5488 210.58 63.2051C211.295 63.8613 211.834 64.6055 212.197 65.4375C212.561 66.2695 212.742 67.2129 212.742 68.2676C212.742 69.3809 212.525 70.377 212.092 71.2559C211.658 72.1348 211.031 72.8789 210.211 73.4883C209.391 74.0977 208.412 74.5605 207.275 74.877C206.139 75.1934 204.867 75.3516 203.461 75.3516C202.195 75.3516 200.947 75.1875 199.717 74.8594C198.486 74.5195 197.367 74.0098 196.359 73.3301C195.363 72.6504 194.566 71.7832 193.969 70.7285C193.371 69.6738 193.072 68.4258 193.072 66.9844H198.363C198.363 67.7812 198.486 68.4551 198.732 69.0059C198.979 69.5566 199.324 70.002 199.77 70.3418C200.227 70.6816 200.766 70.9277 201.387 71.0801C202.02 71.2324 202.711 71.3086 203.461 71.3086C204.375 71.3086 205.125 71.1797 205.711 70.9219C206.309 70.6641 206.748 70.3066 207.029 69.8496C207.322 69.3926 207.469 68.877 207.469 68.3027ZM226.277 70.7109V62.2383C226.277 61.6289 226.178 61.1074 225.979 60.6738C225.779 60.2285 225.469 59.8828 225.047 59.6367C224.637 59.3906 224.104 59.2676 223.447 59.2676C222.885 59.2676 222.398 59.3672 221.988 59.5664C221.578 59.7539 221.262 60.0293 221.039 60.3926C220.816 60.7441 220.705 61.1602 220.705 61.6406H215.643C215.643 60.832 215.83 60.0645 216.205 59.3379C216.58 58.6113 217.125 57.9727 217.84 57.4219C218.555 56.8594 219.404 56.4199 220.389 56.1035C221.385 55.7871 222.498 55.6289 223.729 55.6289C225.205 55.6289 226.518 55.875 227.666 56.3672C228.814 56.8594 229.717 57.5977 230.373 58.582C231.041 59.5664 231.375 60.7969 231.375 62.2734V70.4121C231.375 71.4551 231.439 72.3105 231.568 72.9785C231.697 73.6348 231.885 74.209 232.131 74.7012V75H227.016C226.77 74.4844 226.582 73.8398 226.453 73.0664C226.336 72.2812 226.277 71.4961 226.277 70.7109ZM226.945 63.416L226.98 66.2812H224.15C223.482 66.2812 222.902 66.3574 222.41 66.5098C221.918 66.6621 221.514 66.8789 221.197 67.1602C220.881 67.4297 220.646 67.7461 220.494 68.1094C220.354 68.4727 220.283 68.8711 220.283 69.3047C220.283 69.7383 220.383 70.1309 220.582 70.4824C220.781 70.8223 221.068 71.0918 221.443 71.291C221.818 71.4785 222.258 71.5723 222.762 71.5723C223.523 71.5723 224.186 71.4199 224.748 71.1152C225.311 70.8105 225.744 70.4355 226.049 69.9902C226.365 69.5449 226.529 69.123 226.541 68.7246L227.877 70.8691C227.689 71.3496 227.432 71.8477 227.104 72.3633C226.787 72.8789 226.383 73.3652 225.891 73.8223C225.398 74.2676 224.807 74.6367 224.115 74.9297C223.424 75.2109 222.604 75.3516 221.654 75.3516C220.447 75.3516 219.352 75.1113 218.367 74.6309C217.395 74.1387 216.621 73.4648 216.047 72.6094C215.484 71.7422 215.203 70.7578 215.203 69.6562C215.203 68.6602 215.391 67.7754 215.766 67.002C216.141 66.2285 216.691 65.5781 217.418 65.0508C218.156 64.5117 219.076 64.1074 220.178 63.8379C221.279 63.5566 222.557 63.416 224.01 63.416H226.945ZM240.621 48V75H235.541V48H240.621ZM253.559 75.3516C252.082 75.3516 250.758 75.1172 249.586 74.6484C248.414 74.168 247.418 73.5059 246.598 72.6621C245.789 71.8184 245.168 70.8398 244.734 69.7266C244.301 68.6016 244.084 67.4062 244.084 66.1406V65.4375C244.084 63.9961 244.289 62.6777 244.699 61.4824C245.109 60.2871 245.695 59.25 246.457 58.3711C247.23 57.4922 248.168 56.8184 249.27 56.3496C250.371 55.8691 251.613 55.6289 252.996 55.6289C254.344 55.6289 255.539 55.8516 256.582 56.2969C257.625 56.7422 258.498 57.375 259.201 58.1953C259.916 59.0156 260.455 60 260.818 61.1484C261.182 62.2852 261.363 63.5508 261.363 64.9453V67.0547H246.246V63.6797H256.389V63.293C256.389 62.5898 256.26 61.9629 256.002 61.4121C255.756 60.8496 255.381 60.4043 254.877 60.0762C254.373 59.748 253.729 59.584 252.943 59.584C252.275 59.584 251.701 59.7305 251.221 60.0234C250.74 60.3164 250.348 60.7266 250.043 61.2539C249.75 61.7812 249.527 62.4023 249.375 63.1172C249.234 63.8203 249.164 64.5938 249.164 65.4375V66.1406C249.164 66.9023 249.27 67.6055 249.48 68.25C249.703 68.8945 250.014 69.4512 250.412 69.9199C250.822 70.3887 251.314 70.752 251.889 71.0098C252.475 71.2676 253.137 71.3965 253.875 71.3965C254.789 71.3965 255.639 71.2207 256.424 70.8691C257.221 70.5059 257.906 69.9609 258.48 69.2344L260.941 71.9062C260.543 72.4805 259.998 73.0312 259.307 73.5586C258.627 74.0859 257.807 74.5195 256.846 74.8594C255.885 75.1875 254.789 75.3516 253.559 75.3516ZM269.186 48V75H264.123V48H269.186ZM268.465 64.8223H267.076C267.088 63.498 267.264 62.2793 267.604 61.166C267.943 60.041 268.43 59.0684 269.062 58.248C269.695 57.416 270.451 56.7715 271.33 56.3145C272.221 55.8574 273.205 55.6289 274.283 55.6289C275.221 55.6289 276.07 55.7637 276.832 56.0332C277.605 56.291 278.268 56.7129 278.818 57.2988C279.381 57.873 279.814 58.6289 280.119 59.5664C280.424 60.5039 280.576 61.6406 280.576 62.9766V75H275.479V62.9414C275.479 62.0977 275.355 61.4355 275.109 60.9551C274.875 60.4629 274.529 60.1172 274.072 59.918C273.627 59.707 273.076 59.6016 272.42 59.6016C271.693 59.6016 271.072 59.7363 270.557 60.0059C270.053 60.2754 269.648 60.6504 269.344 61.1309C269.039 61.5996 268.816 62.1504 268.676 62.7832C268.535 63.416 268.465 64.0957 268.465 64.8223Z" fill="#888888"/>
<path d="M108.969 140H100.137L100.191 132.617H108.969C110.792 132.617 112.332 132.18 113.59 131.305C114.866 130.43 115.832 129.126 116.488 127.395C117.163 125.645 117.5 123.493 117.5 120.941V119.219C117.5 117.305 117.309 115.628 116.926 114.188C116.561 112.729 116.014 111.517 115.285 110.551C114.556 109.566 113.645 108.828 112.551 108.336C111.475 107.844 110.236 107.598 108.832 107.598H99.9727V100.188H108.832C111.53 100.188 114 100.652 116.242 101.582C118.503 102.493 120.453 103.806 122.094 105.52C123.753 107.215 125.029 109.229 125.922 111.562C126.833 113.878 127.289 116.448 127.289 119.273V120.941C127.289 123.749 126.833 126.319 125.922 128.652C125.029 130.986 123.762 133 122.121 134.695C120.48 136.391 118.539 137.703 116.297 138.633C114.073 139.544 111.63 140 108.969 140ZM105.633 100.188V140H96.0352V100.188H105.633ZM141.59 110.414V140H132.348V110.414H141.59ZM131.801 102.785C131.801 101.473 132.275 100.397 133.223 99.5586C134.171 98.7201 135.401 98.3008 136.914 98.3008C138.427 98.3008 139.658 98.7201 140.605 99.5586C141.553 100.397 142.027 101.473 142.027 102.785C142.027 104.098 141.553 105.173 140.605 106.012C139.658 106.85 138.427 107.27 136.914 107.27C135.401 107.27 134.171 106.85 133.223 106.012C132.275 105.173 131.801 104.098 131.801 102.785ZM165.871 110.414H174.238V138.852C174.238 141.586 173.609 143.901 172.352 145.797C171.094 147.711 169.335 149.16 167.074 150.145C164.832 151.147 162.207 151.648 159.199 151.648C157.868 151.648 156.51 151.475 155.125 151.129C153.74 150.801 152.445 150.309 151.242 149.652C150.039 148.996 149.027 148.185 148.207 147.219L152.062 141.805C152.81 142.643 153.749 143.354 154.879 143.938C156.009 144.539 157.34 144.84 158.871 144.84C160.202 144.84 161.314 144.603 162.207 144.129C163.118 143.655 163.811 142.962 164.285 142.051C164.759 141.158 164.996 140.073 164.996 138.797V117.414L165.871 110.414ZM146.211 125.562V124.988C146.211 122.746 146.484 120.704 147.031 118.863C147.596 117.004 148.398 115.409 149.438 114.078C150.495 112.729 151.771 111.69 153.266 110.961C154.76 110.232 156.447 109.867 158.324 109.867C160.348 109.867 162.007 110.259 163.301 111.043C164.613 111.809 165.661 112.884 166.445 114.27C167.247 115.655 167.867 117.277 168.305 119.137C168.76 120.978 169.143 122.965 169.453 125.098V125.781C169.143 127.786 168.715 129.682 168.168 131.469C167.639 133.237 166.947 134.805 166.09 136.172C165.233 137.539 164.158 138.615 162.863 139.398C161.587 140.164 160.056 140.547 158.27 140.547C156.41 140.547 154.733 140.173 153.238 139.426C151.762 138.678 150.495 137.63 149.438 136.281C148.398 134.932 147.596 133.346 147.031 131.523C146.484 129.701 146.211 127.714 146.211 125.562ZM155.426 124.988V125.562C155.426 126.674 155.526 127.704 155.727 128.652C155.945 129.6 156.273 130.439 156.711 131.168C157.148 131.879 157.686 132.435 158.324 132.836C158.98 133.237 159.746 133.438 160.621 133.438C161.952 133.438 163.027 133.155 163.848 132.59C164.668 132.025 165.26 131.223 165.625 130.184C165.99 129.145 166.145 127.923 166.09 126.52V124.359C166.126 123.156 166.044 122.099 165.844 121.188C165.643 120.258 165.324 119.483 164.887 118.863C164.467 118.243 163.902 117.779 163.191 117.469C162.499 117.141 161.66 116.977 160.676 116.977C159.819 116.977 159.062 117.177 158.406 117.578C157.75 117.979 157.203 118.544 156.766 119.273C156.328 119.984 155.991 120.832 155.754 121.816C155.535 122.783 155.426 123.84 155.426 124.988ZM189.277 110.414V140H180.035V110.414H189.277ZM179.488 102.785C179.488 101.473 179.962 100.397 180.91 99.5586C181.858 98.7201 183.089 98.3008 184.602 98.3008C186.115 98.3008 187.345 98.7201 188.293 99.5586C189.241 100.397 189.715 101.473 189.715 102.785C189.715 104.098 189.241 105.173 188.293 106.012C187.345 106.85 186.115 107.27 184.602 107.27C183.089 107.27 181.858 106.85 180.91 106.012C179.962 105.173 179.488 104.098 179.488 102.785ZM210.551 110.414V116.812H192.723V110.414H210.551ZM196.469 103.059H205.684V130.348C205.684 131.132 205.775 131.742 205.957 132.18C206.139 132.599 206.449 132.9 206.887 133.082C207.342 133.246 207.944 133.328 208.691 133.328C209.22 133.328 209.658 133.319 210.004 133.301C210.35 133.264 210.678 133.219 210.988 133.164V139.754C210.204 140.009 209.384 140.201 208.527 140.328C207.671 140.474 206.759 140.547 205.793 140.547C203.824 140.547 202.138 140.237 200.734 139.617C199.349 138.997 198.292 138.022 197.562 136.691C196.833 135.361 196.469 133.629 196.469 131.496V103.059ZM229.582 132.562V120.367C229.582 119.529 229.464 118.809 229.227 118.207C228.99 117.605 228.616 117.141 228.105 116.812C227.595 116.466 226.911 116.293 226.055 116.293C225.362 116.293 224.77 116.411 224.277 116.648C223.785 116.885 223.411 117.241 223.156 117.715C222.901 118.189 222.773 118.79 222.773 119.52H213.559C213.559 118.152 213.859 116.885 214.461 115.719C215.081 114.534 215.956 113.504 217.086 112.629C218.234 111.754 219.602 111.079 221.188 110.605C222.792 110.113 224.578 109.867 226.547 109.867C228.898 109.867 230.995 110.259 232.836 111.043C234.695 111.827 236.163 113.003 237.238 114.57C238.314 116.12 238.852 118.07 238.852 120.422V132.535C238.852 134.467 238.961 135.935 239.18 136.938C239.398 137.922 239.708 138.788 240.109 139.535V140H230.867C230.43 139.089 230.102 137.977 229.883 136.664C229.682 135.333 229.582 133.966 229.582 132.562ZM230.703 121.926L230.758 126.848H226.684C225.827 126.848 225.098 126.966 224.496 127.203C223.913 127.44 223.439 127.768 223.074 128.188C222.728 128.589 222.473 129.044 222.309 129.555C222.163 130.065 222.09 130.603 222.09 131.168C222.09 131.715 222.217 132.207 222.473 132.645C222.746 133.064 223.111 133.392 223.566 133.629C224.022 133.866 224.533 133.984 225.098 133.984C226.118 133.984 226.984 133.793 227.695 133.41C228.424 133.009 228.98 132.526 229.363 131.961C229.746 131.396 229.938 130.867 229.938 130.375L231.961 134.148C231.596 134.878 231.177 135.616 230.703 136.363C230.247 137.111 229.673 137.803 228.98 138.441C228.306 139.061 227.477 139.572 226.492 139.973C225.508 140.355 224.314 140.547 222.91 140.547C221.087 140.547 219.41 140.173 217.879 139.426C216.366 138.678 215.154 137.639 214.242 136.309C213.331 134.96 212.875 133.41 212.875 131.66C212.875 130.129 213.148 128.762 213.695 127.559C214.26 126.355 215.108 125.335 216.238 124.496C217.368 123.658 218.809 123.02 220.559 122.582C222.309 122.145 224.368 121.926 226.738 121.926H230.703ZM253.699 98V140H244.457V98H253.699ZM278.527 100.188H286.348L295.234 127.887L304.121 100.188H311.941L298.406 140H292.062L278.527 100.188ZM273.77 100.188H281.863L283.367 130.703V140H273.77V100.188ZM308.605 100.188H316.727V140H307.102V130.703L308.605 100.188ZM332.176 110.414V140H322.934V110.414H332.176ZM322.387 102.785C322.387 101.473 322.861 100.397 323.809 99.5586C324.757 98.7201 325.987 98.3008 327.5 98.3008C329.013 98.3008 330.243 98.7201 331.191 99.5586C332.139 100.397 332.613 101.473 332.613 102.785C332.613 104.098 332.139 105.173 331.191 106.012C330.243 106.85 329.013 107.27 327.5 107.27C325.987 107.27 324.757 106.85 323.809 106.012C322.861 105.173 322.387 104.098 322.387 102.785ZM346.914 116.73V140H337.699V110.414H346.34L346.914 116.73ZM345.82 124.195L343.66 124.25C343.66 121.99 343.934 119.975 344.48 118.207C345.027 116.421 345.802 114.908 346.805 113.668C347.807 112.428 349.001 111.49 350.387 110.852C351.79 110.195 353.349 109.867 355.062 109.867C356.43 109.867 357.678 110.068 358.809 110.469C359.957 110.87 360.941 111.517 361.762 112.41C362.6 113.303 363.238 114.488 363.676 115.965C364.132 117.423 364.359 119.228 364.359 121.379V140H355.09V121.352C355.09 120.167 354.926 119.264 354.598 118.645C354.27 118.007 353.796 117.569 353.176 117.332C352.556 117.095 351.799 116.977 350.906 116.977C349.958 116.977 349.156 117.159 348.5 117.523C347.844 117.888 347.315 118.398 346.914 119.055C346.531 119.693 346.249 120.449 346.066 121.324C345.902 122.199 345.82 123.156 345.82 124.195ZM386.48 133.219V98H395.75V140H387.438L386.48 133.219ZM368.324 125.562V124.988C368.324 122.746 368.57 120.704 369.062 118.863C369.555 117.004 370.284 115.409 371.25 114.078C372.216 112.729 373.419 111.69 374.859 110.961C376.299 110.232 377.958 109.867 379.836 109.867C381.513 109.867 382.98 110.259 384.238 111.043C385.496 111.809 386.572 112.884 387.465 114.27C388.358 115.655 389.087 117.277 389.652 119.137C390.217 120.978 390.646 122.965 390.938 125.098V125.781C390.646 127.786 390.217 129.682 389.652 131.469C389.087 133.237 388.358 134.805 387.465 136.172C386.572 137.539 385.487 138.615 384.211 139.398C382.953 140.164 381.477 140.547 379.781 140.547C377.904 140.547 376.245 140.173 374.805 139.426C373.383 138.678 372.189 137.63 371.223 136.281C370.275 134.932 369.555 133.346 369.062 131.523C368.57 129.701 368.324 127.714 368.324 125.562ZM377.539 124.988V125.562C377.539 126.674 377.612 127.704 377.758 128.652C377.904 129.6 378.15 130.439 378.496 131.168C378.861 131.879 379.335 132.435 379.918 132.836C380.52 133.237 381.258 133.438 382.133 133.438C383.318 133.438 384.293 133.155 385.059 132.59C385.842 132.025 386.417 131.223 386.781 130.184C387.164 129.145 387.328 127.923 387.273 126.52V124.359C387.31 123.156 387.228 122.099 387.027 121.188C386.827 120.258 386.508 119.483 386.07 118.863C385.651 118.243 385.113 117.779 384.457 117.469C383.819 117.141 383.062 116.977 382.188 116.977C381.331 116.977 380.602 117.177 380 117.578C379.417 117.979 378.943 118.544 378.578 119.273C378.214 119.984 377.949 120.832 377.785 121.816C377.621 122.783 377.539 123.84 377.539 124.988Z" fill="black"/>
<rect x="93" y="178" width="917" height="77" rx="10" fill="#D3D3D3"/>
<rect x="111" y="196" width="91" height="41" rx="3" fill="#424242"/>
<path d="M134.141 210.203H139.177C140.161 210.203 141.017 210.35 141.743 210.643C142.47 210.936 143.029 211.369 143.422 211.943C143.82 212.518 144.02 213.227 144.02 214.07C144.02 214.803 143.905 215.415 143.677 215.907C143.448 216.399 143.129 216.807 142.719 217.129C142.314 217.445 141.843 217.706 141.304 217.911L140.293 218.482H136.065L136.048 216.101H139.177C139.569 216.101 139.895 216.03 140.152 215.89C140.41 215.749 140.604 215.55 140.732 215.292C140.867 215.028 140.935 214.715 140.935 214.352C140.935 213.982 140.867 213.666 140.732 213.402C140.598 213.139 140.398 212.937 140.135 212.796C139.877 212.655 139.558 212.585 139.177 212.585H137.226V223H134.141V210.203ZM141.146 223L138.315 217.34L141.585 217.322L144.45 222.868V223H141.146ZM150.348 223.176C149.574 223.176 148.883 223.056 148.273 222.815C147.664 222.569 147.148 222.232 146.727 221.805C146.311 221.377 145.991 220.885 145.769 220.328C145.552 219.771 145.443 219.183 145.443 218.562V218.228C145.443 217.53 145.54 216.886 145.733 216.294C145.927 215.696 146.214 215.175 146.595 214.729C146.976 214.284 147.453 213.938 148.027 213.692C148.602 213.44 149.27 213.314 150.031 213.314C150.705 213.314 151.309 213.423 151.842 213.64C152.375 213.856 152.826 214.167 153.195 214.571C153.57 214.976 153.854 215.465 154.048 216.039C154.247 216.613 154.347 217.258 154.347 217.973V219.177H146.577V217.322H151.455V217.094C151.461 216.777 151.405 216.508 151.288 216.285C151.177 216.062 151.013 215.893 150.796 215.775C150.579 215.658 150.315 215.6 150.005 215.6C149.683 215.6 149.416 215.67 149.205 215.811C149 215.951 148.839 216.145 148.722 216.391C148.61 216.631 148.531 216.909 148.484 217.226C148.438 217.542 148.414 217.876 148.414 218.228V218.562C148.414 218.913 148.461 219.232 148.555 219.52C148.654 219.807 148.795 220.053 148.977 220.258C149.164 220.457 149.387 220.612 149.645 220.724C149.908 220.835 150.207 220.891 150.541 220.891C150.945 220.891 151.344 220.814 151.736 220.662C152.129 220.51 152.466 220.258 152.747 219.906L154.092 221.506C153.898 221.781 153.623 222.048 153.266 222.306C152.914 222.563 152.492 222.774 152 222.938C151.508 223.097 150.957 223.176 150.348 223.176ZM160.49 220.609V216.689C160.49 216.42 160.452 216.188 160.376 215.995C160.3 215.802 160.18 215.652 160.016 215.547C159.852 215.436 159.632 215.38 159.356 215.38C159.134 215.38 158.943 215.418 158.785 215.494C158.627 215.57 158.507 215.685 158.425 215.837C158.343 215.989 158.302 216.183 158.302 216.417H155.34C155.34 215.978 155.437 215.57 155.63 215.195C155.829 214.814 156.11 214.483 156.474 214.202C156.843 213.921 157.282 213.704 157.792 213.552C158.308 213.394 158.882 213.314 159.515 213.314C160.271 213.314 160.944 213.44 161.536 213.692C162.134 213.944 162.605 214.322 162.951 214.826C163.297 215.324 163.47 215.951 163.47 216.707V220.601C163.47 221.222 163.505 221.693 163.575 222.016C163.646 222.332 163.745 222.61 163.874 222.851V223H160.903C160.763 222.707 160.657 222.35 160.587 221.928C160.522 221.5 160.49 221.061 160.49 220.609ZM160.851 217.19L160.868 218.772H159.559C159.283 218.772 159.049 218.811 158.855 218.887C158.668 218.963 158.516 219.068 158.398 219.203C158.287 219.332 158.205 219.479 158.152 219.643C158.105 219.807 158.082 219.979 158.082 220.161C158.082 220.337 158.123 220.495 158.205 220.636C158.293 220.771 158.41 220.876 158.557 220.952C158.703 221.028 158.867 221.066 159.049 221.066C159.377 221.066 159.655 221.005 159.884 220.882C160.118 220.753 160.297 220.598 160.42 220.416C160.543 220.234 160.604 220.064 160.604 219.906L161.255 221.119C161.138 221.354 161.003 221.591 160.851 221.831C160.704 222.071 160.52 222.294 160.297 222.499C160.08 222.698 159.813 222.862 159.497 222.991C159.181 223.114 158.797 223.176 158.346 223.176C157.76 223.176 157.221 223.056 156.729 222.815C156.242 222.575 155.853 222.241 155.56 221.813C155.267 221.38 155.12 220.882 155.12 220.319C155.12 219.827 155.208 219.388 155.384 219.001C155.565 218.614 155.838 218.286 156.201 218.017C156.564 217.747 157.027 217.542 157.59 217.401C158.152 217.261 158.814 217.19 159.576 217.19H160.851ZM169.13 220.891C169.405 220.891 169.64 220.841 169.833 220.741C170.032 220.636 170.182 220.489 170.281 220.302C170.387 220.108 170.437 219.877 170.431 219.607H173.217C173.223 220.322 173.047 220.949 172.689 221.488C172.338 222.021 171.857 222.438 171.248 222.736C170.645 223.029 169.962 223.176 169.2 223.176C168.456 223.176 167.806 223.056 167.249 222.815C166.692 222.569 166.227 222.229 165.852 221.796C165.482 221.356 165.204 220.844 165.017 220.258C164.835 219.672 164.744 219.036 164.744 218.351V218.148C164.744 217.463 164.835 216.827 165.017 216.241C165.204 215.649 165.482 215.137 165.852 214.703C166.227 214.264 166.689 213.924 167.24 213.684C167.797 213.438 168.444 213.314 169.183 213.314C169.974 213.314 170.671 213.464 171.274 213.763C171.884 214.062 172.361 214.495 172.707 215.063C173.053 215.632 173.223 216.32 173.217 217.129H170.431C170.437 216.842 170.393 216.584 170.299 216.355C170.205 216.127 170.059 215.945 169.859 215.811C169.666 215.67 169.417 215.6 169.112 215.6C168.808 215.6 168.562 215.667 168.374 215.802C168.187 215.937 168.043 216.124 167.943 216.364C167.85 216.599 167.785 216.868 167.75 217.173C167.721 217.478 167.706 217.803 167.706 218.148V218.351C167.706 218.702 167.721 219.033 167.75 219.344C167.785 219.648 167.853 219.918 167.952 220.152C168.052 220.381 168.195 220.562 168.383 220.697C168.57 220.826 168.819 220.891 169.13 220.891ZM179.492 213.49V215.547H173.762V213.49H179.492ZM174.966 211.126H177.928V219.897C177.928 220.149 177.957 220.346 178.016 220.486C178.074 220.621 178.174 220.718 178.314 220.776C178.461 220.829 178.654 220.855 178.895 220.855C179.064 220.855 179.205 220.853 179.316 220.847C179.428 220.835 179.533 220.82 179.633 220.803V222.921C179.381 223.003 179.117 223.064 178.842 223.105C178.566 223.152 178.273 223.176 177.963 223.176C177.33 223.176 176.788 223.076 176.337 222.877C175.892 222.678 175.552 222.364 175.317 221.937C175.083 221.509 174.966 220.952 174.966 220.267V211.126Z" fill="white"/>
<rect x="111" y="196" width="91" height="41" rx="3" stroke="#424242" stroke-width="4"/>
<rect x="222" y="196" width="130" height="41" rx="3" fill="#424242"/>
<path d="M253.883 220.627V223H247.062V220.627H253.883ZM248.161 210.203V223H245.076V210.203H248.161ZM253.004 215.283V217.577H247.062V215.283H253.004ZM253.909 210.203V212.585H247.062V210.203H253.909ZM257.521 213.49L258.857 216.109L260.237 213.49H263.313L260.817 218.122L263.445 223H260.343L258.857 220.188L257.381 223H254.278L256.906 218.122L254.419 213.49H257.521ZM267.277 215.318V226.656H264.315V213.49H267.075L267.277 215.318ZM273.113 218.131V218.315C273.113 219.007 273.034 219.648 272.876 220.24C272.718 220.832 272.483 221.348 272.173 221.787C271.862 222.227 271.476 222.569 271.013 222.815C270.556 223.056 270.025 223.176 269.422 223.176C268.854 223.176 268.364 223.05 267.954 222.798C267.544 222.546 267.201 222.197 266.926 221.752C266.65 221.307 266.428 220.797 266.258 220.223C266.088 219.648 265.953 219.042 265.854 218.403V218.166C265.953 217.48 266.088 216.845 266.258 216.259C266.428 215.667 266.65 215.151 266.926 214.712C267.201 214.272 267.541 213.93 267.945 213.684C268.355 213.438 268.845 213.314 269.413 213.314C270.017 213.314 270.547 213.429 271.004 213.657C271.467 213.886 271.854 214.214 272.164 214.642C272.48 215.063 272.718 215.57 272.876 216.162C273.034 216.754 273.113 217.41 273.113 218.131ZM270.151 218.315V218.131C270.151 217.762 270.125 217.425 270.072 217.12C270.02 216.81 269.935 216.54 269.817 216.312C269.706 216.083 269.557 215.907 269.369 215.784C269.182 215.661 268.95 215.6 268.675 215.6C268.358 215.6 268.092 215.649 267.875 215.749C267.664 215.843 267.494 215.989 267.365 216.188C267.242 216.382 267.154 216.625 267.102 216.918C267.055 217.205 267.034 217.542 267.04 217.929V218.649C267.028 219.095 267.072 219.487 267.172 219.827C267.271 220.161 267.444 220.422 267.69 220.609C267.937 220.797 268.271 220.891 268.692 220.891C268.974 220.891 269.208 220.826 269.396 220.697C269.583 220.562 269.732 220.378 269.844 220.144C269.955 219.903 270.034 219.628 270.081 219.317C270.128 219.007 270.151 218.673 270.151 218.315ZM277.42 215.846V223H274.458V213.49H277.227L277.42 215.846ZM280.232 213.42L280.18 216.171C280.062 216.159 279.904 216.145 279.705 216.127C279.506 216.109 279.339 216.101 279.204 216.101C278.858 216.101 278.56 216.142 278.308 216.224C278.062 216.3 277.856 216.417 277.692 216.575C277.534 216.728 277.417 216.921 277.341 217.155C277.271 217.39 277.238 217.662 277.244 217.973L276.708 217.621C276.708 216.982 276.77 216.402 276.893 215.881C277.021 215.354 277.203 214.899 277.438 214.519C277.672 214.132 277.956 213.836 278.29 213.631C278.624 213.42 278.999 213.314 279.415 213.314C279.562 213.314 279.705 213.323 279.846 213.341C279.992 213.358 280.121 213.385 280.232 213.42ZM285.682 223.176C284.908 223.176 284.217 223.056 283.607 222.815C282.998 222.569 282.482 222.232 282.061 221.805C281.645 221.377 281.325 220.885 281.103 220.328C280.886 219.771 280.777 219.183 280.777 218.562V218.228C280.777 217.53 280.874 216.886 281.067 216.294C281.261 215.696 281.548 215.175 281.929 214.729C282.31 214.284 282.787 213.938 283.361 213.692C283.936 213.44 284.604 213.314 285.365 213.314C286.039 213.314 286.643 213.423 287.176 213.64C287.709 213.856 288.16 214.167 288.529 214.571C288.904 214.976 289.188 215.465 289.382 216.039C289.581 216.613 289.681 217.258 289.681 217.973V219.177H281.911V217.322H286.789V217.094C286.795 216.777 286.739 216.508 286.622 216.285C286.511 216.062 286.347 215.893 286.13 215.775C285.913 215.658 285.649 215.6 285.339 215.6C285.017 215.6 284.75 215.67 284.539 215.811C284.334 215.951 284.173 216.145 284.056 216.391C283.944 216.631 283.865 216.909 283.818 217.226C283.771 217.542 283.748 217.876 283.748 218.228V218.562C283.748 218.913 283.795 219.232 283.889 219.52C283.988 219.807 284.129 220.053 284.311 220.258C284.498 220.457 284.721 220.612 284.979 220.724C285.242 220.835 285.541 220.891 285.875 220.891C286.279 220.891 286.678 220.814 287.07 220.662C287.463 220.51 287.8 220.258 288.081 219.906L289.426 221.506C289.232 221.781 288.957 222.048 288.6 222.306C288.248 222.563 287.826 222.774 287.334 222.938C286.842 223.097 286.291 223.176 285.682 223.176ZM295.868 220.328C295.868 220.164 295.812 220.023 295.701 219.906C295.596 219.783 295.408 219.672 295.139 219.572C294.869 219.467 294.491 219.361 294.005 219.256C293.542 219.156 293.105 219.024 292.695 218.86C292.291 218.696 291.937 218.497 291.632 218.263C291.327 218.028 291.087 217.75 290.911 217.428C290.741 217.105 290.656 216.736 290.656 216.32C290.656 215.916 290.741 215.535 290.911 215.178C291.087 214.814 291.342 214.495 291.676 214.22C292.016 213.938 292.429 213.719 292.915 213.561C293.401 213.396 293.955 213.314 294.576 213.314C295.432 213.314 296.17 213.446 296.791 213.71C297.412 213.968 297.89 214.331 298.224 214.8C298.563 215.263 298.733 215.799 298.733 216.408H295.771C295.771 216.168 295.73 215.963 295.648 215.793C295.572 215.623 295.446 215.494 295.271 215.406C295.095 215.312 294.86 215.266 294.567 215.266C294.362 215.266 294.175 215.304 294.005 215.38C293.841 215.456 293.709 215.562 293.609 215.696C293.51 215.831 293.46 215.989 293.46 216.171C293.46 216.3 293.489 216.417 293.548 216.522C293.612 216.622 293.709 216.716 293.838 216.804C293.967 216.886 294.131 216.962 294.33 217.032C294.529 217.097 294.77 217.155 295.051 217.208C295.689 217.325 296.287 217.492 296.844 217.709C297.4 217.926 297.852 218.233 298.197 218.632C298.549 219.03 298.725 219.566 298.725 220.24C298.725 220.662 298.628 221.052 298.435 221.409C298.241 221.761 297.963 222.071 297.6 222.341C297.236 222.604 296.8 222.81 296.29 222.956C295.78 223.103 295.206 223.176 294.567 223.176C293.659 223.176 292.892 223.015 292.265 222.692C291.638 222.364 291.163 221.954 290.841 221.462C290.524 220.964 290.366 220.46 290.366 219.95H293.126C293.138 220.243 293.208 220.483 293.337 220.671C293.472 220.858 293.65 220.996 293.873 221.084C294.096 221.172 294.354 221.216 294.646 221.216C294.916 221.216 295.139 221.178 295.314 221.102C295.496 221.025 295.634 220.923 295.728 220.794C295.821 220.659 295.868 220.504 295.868 220.328ZM305.097 220.328C305.097 220.164 305.041 220.023 304.93 219.906C304.824 219.783 304.637 219.672 304.367 219.572C304.098 219.467 303.72 219.361 303.233 219.256C302.771 219.156 302.334 219.024 301.924 218.86C301.52 218.696 301.165 218.497 300.86 218.263C300.556 218.028 300.315 217.75 300.14 217.428C299.97 217.105 299.885 216.736 299.885 216.32C299.885 215.916 299.97 215.535 300.14 215.178C300.315 214.814 300.57 214.495 300.904 214.22C301.244 213.938 301.657 213.719 302.144 213.561C302.63 213.396 303.184 213.314 303.805 213.314C304.66 213.314 305.398 213.446 306.02 213.71C306.641 213.968 307.118 214.331 307.452 214.8C307.792 215.263 307.962 215.799 307.962 216.408H305C305 216.168 304.959 215.963 304.877 215.793C304.801 215.623 304.675 215.494 304.499 215.406C304.323 215.312 304.089 215.266 303.796 215.266C303.591 215.266 303.403 215.304 303.233 215.38C303.069 215.456 302.938 215.562 302.838 215.696C302.738 215.831 302.688 215.989 302.688 216.171C302.688 216.3 302.718 216.417 302.776 216.522C302.841 216.622 302.938 216.716 303.066 216.804C303.195 216.886 303.359 216.962 303.559 217.032C303.758 217.097 303.998 217.155 304.279 217.208C304.918 217.325 305.516 217.492 306.072 217.709C306.629 217.926 307.08 218.233 307.426 218.632C307.777 219.03 307.953 219.566 307.953 220.24C307.953 220.662 307.856 221.052 307.663 221.409C307.47 221.761 307.191 222.071 306.828 222.341C306.465 222.604 306.028 222.81 305.519 222.956C305.009 223.103 304.435 223.176 303.796 223.176C302.888 223.176 302.12 223.015 301.493 222.692C300.866 222.364 300.392 221.954 300.069 221.462C299.753 220.964 299.595 220.46 299.595 219.95H302.354C302.366 220.243 302.437 220.483 302.565 220.671C302.7 220.858 302.879 220.996 303.102 221.084C303.324 221.172 303.582 221.216 303.875 221.216C304.145 221.216 304.367 221.178 304.543 221.102C304.725 221.025 304.862 220.923 304.956 220.794C305.05 220.659 305.097 220.504 305.097 220.328ZM314.571 218.983V210.203H317.647V218.983C317.647 219.839 317.451 220.58 317.059 221.207C316.672 221.834 316.145 222.32 315.477 222.666C314.814 223.006 314.07 223.176 313.244 223.176C312.389 223.176 311.627 223.032 310.959 222.745C310.297 222.458 309.775 222.016 309.395 221.418C309.02 220.82 308.832 220.059 308.832 219.133H311.926C311.926 219.566 311.976 219.906 312.075 220.152C312.175 220.393 312.321 220.562 312.515 220.662C312.714 220.756 312.957 220.803 313.244 220.803C313.525 220.803 313.763 220.732 313.956 220.592C314.155 220.445 314.308 220.237 314.413 219.968C314.519 219.692 314.571 219.364 314.571 218.983ZM326.199 219.599C326.199 219.399 326.17 219.221 326.111 219.062C326.053 218.898 325.944 218.746 325.786 218.605C325.628 218.465 325.399 218.324 325.101 218.184C324.808 218.037 324.421 217.885 323.94 217.727C323.378 217.539 322.836 217.328 322.314 217.094C321.793 216.854 321.327 216.575 320.917 216.259C320.507 215.937 320.182 215.562 319.941 215.134C319.701 214.7 319.581 214.196 319.581 213.622C319.581 213.071 319.704 212.576 319.95 212.137C320.196 211.691 320.539 211.313 320.979 211.003C321.424 210.687 321.945 210.446 322.543 210.282C323.141 210.112 323.794 210.027 324.503 210.027C325.44 210.027 326.267 210.191 326.981 210.52C327.702 210.842 328.265 211.302 328.669 211.899C329.079 212.491 329.284 213.191 329.284 214H326.217C326.217 213.678 326.149 213.394 326.015 213.147C325.886 212.901 325.689 212.708 325.426 212.567C325.162 212.427 324.831 212.356 324.433 212.356C324.046 212.356 323.721 212.415 323.457 212.532C323.193 212.649 322.994 212.808 322.859 213.007C322.725 213.2 322.657 213.414 322.657 213.648C322.657 213.842 322.71 214.018 322.815 214.176C322.927 214.328 323.082 214.472 323.281 214.606C323.486 214.741 323.732 214.87 324.02 214.993C324.312 215.116 324.641 215.236 325.004 215.354C325.684 215.57 326.287 215.813 326.814 216.083C327.348 216.347 327.796 216.648 328.159 216.988C328.528 217.322 328.807 217.703 328.994 218.131C329.188 218.559 329.284 219.042 329.284 219.581C329.284 220.155 329.173 220.665 328.95 221.11C328.728 221.556 328.408 221.934 327.992 222.244C327.576 222.549 327.078 222.78 326.498 222.938C325.918 223.097 325.271 223.176 324.556 223.176C323.899 223.176 323.252 223.094 322.613 222.93C321.98 222.76 321.406 222.502 320.891 222.156C320.375 221.805 319.962 221.356 319.651 220.812C319.347 220.261 319.194 219.607 319.194 218.852H322.288C322.288 219.227 322.338 219.543 322.438 219.801C322.537 220.059 322.684 220.267 322.877 220.425C323.07 220.577 323.308 220.688 323.589 220.759C323.87 220.823 324.192 220.855 324.556 220.855C324.948 220.855 325.265 220.8 325.505 220.688C325.745 220.571 325.921 220.419 326.032 220.231C326.144 220.038 326.199 219.827 326.199 219.599Z" fill="white"/>
<rect x="222" y="196" width="130" height="41" rx="3" stroke="#424242" stroke-width="4"/>
<rect x="372" y="196" width="109" height="41" rx="3" fill="#424242"/>
<path d="M406.118 210.203V223H403.042L398.516 215.037V223H395.431V210.203H398.516L403.042 218.166V210.203H406.118ZM407.56 218.342V218.157C407.56 217.46 407.659 216.818 407.858 216.232C408.058 215.641 408.351 215.128 408.737 214.694C409.124 214.261 409.602 213.924 410.17 213.684C410.738 213.438 411.395 213.314 412.139 213.314C412.889 213.314 413.548 213.438 414.116 213.684C414.69 213.924 415.171 214.261 415.558 214.694C415.944 215.128 416.237 215.641 416.437 216.232C416.636 216.818 416.735 217.46 416.735 218.157V218.342C416.735 219.033 416.636 219.675 416.437 220.267C416.237 220.853 415.944 221.365 415.558 221.805C415.171 222.238 414.693 222.575 414.125 222.815C413.557 223.056 412.9 223.176 412.156 223.176C411.412 223.176 410.753 223.056 410.179 222.815C409.604 222.575 409.124 222.238 408.737 221.805C408.351 221.365 408.058 220.853 407.858 220.267C407.659 219.675 407.56 219.033 407.56 218.342ZM410.521 218.157V218.342C410.521 218.699 410.548 219.033 410.601 219.344C410.653 219.654 410.741 219.927 410.864 220.161C410.987 220.39 411.154 220.568 411.365 220.697C411.576 220.826 411.84 220.891 412.156 220.891C412.467 220.891 412.725 220.826 412.93 220.697C413.141 220.568 413.308 220.39 413.431 220.161C413.554 219.927 413.642 219.654 413.694 219.344C413.747 219.033 413.773 218.699 413.773 218.342V218.157C413.773 217.812 413.747 217.486 413.694 217.182C413.642 216.871 413.554 216.599 413.431 216.364C413.308 216.124 413.141 215.937 412.93 215.802C412.719 215.667 412.455 215.6 412.139 215.6C411.828 215.6 411.567 215.667 411.356 215.802C411.151 215.937 410.987 216.124 410.864 216.364C410.741 216.599 410.653 216.871 410.601 217.182C410.548 217.486 410.521 217.812 410.521 218.157ZM423.521 220.82V209.5H426.5V223H423.828L423.521 220.82ZM417.685 218.359V218.175C417.685 217.454 417.764 216.798 417.922 216.206C418.08 215.608 418.314 215.096 418.625 214.668C418.936 214.234 419.322 213.9 419.785 213.666C420.248 213.432 420.781 213.314 421.385 213.314C421.924 213.314 422.396 213.44 422.8 213.692C423.204 213.938 423.55 214.284 423.837 214.729C424.124 215.175 424.358 215.696 424.54 216.294C424.722 216.886 424.859 217.524 424.953 218.21V218.43C424.859 219.074 424.722 219.684 424.54 220.258C424.358 220.826 424.124 221.33 423.837 221.77C423.55 222.209 423.201 222.555 422.791 222.807C422.387 223.053 421.912 223.176 421.367 223.176C420.764 223.176 420.23 223.056 419.768 222.815C419.311 222.575 418.927 222.238 418.616 221.805C418.312 221.371 418.08 220.861 417.922 220.275C417.764 219.689 417.685 219.051 417.685 218.359ZM420.646 218.175V218.359C420.646 218.717 420.67 219.048 420.717 219.353C420.764 219.657 420.843 219.927 420.954 220.161C421.071 220.39 421.224 220.568 421.411 220.697C421.604 220.826 421.842 220.891 422.123 220.891C422.504 220.891 422.817 220.8 423.063 220.618C423.315 220.437 423.5 220.179 423.617 219.845C423.74 219.511 423.793 219.118 423.775 218.667V217.973C423.787 217.586 423.761 217.246 423.696 216.953C423.632 216.654 423.529 216.405 423.389 216.206C423.254 216.007 423.081 215.857 422.87 215.758C422.665 215.652 422.422 215.6 422.141 215.6C421.865 215.6 421.631 215.664 421.438 215.793C421.25 215.922 421.098 216.104 420.98 216.338C420.863 216.566 420.778 216.839 420.726 217.155C420.673 217.466 420.646 217.806 420.646 218.175ZM432.784 223.176C432.011 223.176 431.319 223.056 430.71 222.815C430.101 222.569 429.585 222.232 429.163 221.805C428.747 221.377 428.428 220.885 428.205 220.328C427.988 219.771 427.88 219.183 427.88 218.562V218.228C427.88 217.53 427.977 216.886 428.17 216.294C428.363 215.696 428.65 215.175 429.031 214.729C429.412 214.284 429.89 213.938 430.464 213.692C431.038 213.44 431.706 213.314 432.468 213.314C433.142 213.314 433.745 213.423 434.278 213.64C434.812 213.856 435.263 214.167 435.632 214.571C436.007 214.976 436.291 215.465 436.484 216.039C436.684 216.613 436.783 217.258 436.783 217.973V219.177H429.014V217.322H433.892V217.094C433.897 216.777 433.842 216.508 433.725 216.285C433.613 216.062 433.449 215.893 433.232 215.775C433.016 215.658 432.752 215.6 432.441 215.6C432.119 215.6 431.853 215.67 431.642 215.811C431.437 215.951 431.275 216.145 431.158 216.391C431.047 216.631 430.968 216.909 430.921 217.226C430.874 217.542 430.851 217.876 430.851 218.228V218.562C430.851 218.913 430.897 219.232 430.991 219.52C431.091 219.807 431.231 220.053 431.413 220.258C431.601 220.457 431.823 220.612 432.081 220.724C432.345 220.835 432.644 220.891 432.978 220.891C433.382 220.891 433.78 220.814 434.173 220.662C434.565 220.51 434.902 220.258 435.184 219.906L436.528 221.506C436.335 221.781 436.06 222.048 435.702 222.306C435.351 222.563 434.929 222.774 434.437 222.938C433.944 223.097 433.394 223.176 432.784 223.176ZM443.217 218.983V210.203H446.293V218.983C446.293 219.839 446.097 220.58 445.704 221.207C445.317 221.834 444.79 222.32 444.122 222.666C443.46 223.006 442.716 223.176 441.89 223.176C441.034 223.176 440.272 223.032 439.604 222.745C438.942 222.458 438.421 222.016 438.04 221.418C437.665 220.82 437.478 220.059 437.478 219.133H440.571C440.571 219.566 440.621 219.906 440.721 220.152C440.82 220.393 440.967 220.562 441.16 220.662C441.359 220.756 441.603 220.803 441.89 220.803C442.171 220.803 442.408 220.732 442.602 220.592C442.801 220.445 442.953 220.237 443.059 219.968C443.164 219.692 443.217 219.364 443.217 218.983ZM454.845 219.599C454.845 219.399 454.815 219.221 454.757 219.062C454.698 218.898 454.59 218.746 454.432 218.605C454.273 218.465 454.045 218.324 453.746 218.184C453.453 218.037 453.066 217.885 452.586 217.727C452.023 217.539 451.481 217.328 450.96 217.094C450.438 216.854 449.973 216.575 449.562 216.259C449.152 215.937 448.827 215.562 448.587 215.134C448.347 214.7 448.227 214.196 448.227 213.622C448.227 213.071 448.35 212.576 448.596 212.137C448.842 211.691 449.185 211.313 449.624 211.003C450.069 210.687 450.591 210.446 451.188 210.282C451.786 210.112 452.439 210.027 453.148 210.027C454.086 210.027 454.912 210.191 455.627 210.52C456.348 210.842 456.91 211.302 457.314 211.899C457.725 212.491 457.93 213.191 457.93 214H454.862C454.862 213.678 454.795 213.394 454.66 213.147C454.531 212.901 454.335 212.708 454.071 212.567C453.808 212.427 453.477 212.356 453.078 212.356C452.691 212.356 452.366 212.415 452.103 212.532C451.839 212.649 451.64 212.808 451.505 213.007C451.37 213.2 451.303 213.414 451.303 213.648C451.303 213.842 451.355 214.018 451.461 214.176C451.572 214.328 451.728 214.472 451.927 214.606C452.132 214.741 452.378 214.87 452.665 214.993C452.958 215.116 453.286 215.236 453.649 215.354C454.329 215.57 454.933 215.813 455.46 216.083C455.993 216.347 456.441 216.648 456.805 216.988C457.174 217.322 457.452 217.703 457.64 218.131C457.833 218.559 457.93 219.042 457.93 219.581C457.93 220.155 457.818 220.665 457.596 221.11C457.373 221.556 457.054 221.934 456.638 222.244C456.222 222.549 455.724 222.78 455.144 222.938C454.563 223.097 453.916 223.176 453.201 223.176C452.545 223.176 451.897 223.094 451.259 222.93C450.626 222.76 450.052 222.502 449.536 222.156C449.021 221.805 448.607 221.356 448.297 220.812C447.992 220.261 447.84 219.607 447.84 218.852H450.934C450.934 219.227 450.983 219.543 451.083 219.801C451.183 220.059 451.329 220.267 451.522 220.425C451.716 220.577 451.953 220.688 452.234 220.759C452.516 220.823 452.838 220.855 453.201 220.855C453.594 220.855 453.91 220.8 454.15 220.688C454.391 220.571 454.566 220.419 454.678 220.231C454.789 220.038 454.845 219.827 454.845 219.599Z" fill="white"/>
<rect x="372" y="196" width="109" height="41" rx="3" stroke="#424242" stroke-width="4"/>
<rect x="501" y="196" width="104" height="41" rx="3" fill="#424242"/>
<path d="M532.812 220.627V223H526.343V220.627H532.812ZM527.441 210.203V223H524.356V210.203H527.441ZM538.911 220.609V216.689C538.911 216.42 538.873 216.188 538.797 215.995C538.721 215.802 538.601 215.652 538.437 215.547C538.272 215.436 538.053 215.38 537.777 215.38C537.555 215.38 537.364 215.418 537.206 215.494C537.048 215.57 536.928 215.685 536.846 215.837C536.764 215.989 536.723 216.183 536.723 216.417H533.761C533.761 215.978 533.857 215.57 534.051 215.195C534.25 214.814 534.531 214.483 534.895 214.202C535.264 213.921 535.703 213.704 536.213 213.552C536.729 213.394 537.303 213.314 537.936 213.314C538.691 213.314 539.365 213.44 539.957 213.692C540.555 213.944 541.026 214.322 541.372 214.826C541.718 215.324 541.891 215.951 541.891 216.707V220.601C541.891 221.222 541.926 221.693 541.996 222.016C542.066 222.332 542.166 222.61 542.295 222.851V223H539.324C539.184 222.707 539.078 222.35 539.008 221.928C538.943 221.5 538.911 221.061 538.911 220.609ZM539.271 217.19L539.289 218.772H537.979C537.704 218.772 537.47 218.811 537.276 218.887C537.089 218.963 536.937 219.068 536.819 219.203C536.708 219.332 536.626 219.479 536.573 219.643C536.526 219.807 536.503 219.979 536.503 220.161C536.503 220.337 536.544 220.495 536.626 220.636C536.714 220.771 536.831 220.876 536.978 220.952C537.124 221.028 537.288 221.066 537.47 221.066C537.798 221.066 538.076 221.005 538.305 220.882C538.539 220.753 538.718 220.598 538.841 220.416C538.964 220.234 539.025 220.064 539.025 219.906L539.676 221.119C539.559 221.354 539.424 221.591 539.271 221.831C539.125 222.071 538.94 222.294 538.718 222.499C538.501 222.698 538.234 222.862 537.918 222.991C537.602 223.114 537.218 223.176 536.767 223.176C536.181 223.176 535.642 223.056 535.149 222.815C534.663 222.575 534.273 222.241 533.98 221.813C533.688 221.38 533.541 220.882 533.541 220.319C533.541 219.827 533.629 219.388 533.805 219.001C533.986 218.614 534.259 218.286 534.622 218.017C534.985 217.747 535.448 217.542 536.011 217.401C536.573 217.261 537.235 217.19 537.997 217.19H539.271ZM546.522 215.846V223H543.561V213.49H546.329L546.522 215.846ZM549.335 213.42L549.282 216.171C549.165 216.159 549.007 216.145 548.808 216.127C548.608 216.109 548.441 216.101 548.307 216.101C547.961 216.101 547.662 216.142 547.41 216.224C547.164 216.3 546.959 216.417 546.795 216.575C546.637 216.728 546.52 216.921 546.443 217.155C546.373 217.39 546.341 217.662 546.347 217.973L545.811 217.621C545.811 216.982 545.872 216.402 545.995 215.881C546.124 215.354 546.306 214.899 546.54 214.519C546.774 214.132 547.059 213.836 547.393 213.631C547.727 213.42 548.102 213.314 548.518 213.314C548.664 213.314 548.808 213.323 548.948 213.341C549.095 213.358 549.224 213.385 549.335 213.42ZM555.03 220.609V216.689C555.03 216.42 554.992 216.188 554.916 215.995C554.84 215.802 554.72 215.652 554.556 215.547C554.392 215.436 554.172 215.38 553.896 215.38C553.674 215.38 553.483 215.418 553.325 215.494C553.167 215.57 553.047 215.685 552.965 215.837C552.883 215.989 552.842 216.183 552.842 216.417H549.88C549.88 215.978 549.977 215.57 550.17 215.195C550.369 214.814 550.65 214.483 551.014 214.202C551.383 213.921 551.822 213.704 552.332 213.552C552.848 213.394 553.422 213.314 554.055 213.314C554.811 213.314 555.484 213.44 556.076 213.692C556.674 213.944 557.146 214.322 557.491 214.826C557.837 215.324 558.01 215.951 558.01 216.707V220.601C558.01 221.222 558.045 221.693 558.115 222.016C558.186 222.332 558.285 222.61 558.414 222.851V223H555.443C555.303 222.707 555.197 222.35 555.127 221.928C555.062 221.5 555.03 221.061 555.03 220.609ZM555.391 217.19L555.408 218.772H554.099C553.823 218.772 553.589 218.811 553.396 218.887C553.208 218.963 553.056 219.068 552.938 219.203C552.827 219.332 552.745 219.479 552.692 219.643C552.646 219.807 552.622 219.979 552.622 220.161C552.622 220.337 552.663 220.495 552.745 220.636C552.833 220.771 552.95 220.876 553.097 220.952C553.243 221.028 553.407 221.066 553.589 221.066C553.917 221.066 554.195 221.005 554.424 220.882C554.658 220.753 554.837 220.598 554.96 220.416C555.083 220.234 555.145 220.064 555.145 219.906L555.795 221.119C555.678 221.354 555.543 221.591 555.391 221.831C555.244 222.071 555.06 222.294 554.837 222.499C554.62 222.698 554.354 222.862 554.037 222.991C553.721 223.114 553.337 223.176 552.886 223.176C552.3 223.176 551.761 223.056 551.269 222.815C550.782 222.575 550.393 222.241 550.1 221.813C549.807 221.38 549.66 220.882 549.66 220.319C549.66 219.827 549.748 219.388 549.924 219.001C550.105 218.614 550.378 218.286 550.741 218.017C551.104 217.747 551.567 217.542 552.13 217.401C552.692 217.261 553.354 217.19 554.116 217.19H555.391ZM562.94 220.97L564.812 213.49H567.933L564.821 223H562.976L562.94 220.97ZM561.833 213.49L563.679 220.97L563.661 223H561.807L558.704 213.49H561.833ZM573.294 223.176C572.521 223.176 571.829 223.056 571.22 222.815C570.61 222.569 570.095 222.232 569.673 221.805C569.257 221.377 568.938 220.885 568.715 220.328C568.498 219.771 568.39 219.183 568.39 218.562V218.228C568.39 217.53 568.486 216.886 568.68 216.294C568.873 215.696 569.16 215.175 569.541 214.729C569.922 214.284 570.399 213.938 570.974 213.692C571.548 213.44 572.216 213.314 572.978 213.314C573.651 213.314 574.255 213.423 574.788 213.64C575.321 213.856 575.772 214.167 576.142 214.571C576.517 214.976 576.801 215.465 576.994 216.039C577.193 216.613 577.293 217.258 577.293 217.973V219.177H569.523V217.322H574.401V217.094C574.407 216.777 574.352 216.508 574.234 216.285C574.123 216.062 573.959 215.893 573.742 215.775C573.525 215.658 573.262 215.6 572.951 215.6C572.629 215.6 572.362 215.67 572.151 215.811C571.946 215.951 571.785 216.145 571.668 216.391C571.557 216.631 571.478 216.909 571.431 217.226C571.384 217.542 571.36 217.876 571.36 218.228V218.562C571.36 218.913 571.407 219.232 571.501 219.52C571.601 219.807 571.741 220.053 571.923 220.258C572.11 220.457 572.333 220.612 572.591 220.724C572.854 220.835 573.153 220.891 573.487 220.891C573.892 220.891 574.29 220.814 574.683 220.662C575.075 220.51 575.412 220.258 575.693 219.906L577.038 221.506C576.845 221.781 576.569 222.048 576.212 222.306C575.86 222.563 575.438 222.774 574.946 222.938C574.454 223.097 573.903 223.176 573.294 223.176ZM581.626 209.5V223H578.655V209.5H581.626Z" fill="white"/>
<rect x="501" y="196" width="104" height="41" rx="3" stroke="#424242" stroke-width="4"/>
<rect x="625" y="196" width="103" height="41" rx="3" fill="#424242"/>
<path d="M649.72 210.203H652.233L655.09 219.106L657.946 210.203H660.46L656.109 223H654.07L649.72 210.203ZM648.19 210.203H650.792L651.275 220.012V223H648.19V210.203ZM659.388 210.203H661.998V223H658.904V220.012L659.388 210.203ZM666.753 221.884L669.214 213.49H672.396L668.572 224.415C668.49 224.655 668.382 224.913 668.247 225.188C668.112 225.47 667.928 225.736 667.693 225.988C667.459 226.24 667.157 226.445 666.788 226.604C666.425 226.762 665.974 226.841 665.435 226.841C665.147 226.841 664.937 226.826 664.802 226.797C664.673 226.773 664.474 226.729 664.204 226.665V224.547C664.28 224.547 664.345 224.547 664.397 224.547C664.456 224.547 664.521 224.547 664.591 224.547C664.907 224.547 665.159 224.515 665.347 224.45C665.54 224.386 665.687 224.292 665.786 224.169C665.892 224.046 665.974 223.896 666.032 223.721L666.753 221.884ZM666.129 213.49L668.001 220.144L668.326 223.281H666.34L662.956 213.49H666.129ZM679.901 219.599C679.901 219.399 679.872 219.221 679.813 219.062C679.755 218.898 679.646 218.746 679.488 218.605C679.33 218.465 679.102 218.324 678.803 218.184C678.51 218.037 678.123 217.885 677.643 217.727C677.08 217.539 676.538 217.328 676.017 217.094C675.495 216.854 675.029 216.575 674.619 216.259C674.209 215.937 673.884 215.562 673.644 215.134C673.403 214.7 673.283 214.196 673.283 213.622C673.283 213.071 673.406 212.576 673.652 212.137C673.898 211.691 674.241 211.313 674.681 211.003C675.126 210.687 675.647 210.446 676.245 210.282C676.843 210.112 677.496 210.027 678.205 210.027C679.143 210.027 679.969 210.191 680.684 210.52C681.404 210.842 681.967 211.302 682.371 211.899C682.781 212.491 682.986 213.191 682.986 214H679.919C679.919 213.678 679.852 213.394 679.717 213.147C679.588 212.901 679.392 212.708 679.128 212.567C678.864 212.427 678.533 212.356 678.135 212.356C677.748 212.356 677.423 212.415 677.159 212.532C676.896 212.649 676.696 212.808 676.562 213.007C676.427 213.2 676.359 213.414 676.359 213.648C676.359 213.842 676.412 214.018 676.518 214.176C676.629 214.328 676.784 214.472 676.983 214.606C677.188 214.741 677.435 214.87 677.722 214.993C678.015 215.116 678.343 215.236 678.706 215.354C679.386 215.57 679.989 215.813 680.517 216.083C681.05 216.347 681.498 216.648 681.861 216.988C682.23 217.322 682.509 217.703 682.696 218.131C682.89 218.559 682.986 219.042 682.986 219.581C682.986 220.155 682.875 220.665 682.652 221.11C682.43 221.556 682.11 221.934 681.694 222.244C681.278 222.549 680.78 222.78 680.2 222.938C679.62 223.097 678.973 223.176 678.258 223.176C677.602 223.176 676.954 223.094 676.315 222.93C675.683 222.76 675.108 222.502 674.593 222.156C674.077 221.805 673.664 221.356 673.354 220.812C673.049 220.261 672.896 219.607 672.896 218.852H675.99C675.99 219.227 676.04 219.543 676.14 219.801C676.239 220.059 676.386 220.267 676.579 220.425C676.772 220.577 677.01 220.688 677.291 220.759C677.572 220.823 677.895 220.855 678.258 220.855C678.65 220.855 678.967 220.8 679.207 220.688C679.447 220.571 679.623 220.419 679.734 220.231C679.846 220.038 679.901 219.827 679.901 219.599ZM691.714 220.891L695.282 223.721L693.366 225.338L689.859 222.508L691.714 220.891ZM695.432 216.347V216.865C695.432 217.844 695.294 218.723 695.019 219.502C694.749 220.275 694.362 220.938 693.858 221.488C693.36 222.033 692.771 222.452 692.092 222.745C691.412 223.032 690.662 223.176 689.842 223.176C689.016 223.176 688.26 223.032 687.574 222.745C686.895 222.452 686.303 222.033 685.799 221.488C685.301 220.938 684.914 220.275 684.639 219.502C684.369 218.723 684.234 217.844 684.234 216.865V216.347C684.234 215.368 684.369 214.489 684.639 213.71C684.914 212.931 685.298 212.269 685.79 211.724C686.288 211.173 686.877 210.754 687.557 210.467C688.242 210.174 688.998 210.027 689.824 210.027C690.645 210.027 691.395 210.174 692.074 210.467C692.76 210.754 693.352 211.173 693.85 211.724C694.354 212.269 694.743 212.931 695.019 213.71C695.294 214.489 695.432 215.368 695.432 216.347ZM692.294 216.865V216.329C692.294 215.696 692.238 215.14 692.127 214.659C692.021 214.173 691.863 213.766 691.652 213.438C691.441 213.109 691.181 212.863 690.87 212.699C690.565 212.529 690.217 212.444 689.824 212.444C689.414 212.444 689.057 212.529 688.752 212.699C688.447 212.863 688.192 213.109 687.987 213.438C687.782 213.766 687.627 214.173 687.521 214.659C687.422 215.14 687.372 215.696 687.372 216.329V216.865C687.372 217.492 687.422 218.049 687.521 218.535C687.627 219.016 687.782 219.423 687.987 219.757C688.198 220.091 688.456 220.343 688.761 220.513C689.071 220.683 689.432 220.768 689.842 220.768C690.234 220.768 690.583 220.683 690.888 220.513C691.192 220.343 691.447 220.091 691.652 219.757C691.863 219.423 692.021 219.016 692.127 218.535C692.238 218.049 692.294 217.492 692.294 216.865ZM705.46 220.627V223H698.991V220.627H705.46ZM700.09 210.203V223H697.005V210.203H700.09Z" fill="white"/>
<rect x="625" y="196" width="103" height="41" rx="3" stroke="#424242" stroke-width="4"/>
<path d="M1066 0H1348C1356.28 0 1363 6.71573 1363 15V282C1363 290.284 1356.28 297 1348 297H1066V0Z" fill="#F0F0F0"/>
<path d="M1200.98 74.5494H1239.1C1239.1 74.5494 1241.39 62.1661 1255.49 62.1661C1269.59 62.1661 1272.26 74.5495 1272.26 81.6257C1272.26 88.7019 1268.45 101.085 1255.87 101.085C1243.29 101.085 1239.1 88.7019 1239.1 88.7019H1167.82V96.2204H1199.84L1200.22 133.813H1267.67C1270.39 125.843 1274.15 120.067 1283.68 120.067C1293.21 120.067 1301.6 128.47 1301.6 140.411C1301.6 152.353 1291.3 158.102 1283.68 158.102C1276.06 158.102 1267.67 146.161 1267.67 146.161L1179.64 146.196V151.946H1200.22V182.904H1231.46C1236.8 182.904 1236.04 173.581 1244.8 173.581C1253.57 173.581 1258.91 178.446 1258.91 186.849C1258.91 195.252 1254.71 204.982 1244.8 204.982C1234.89 204.982 1231.46 190.423 1231.46 190.423H1184.97V199.268H1199.84V229.784C1199.84 229.784 1218.91 229.811 1263.88 229.811C1263.88 229.811 1262.72 210.758 1280.25 210.758C1297.78 210.758 1298.17 228.864 1297.4 237.267C1296.64 245.67 1288.64 252.747 1280.25 252.747C1271.87 252.747 1262.73 242.61 1262.73 242.61H1173.92C1170.11 242.61 1171.25 248.802 1173.92 248.802H1196.79C1196.79 248.802 1201.75 253.667 1188.79 266.05C1175.83 278.433 1160.68 280.171 1143.81 266.05C1143.81 266.05 1140 261.627 1136.19 252.34C1132.37 243.052 1132.56 232.666 1132.16 226.689C1131.76 220.711 1128.17 225.259 1127.97 226.689C1127.76 228.118 1126.36 244.379 1128.79 246.59C1131.23 248.802 1128 253.56 1122.8 247.917C1114.61 239.398 1109.83 233.415 1113.85 216.959C1114.13 216.081 1114.87 215.986 1116.36 215.942C1119.09 215.953 1118.49 216.35 1119.86 215.19C1121.16 214.089 1124.07 210.301 1125.12 208.078C1128.55 193.083 1135.1 188.183 1145.71 186.849C1159.63 185.1 1169.15 203.258 1166.68 210.325C1165.62 213.363 1171.15 213.364 1170.87 210.325C1170.02 197.729 1164 182.02 1145.71 182.02C1124.91 182.02 1121.72 207.89 1118.65 210.325C1115.59 212.759 1104.24 204.548 1095.78 190.423C1091.64 180.492 1090.45 173.174 1093.49 162.118C1099.36 168.22 1106.47 170.556 1120.94 169.636C1134.05 167.285 1141.06 165.166 1152.19 158.137C1155.51 152.571 1153 150.805 1152.19 150.619C1121.67 170.987 1093.49 160.349 1089.3 151.504C1085.11 142.658 1087.78 123.199 1088.54 121.872C1089.3 120.545 1090.45 120.987 1091.21 121.872C1091.97 122.756 1112.93 137.351 1116.36 134.697C1119.8 132.044 1116.75 128.948 1115.98 128.948C1115.22 128.948 1092.03 123.704 1091.97 110.815C1091.84 81.4225 1098.1 65.5898 1133.14 57.3011V90.0287C1133.14 94.4514 1140 94.4514 1140 90.0287V74.5494C1140 65.7042 1146.86 29.4385 1172.78 30.7653C1198.7 32.0921 1200.48 71.743 1200.98 74.5494Z" fill="#20E399" stroke="#20E399" stroke-width="1.39611"/>
<path d="M1248.3 31.1721C1248.3 36.4905 1244.52 40.6461 1240.04 40.6461C1235.56 40.6461 1231.78 36.4905 1231.78 31.1721C1231.78 25.8537 1235.56 21.6981 1240.04 21.6981C1244.52 21.6981 1248.3 25.8537 1248.3 31.1721Z" fill="#20E399" stroke="#20E399" stroke-width="1.39611"/>
<path d="M1248.3 265.572C1248.3 270.891 1244.52 275.046 1240.04 275.046C1235.56 275.046 1231.78 270.891 1231.78 265.572C1231.78 260.254 1235.56 256.098 1240.04 256.098C1244.52 256.098 1248.3 260.254 1248.3 265.572Z" fill="#20E399" stroke="#20E399" stroke-width="1.39611"/>
<path d="M1341.3 112.549C1341.3 117.867 1337.52 122.023 1333.04 122.023C1328.56 122.023 1324.78 117.867 1324.78 112.549C1324.78 107.23 1328.56 103.075 1333.04 103.075C1337.52 103.075 1341.3 107.23 1341.3 112.549Z" fill="#20E399" stroke="#20E399" stroke-width="1.39611"/>
</svg>
