<svg width="1363" height="163" viewBox="0 0 1363 163" fill="none" xmlns="http://www.w3.org/2000/svg">
<path d="M0 15C0 6.71573 6.71573 0 15 0H37V163H15C6.71573 163 0 156.284 0 148V15Z" fill="#20E399"/>
<rect width="1097" height="163" transform="translate(37)" fill="#F0F0F0"/>
<path d="M101.906 53.9219L94.3945 51.2383V48.0859L104.602 52.375V54.6367L101.906 53.9219ZM94.3945 56.1719L101.918 53.4297L104.602 52.7852V55.0352L94.3945 59.3242V56.1719ZM118.137 61H114.422L114.445 58.2578H118.137C119.059 58.2578 119.836 58.0508 120.469 57.6367C121.102 57.2148 121.578 56.6016 121.898 55.7969C122.227 54.9922 122.391 54.0195 122.391 52.8789V52.0469C122.391 51.1719 122.297 50.4023 122.109 49.7383C121.93 49.0742 121.66 48.5156 121.301 48.0625C120.941 47.6094 120.5 47.2695 119.977 47.043C119.453 46.8086 118.852 46.6914 118.172 46.6914H114.352V43.9375H118.172C119.312 43.9375 120.355 44.1328 121.301 44.5234C122.254 44.9062 123.078 45.457 123.773 46.1758C124.469 46.8945 125.004 47.7539 125.379 48.7539C125.762 49.7461 125.953 50.8516 125.953 52.0703V52.8789C125.953 54.0898 125.762 55.1953 125.379 56.1953C125.004 57.1953 124.469 58.0547 123.773 58.7734C123.086 59.4844 122.262 60.0352 121.301 60.4258C120.348 60.8086 119.293 61 118.137 61ZM116.414 43.9375V61H112.898V43.9375H116.414ZM131.859 48.3203V61H128.473V48.3203H131.859ZM128.262 45.0156C128.262 44.5234 128.434 44.1172 128.777 43.7969C129.121 43.4766 129.582 43.3164 130.16 43.3164C130.73 43.3164 131.188 43.4766 131.531 43.7969C131.883 44.1172 132.059 44.5234 132.059 45.0156C132.059 45.5078 131.883 45.9141 131.531 46.2344C131.188 46.5547 130.73 46.7148 130.16 46.7148C129.582 46.7148 129.121 46.5547 128.777 46.2344C128.434 45.9141 128.262 45.5078 128.262 45.0156ZM142.676 48.3203H145.734V60.5781C145.734 61.7344 145.477 62.7148 144.961 63.5195C144.453 64.332 143.742 64.9453 142.828 65.3594C141.914 65.7812 140.852 65.9922 139.641 65.9922C139.109 65.9922 138.547 65.9219 137.953 65.7812C137.367 65.6406 136.805 65.4219 136.266 65.125C135.734 64.8281 135.289 64.4531 134.93 64L136.418 62.0078C136.809 62.4609 137.262 62.8125 137.777 63.0625C138.293 63.3203 138.863 63.4492 139.488 63.4492C140.098 63.4492 140.613 63.3359 141.035 63.1094C141.457 62.8906 141.781 62.5664 142.008 62.1367C142.234 61.7148 142.348 61.2031 142.348 60.6016V51.25L142.676 48.3203ZM134.145 54.8125V54.5664C134.145 53.5977 134.262 52.7188 134.496 51.9297C134.738 51.1328 135.078 50.4492 135.516 49.8789C135.961 49.3086 136.5 48.8672 137.133 48.5547C137.766 48.2422 138.48 48.0859 139.277 48.0859C140.121 48.0859 140.828 48.2422 141.398 48.5547C141.969 48.8672 142.438 49.3125 142.805 49.8906C143.172 50.4609 143.457 51.1367 143.66 51.918C143.871 52.6914 144.035 53.5391 144.152 54.4609V55C144.035 55.8828 143.859 56.7031 143.625 57.4609C143.391 58.2188 143.082 58.8828 142.699 59.4531C142.316 60.0156 141.84 60.4531 141.27 60.7656C140.707 61.0781 140.035 61.2344 139.254 61.2344C138.473 61.2344 137.766 61.0742 137.133 60.7539C136.508 60.4336 135.973 59.9844 135.527 59.4062C135.082 58.8281 134.738 58.1484 134.496 57.3672C134.262 56.5859 134.145 55.7344 134.145 54.8125ZM137.52 54.5664V54.8125C137.52 55.3359 137.57 55.8242 137.672 56.2773C137.773 56.7305 137.93 57.1328 138.141 57.4844C138.359 57.8281 138.629 58.0977 138.949 58.293C139.277 58.4805 139.664 58.5742 140.109 58.5742C140.727 58.5742 141.23 58.4453 141.621 58.1875C142.012 57.9219 142.305 57.5586 142.5 57.0977C142.695 56.6367 142.809 56.1055 142.84 55.5039V53.9688C142.824 53.4766 142.758 53.0352 142.641 52.6445C142.523 52.2461 142.359 51.9062 142.148 51.625C141.938 51.3438 141.664 51.125 141.328 50.9688C140.992 50.8125 140.594 50.7344 140.133 50.7344C139.688 50.7344 139.301 50.8359 138.973 51.0391C138.652 51.2344 138.383 51.5039 138.164 51.8477C137.953 52.1914 137.793 52.5977 137.684 53.0664C137.574 53.5273 137.52 54.0273 137.52 54.5664ZM151.922 48.3203V61H148.535V48.3203H151.922ZM148.324 45.0156C148.324 44.5234 148.496 44.1172 148.84 43.7969C149.184 43.4766 149.645 43.3164 150.223 43.3164C150.793 43.3164 151.25 43.4766 151.594 43.7969C151.945 44.1172 152.121 44.5234 152.121 45.0156C152.121 45.5078 151.945 45.9141 151.594 46.2344C151.25 46.5547 150.793 46.7148 150.223 46.7148C149.645 46.7148 149.184 46.5547 148.84 46.2344C148.496 45.9141 148.324 45.5078 148.324 45.0156ZM160.922 48.3203V50.7109H153.539V48.3203H160.922ZM155.367 45.1914H158.742V57.1797C158.742 57.5469 158.789 57.8281 158.883 58.0234C158.984 58.2188 159.133 58.3555 159.328 58.4336C159.523 58.5039 159.77 58.5391 160.066 58.5391C160.277 58.5391 160.465 58.5312 160.629 58.5156C160.801 58.4922 160.945 58.4688 161.062 58.4453L161.074 60.9297C160.785 61.0234 160.473 61.0977 160.137 61.1523C159.801 61.207 159.43 61.2344 159.023 61.2344C158.281 61.2344 157.633 61.1133 157.078 60.8711C156.531 60.6211 156.109 60.2227 155.812 59.6758C155.516 59.1289 155.367 58.4102 155.367 57.5195V45.1914ZM169.688 58.1406V52.4922C169.688 52.0859 169.621 51.7383 169.488 51.4492C169.355 51.1523 169.148 50.9219 168.867 50.7578C168.594 50.5938 168.238 50.5117 167.801 50.5117C167.426 50.5117 167.102 50.5781 166.828 50.7109C166.555 50.8359 166.344 51.0195 166.195 51.2617C166.047 51.4961 165.973 51.7734 165.973 52.0938H162.598C162.598 51.5547 162.723 51.043 162.973 50.5586C163.223 50.0742 163.586 49.6484 164.062 49.2812C164.539 48.9062 165.105 48.6133 165.762 48.4023C166.426 48.1914 167.168 48.0859 167.988 48.0859C168.973 48.0859 169.848 48.25 170.613 48.5781C171.379 48.9062 171.98 49.3984 172.418 50.0547C172.863 50.7109 173.086 51.5312 173.086 52.5156V57.9414C173.086 58.6367 173.129 59.207 173.215 59.6523C173.301 60.0898 173.426 60.4727 173.59 60.8008V61H170.18C170.016 60.6562 169.891 60.2266 169.805 59.7109C169.727 59.1875 169.688 58.6641 169.688 58.1406ZM170.133 53.2773L170.156 55.1875H168.27C167.824 55.1875 167.438 55.2383 167.109 55.3398C166.781 55.4414 166.512 55.5859 166.301 55.7734C166.09 55.9531 165.934 56.1641 165.832 56.4062C165.738 56.6484 165.691 56.9141 165.691 57.2031C165.691 57.4922 165.758 57.7539 165.891 57.9883C166.023 58.2148 166.215 58.3945 166.465 58.5273C166.715 58.6523 167.008 58.7148 167.344 58.7148C167.852 58.7148 168.293 58.6133 168.668 58.4102C169.043 58.207 169.332 57.957 169.535 57.6602C169.746 57.3633 169.855 57.082 169.863 56.8164L170.754 58.2461C170.629 58.5664 170.457 58.8984 170.238 59.2422C170.027 59.5859 169.758 59.9102 169.43 60.2148C169.102 60.5117 168.707 60.7578 168.246 60.9531C167.785 61.1406 167.238 61.2344 166.605 61.2344C165.801 61.2344 165.07 61.0742 164.414 60.7539C163.766 60.4258 163.25 59.9766 162.867 59.4062C162.492 58.8281 162.305 58.1719 162.305 57.4375C162.305 56.7734 162.43 56.1836 162.68 55.668C162.93 55.1523 163.297 54.7188 163.781 54.3672C164.273 54.0078 164.887 53.7383 165.621 53.5586C166.355 53.3711 167.207 53.2773 168.176 53.2773H170.133ZM179.25 43V61H175.863V43H179.25ZM189.832 43.9375H192.809L197.191 56.4648L201.574 43.9375H204.551L198.387 61H195.996L189.832 43.9375ZM188.227 43.9375H191.191L191.73 56.1484V61H188.227V43.9375ZM203.191 43.9375H206.168V61H202.652V56.1484L203.191 43.9375ZM212.602 48.3203V61H209.215V48.3203H212.602ZM209.004 45.0156C209.004 44.5234 209.176 44.1172 209.52 43.7969C209.863 43.4766 210.324 43.3164 210.902 43.3164C211.473 43.3164 211.93 43.4766 212.273 43.7969C212.625 44.1172 212.801 44.5234 212.801 45.0156C212.801 45.5078 212.625 45.9141 212.273 46.2344C211.93 46.5547 211.473 46.7148 210.902 46.7148C210.324 46.7148 209.863 46.5547 209.52 46.2344C209.176 45.9141 209.004 45.5078 209.004 45.0156ZM218.695 51.0273V61H215.32V48.3203H218.484L218.695 51.0273ZM218.203 54.2148H217.289C217.289 53.2773 217.41 52.4336 217.652 51.6836C217.895 50.9258 218.234 50.2812 218.672 49.75C219.109 49.2109 219.629 48.8008 220.23 48.5195C220.84 48.2305 221.52 48.0859 222.27 48.0859C222.863 48.0859 223.406 48.1719 223.898 48.3438C224.391 48.5156 224.812 48.7891 225.164 49.1641C225.523 49.5391 225.797 50.0352 225.984 50.6523C226.18 51.2695 226.277 52.0234 226.277 52.9141V61H222.879V52.9023C222.879 52.3398 222.801 51.9023 222.645 51.5898C222.488 51.2773 222.258 51.0586 221.953 50.9336C221.656 50.8008 221.289 50.7344 220.852 50.7344C220.398 50.7344 220.004 50.8242 219.668 51.0039C219.34 51.1836 219.066 51.4336 218.848 51.7539C218.637 52.0664 218.477 52.4336 218.367 52.8555C218.258 53.2773 218.203 53.7305 218.203 54.2148ZM236.332 58.2344V43H239.73V61H236.672L236.332 58.2344ZM228.316 54.8125V54.5664C228.316 53.5977 228.426 52.7188 228.645 51.9297C228.863 51.1328 229.184 50.4492 229.605 49.8789C230.027 49.3086 230.547 48.8672 231.164 48.5547C231.781 48.2422 232.484 48.0859 233.273 48.0859C234.016 48.0859 234.664 48.2422 235.219 48.5547C235.781 48.8672 236.258 49.3125 236.648 49.8906C237.047 50.4609 237.367 51.1367 237.609 51.918C237.852 52.6914 238.027 53.5391 238.137 54.4609V55C238.027 55.8828 237.852 56.7031 237.609 57.4609C237.367 58.2188 237.047 58.8828 236.648 59.4531C236.258 60.0156 235.781 60.4531 235.219 60.7656C234.656 61.0781 234 61.2344 233.25 61.2344C232.461 61.2344 231.758 61.0742 231.141 60.7539C230.531 60.4336 230.016 59.9844 229.594 59.4062C229.18 58.8281 228.863 58.1484 228.645 57.3672C228.426 56.5859 228.316 55.7344 228.316 54.8125ZM231.691 54.5664V54.8125C231.691 55.3359 231.73 55.8242 231.809 56.2773C231.895 56.7305 232.031 57.1328 232.219 57.4844C232.414 57.8281 232.664 58.0977 232.969 58.293C233.281 58.4805 233.66 58.5742 234.105 58.5742C234.684 58.5742 235.16 58.4453 235.535 58.1875C235.91 57.9219 236.195 57.5586 236.391 57.0977C236.594 56.6367 236.711 56.1055 236.742 55.5039V53.9688C236.719 53.4766 236.648 53.0352 236.531 52.6445C236.422 52.2461 236.258 51.9062 236.039 51.625C235.828 51.3438 235.562 51.125 235.242 50.9688C234.93 50.8125 234.559 50.7344 234.129 50.7344C233.691 50.7344 233.316 50.8359 233.004 51.0391C232.691 51.2344 232.438 51.5039 232.242 51.8477C232.055 52.1914 231.914 52.5977 231.82 53.0664C231.734 53.5273 231.691 54.0273 231.691 54.5664Z" fill="#888888"/>
<path d="M106.688 119H99.1172L99.1641 112.672H106.688C108.25 112.672 109.57 112.297 110.648 111.547C111.742 110.797 112.57 109.68 113.133 108.195C113.711 106.695 114 104.852 114 102.664V101.188C114 99.5469 113.836 98.1094 113.508 96.875C113.195 95.625 112.727 94.5859 112.102 93.7578C111.477 92.9141 110.695 92.2812 109.758 91.8594C108.836 91.4375 107.773 91.2266 106.57 91.2266H98.9766V84.875H106.57C108.883 84.875 111 85.2734 112.922 86.0703C114.859 86.8516 116.531 87.9766 117.938 89.4453C119.359 90.8984 120.453 92.625 121.219 94.625C122 96.6094 122.391 98.8125 122.391 101.234V102.664C122.391 105.07 122 107.273 121.219 109.273C120.453 111.273 119.367 113 117.961 114.453C116.555 115.906 114.891 117.031 112.969 117.828C111.062 118.609 108.969 119 106.688 119ZM103.828 84.875V119H95.6016V84.875H103.828ZM138.586 119.469C136.523 119.469 134.68 119.148 133.055 118.508C131.43 117.852 130.055 116.953 128.93 115.812C127.82 114.672 126.969 113.359 126.375 111.875C125.797 110.391 125.508 108.82 125.508 107.164V106.273C125.508 104.414 125.766 102.695 126.281 101.117C126.797 99.5234 127.562 98.1328 128.578 96.9453C129.594 95.7578 130.867 94.8359 132.398 94.1797C133.93 93.5078 135.711 93.1719 137.742 93.1719C139.539 93.1719 141.148 93.4609 142.57 94.0391C143.992 94.6172 145.195 95.4453 146.18 96.5234C147.18 97.6016 147.938 98.9062 148.453 100.438C148.984 101.969 149.25 103.688 149.25 105.594V108.805H128.531V103.859H141.539V103.25C141.555 102.406 141.406 101.688 141.094 101.094C140.797 100.5 140.359 100.047 139.781 99.7344C139.203 99.4219 138.5 99.2656 137.672 99.2656C136.812 99.2656 136.102 99.4531 135.539 99.8281C134.992 100.203 134.562 100.719 134.25 101.375C133.953 102.016 133.742 102.758 133.617 103.602C133.492 104.445 133.43 105.336 133.43 106.273V107.164C133.43 108.102 133.555 108.953 133.805 109.719C134.07 110.484 134.445 111.141 134.93 111.688C135.43 112.219 136.023 112.633 136.711 112.93C137.414 113.227 138.211 113.375 139.102 113.375C140.18 113.375 141.242 113.172 142.289 112.766C143.336 112.359 144.234 111.688 144.984 110.75L148.57 115.016C148.055 115.75 147.32 116.461 146.367 117.148C145.43 117.836 144.305 118.398 142.992 118.836C141.68 119.258 140.211 119.469 138.586 119.469ZM160.43 99.0078V119H152.531V93.6406H159.938L160.43 99.0078ZM159.469 105.453L157.664 105.5C157.664 103.719 157.875 102.078 158.297 100.578C158.719 99.0781 159.344 97.7734 160.172 96.6641C161 95.5547 162.016 94.6953 163.219 94.0859C164.438 93.4766 165.844 93.1719 167.438 93.1719C168.547 93.1719 169.555 93.3438 170.461 93.6875C171.367 94.0156 172.148 94.5391 172.805 95.2578C173.461 95.9609 173.961 96.8828 174.305 98.0234C174.664 99.1484 174.844 100.5 174.844 102.078V119H166.945V103.086C166.945 102.008 166.82 101.195 166.57 100.648C166.336 100.102 165.992 99.7344 165.539 99.5469C165.086 99.3594 164.531 99.2656 163.875 99.2656C163.188 99.2656 162.57 99.4219 162.023 99.7344C161.477 100.047 161.008 100.484 160.617 101.047C160.242 101.594 159.953 102.242 159.75 102.992C159.562 103.742 159.469 104.562 159.469 105.453ZM173.953 105.453L171.75 105.5C171.75 103.719 171.945 102.078 172.336 100.578C172.742 99.0781 173.344 97.7734 174.141 96.6641C174.953 95.5547 175.961 94.6953 177.164 94.0859C178.367 93.4766 179.766 93.1719 181.359 93.1719C182.516 93.1719 183.578 93.3438 184.547 93.6875C185.516 94.0312 186.352 94.5859 187.055 95.3516C187.758 96.1172 188.305 97.1328 188.695 98.3984C189.086 99.6484 189.281 101.195 189.281 103.039V119H181.359V103.039C181.359 101.992 181.234 101.203 180.984 100.672C180.75 100.125 180.406 99.7578 179.953 99.5703C179.5 99.3672 178.961 99.2656 178.336 99.2656C177.586 99.2656 176.938 99.4219 176.391 99.7344C175.844 100.047 175.383 100.484 175.008 101.047C174.648 101.594 174.383 102.242 174.211 102.992C174.039 103.742 173.953 104.562 173.953 105.453ZM192.82 106.578V106.086C192.82 104.227 193.086 102.516 193.617 100.953C194.148 99.375 194.93 98.0078 195.961 96.8516C196.992 95.6953 198.266 94.7969 199.781 94.1562C201.297 93.5 203.047 93.1719 205.031 93.1719C207.031 93.1719 208.789 93.5 210.305 94.1562C211.836 94.7969 213.117 95.6953 214.148 96.8516C215.18 98.0078 215.961 99.375 216.492 100.953C217.023 102.516 217.289 104.227 217.289 106.086V106.578C217.289 108.422 217.023 110.133 216.492 111.711C215.961 113.273 215.18 114.641 214.148 115.812C213.117 116.969 211.844 117.867 210.328 118.508C208.812 119.148 207.062 119.469 205.078 119.469C203.094 119.469 201.336 119.148 199.805 118.508C198.273 117.867 196.992 116.969 195.961 115.812C194.93 114.641 194.148 113.273 193.617 111.711C193.086 110.133 192.82 108.422 192.82 106.578ZM200.719 106.086V106.578C200.719 107.531 200.789 108.422 200.93 109.25C201.07 110.078 201.305 110.805 201.633 111.43C201.961 112.039 202.406 112.516 202.969 112.859C203.531 113.203 204.234 113.375 205.078 113.375C205.906 113.375 206.594 113.203 207.141 112.859C207.703 112.516 208.148 112.039 208.477 111.43C208.805 110.805 209.039 110.078 209.18 109.25C209.32 108.422 209.391 107.531 209.391 106.578V106.086C209.391 105.164 209.32 104.297 209.18 103.484C209.039 102.656 208.805 101.93 208.477 101.305C208.148 100.664 207.703 100.164 207.141 99.8047C206.578 99.4453 205.875 99.2656 205.031 99.2656C204.203 99.2656 203.508 99.4453 202.945 99.8047C202.398 100.164 201.961 100.664 201.633 101.305C201.305 101.93 201.07 102.656 200.93 103.484C200.789 104.297 200.719 105.164 200.719 106.086Z" fill="black"/>
<path d="M1134 0H1348C1356.28 0 1363 6.71573 1363 15V148C1363 156.284 1356.28 163 1348 163H1134V0Z" fill="#20E399"/>
<path d="M1281 46.5H1216L1213.5 49V114L1216 116.5H1281L1283.5 114V49L1281 46.5ZM1278.5 111.5H1233.5V101.5H1245C1246.5 104.5 1250 106.5 1253.5 106.5C1259 106.5 1263.5 102 1263.5 96.5C1263.5 91 1259 86.5 1253.5 86.5C1248 86.5 1243.5 91 1243.5 96.5H1228.5V111.5H1218.5V51.5H1228.5V63C1225.5 64.5 1223.5 68 1223.5 71.5C1223.5 77 1228 81.5 1233.5 81.5C1239 81.5 1243.5 77 1243.5 71.5H1253.5C1253.5 77 1258 81.5 1263.5 81.5C1269 81.5 1273.5 77 1273.5 71.5C1273.5 66 1269 61.5 1263.5 61.5C1260 61.5 1256.5 63.5 1255 66.5H1242C1240.5 63.5 1237 61.5 1233.5 61.5V51.5H1278.5V111.5ZM1248.5 96.5C1248.5 93.5 1250.5 91.5 1253.5 91.5C1256.5 91.5 1258.5 93.5 1258.5 96.5C1258.5 99.5 1256.5 101.5 1253.5 101.5C1250.5 101.5 1248.5 99.5 1248.5 96.5ZM1233.5 66.5C1236.5 66.5 1238.5 68.5 1238.5 71.5C1238.5 74.5 1236.5 76.5 1233.5 76.5C1230.5 76.5 1228.5 74.5 1228.5 71.5C1228.5 68.5 1230.5 66.5 1233.5 66.5ZM1263.5 66.5C1266.5 66.5 1268.5 68.5 1268.5 71.5C1268.5 74.5 1266.5 76.5 1263.5 76.5C1260.5 76.5 1258.5 74.5 1258.5 71.5C1258.5 68.5 1260.5 66.5 1263.5 66.5Z" fill="white"/>
</svg>
