<svg width="1363" height="163" viewBox="0 0 1363 163" fill="none" xmlns="http://www.w3.org/2000/svg">
<path d="M0 15C0 6.71573 6.71573 0 15 0H37V163H15C6.71573 163 0 156.284 0 148V15Z" fill="#20E399"/>
<rect width="1097" height="163" transform="translate(37)" fill="#F0F0F0"/>
<path d="M101.906 53.9219L94.3945 51.2383V48.0859L104.602 52.375V54.6367L101.906 53.9219ZM94.3945 56.1719L101.918 53.4297L104.602 52.7852V55.0352L94.3945 59.3242V56.1719ZM118.137 61H114.422L114.445 58.2578H118.137C119.059 58.2578 119.836 58.0508 120.469 57.6367C121.102 57.2148 121.578 56.6016 121.898 55.7969C122.227 54.9922 122.391 54.0195 122.391 52.8789V52.0469C122.391 51.1719 122.297 50.4023 122.109 49.7383C121.93 49.0742 121.66 48.5156 121.301 48.0625C120.941 47.6094 120.5 47.2695 119.977 47.043C119.453 46.8086 118.852 46.6914 118.172 46.6914H114.352V43.9375H118.172C119.312 43.9375 120.355 44.1328 121.301 44.5234C122.254 44.9062 123.078 45.457 123.773 46.1758C124.469 46.8945 125.004 47.7539 125.379 48.7539C125.762 49.7461 125.953 50.8516 125.953 52.0703V52.8789C125.953 54.0898 125.762 55.1953 125.379 56.1953C125.004 57.1953 124.469 58.0547 123.773 58.7734C123.086 59.4844 122.262 60.0352 121.301 60.4258C120.348 60.8086 119.293 61 118.137 61ZM116.414 43.9375V61H112.898V43.9375H116.414ZM131.859 48.3203V61H128.473V48.3203H131.859ZM128.262 45.0156C128.262 44.5234 128.434 44.1172 128.777 43.7969C129.121 43.4766 129.582 43.3164 130.16 43.3164C130.73 43.3164 131.188 43.4766 131.531 43.7969C131.883 44.1172 132.059 44.5234 132.059 45.0156C132.059 45.5078 131.883 45.9141 131.531 46.2344C131.188 46.5547 130.73 46.7148 130.16 46.7148C129.582 46.7148 129.121 46.5547 128.777 46.2344C128.434 45.9141 128.262 45.5078 128.262 45.0156ZM142.676 48.3203H145.734V60.5781C145.734 61.7344 145.477 62.7148 144.961 63.5195C144.453 64.332 143.742 64.9453 142.828 65.3594C141.914 65.7812 140.852 65.9922 139.641 65.9922C139.109 65.9922 138.547 65.9219 137.953 65.7812C137.367 65.6406 136.805 65.4219 136.266 65.125C135.734 64.8281 135.289 64.4531 134.93 64L136.418 62.0078C136.809 62.4609 137.262 62.8125 137.777 63.0625C138.293 63.3203 138.863 63.4492 139.488 63.4492C140.098 63.4492 140.613 63.3359 141.035 63.1094C141.457 62.8906 141.781 62.5664 142.008 62.1367C142.234 61.7148 142.348 61.2031 142.348 60.6016V51.25L142.676 48.3203ZM134.145 54.8125V54.5664C134.145 53.5977 134.262 52.7188 134.496 51.9297C134.738 51.1328 135.078 50.4492 135.516 49.8789C135.961 49.3086 136.5 48.8672 137.133 48.5547C137.766 48.2422 138.48 48.0859 139.277 48.0859C140.121 48.0859 140.828 48.2422 141.398 48.5547C141.969 48.8672 142.438 49.3125 142.805 49.8906C143.172 50.4609 143.457 51.1367 143.66 51.918C143.871 52.6914 144.035 53.5391 144.152 54.4609V55C144.035 55.8828 143.859 56.7031 143.625 57.4609C143.391 58.2188 143.082 58.8828 142.699 59.4531C142.316 60.0156 141.84 60.4531 141.27 60.7656C140.707 61.0781 140.035 61.2344 139.254 61.2344C138.473 61.2344 137.766 61.0742 137.133 60.7539C136.508 60.4336 135.973 59.9844 135.527 59.4062C135.082 58.8281 134.738 58.1484 134.496 57.3672C134.262 56.5859 134.145 55.7344 134.145 54.8125ZM137.52 54.5664V54.8125C137.52 55.3359 137.57 55.8242 137.672 56.2773C137.773 56.7305 137.93 57.1328 138.141 57.4844C138.359 57.8281 138.629 58.0977 138.949 58.293C139.277 58.4805 139.664 58.5742 140.109 58.5742C140.727 58.5742 141.23 58.4453 141.621 58.1875C142.012 57.9219 142.305 57.5586 142.5 57.0977C142.695 56.6367 142.809 56.1055 142.84 55.5039V53.9688C142.824 53.4766 142.758 53.0352 142.641 52.6445C142.523 52.2461 142.359 51.9062 142.148 51.625C141.938 51.3438 141.664 51.125 141.328 50.9688C140.992 50.8125 140.594 50.7344 140.133 50.7344C139.688 50.7344 139.301 50.8359 138.973 51.0391C138.652 51.2344 138.383 51.5039 138.164 51.8477C137.953 52.1914 137.793 52.5977 137.684 53.0664C137.574 53.5273 137.52 54.0273 137.52 54.5664ZM151.922 48.3203V61H148.535V48.3203H151.922ZM148.324 45.0156C148.324 44.5234 148.496 44.1172 148.84 43.7969C149.184 43.4766 149.645 43.3164 150.223 43.3164C150.793 43.3164 151.25 43.4766 151.594 43.7969C151.945 44.1172 152.121 44.5234 152.121 45.0156C152.121 45.5078 151.945 45.9141 151.594 46.2344C151.25 46.5547 150.793 46.7148 150.223 46.7148C149.645 46.7148 149.184 46.5547 148.84 46.2344C148.496 45.9141 148.324 45.5078 148.324 45.0156ZM160.922 48.3203V50.7109H153.539V48.3203H160.922ZM155.367 45.1914H158.742V57.1797C158.742 57.5469 158.789 57.8281 158.883 58.0234C158.984 58.2188 159.133 58.3555 159.328 58.4336C159.523 58.5039 159.77 58.5391 160.066 58.5391C160.277 58.5391 160.465 58.5312 160.629 58.5156C160.801 58.4922 160.945 58.4688 161.062 58.4453L161.074 60.9297C160.785 61.0234 160.473 61.0977 160.137 61.1523C159.801 61.207 159.43 61.2344 159.023 61.2344C158.281 61.2344 157.633 61.1133 157.078 60.8711C156.531 60.6211 156.109 60.2227 155.812 59.6758C155.516 59.1289 155.367 58.4102 155.367 57.5195V45.1914ZM169.688 58.1406V52.4922C169.688 52.0859 169.621 51.7383 169.488 51.4492C169.355 51.1523 169.148 50.9219 168.867 50.7578C168.594 50.5938 168.238 50.5117 167.801 50.5117C167.426 50.5117 167.102 50.5781 166.828 50.7109C166.555 50.8359 166.344 51.0195 166.195 51.2617C166.047 51.4961 165.973 51.7734 165.973 52.0938H162.598C162.598 51.5547 162.723 51.043 162.973 50.5586C163.223 50.0742 163.586 49.6484 164.062 49.2812C164.539 48.9062 165.105 48.6133 165.762 48.4023C166.426 48.1914 167.168 48.0859 167.988 48.0859C168.973 48.0859 169.848 48.25 170.613 48.5781C171.379 48.9062 171.98 49.3984 172.418 50.0547C172.863 50.7109 173.086 51.5312 173.086 52.5156V57.9414C173.086 58.6367 173.129 59.207 173.215 59.6523C173.301 60.0898 173.426 60.4727 173.59 60.8008V61H170.18C170.016 60.6562 169.891 60.2266 169.805 59.7109C169.727 59.1875 169.688 58.6641 169.688 58.1406ZM170.133 53.2773L170.156 55.1875H168.27C167.824 55.1875 167.438 55.2383 167.109 55.3398C166.781 55.4414 166.512 55.5859 166.301 55.7734C166.09 55.9531 165.934 56.1641 165.832 56.4062C165.738 56.6484 165.691 56.9141 165.691 57.2031C165.691 57.4922 165.758 57.7539 165.891 57.9883C166.023 58.2148 166.215 58.3945 166.465 58.5273C166.715 58.6523 167.008 58.7148 167.344 58.7148C167.852 58.7148 168.293 58.6133 168.668 58.4102C169.043 58.207 169.332 57.957 169.535 57.6602C169.746 57.3633 169.855 57.082 169.863 56.8164L170.754 58.2461C170.629 58.5664 170.457 58.8984 170.238 59.2422C170.027 59.5859 169.758 59.9102 169.43 60.2148C169.102 60.5117 168.707 60.7578 168.246 60.9531C167.785 61.1406 167.238 61.2344 166.605 61.2344C165.801 61.2344 165.07 61.0742 164.414 60.7539C163.766 60.4258 163.25 59.9766 162.867 59.4062C162.492 58.8281 162.305 58.1719 162.305 57.4375C162.305 56.7734 162.43 56.1836 162.68 55.668C162.93 55.1523 163.297 54.7188 163.781 54.3672C164.273 54.0078 164.887 53.7383 165.621 53.5586C166.355 53.3711 167.207 53.2773 168.176 53.2773H170.133ZM179.25 43V61H175.863V43H179.25ZM189.832 43.9375H192.809L197.191 56.4648L201.574 43.9375H204.551L198.387 61H195.996L189.832 43.9375ZM188.227 43.9375H191.191L191.73 56.1484V61H188.227V43.9375ZM203.191 43.9375H206.168V61H202.652V56.1484L203.191 43.9375ZM212.602 48.3203V61H209.215V48.3203H212.602ZM209.004 45.0156C209.004 44.5234 209.176 44.1172 209.52 43.7969C209.863 43.4766 210.324 43.3164 210.902 43.3164C211.473 43.3164 211.93 43.4766 212.273 43.7969C212.625 44.1172 212.801 44.5234 212.801 45.0156C212.801 45.5078 212.625 45.9141 212.273 46.2344C211.93 46.5547 211.473 46.7148 210.902 46.7148C210.324 46.7148 209.863 46.5547 209.52 46.2344C209.176 45.9141 209.004 45.5078 209.004 45.0156ZM218.695 51.0273V61H215.32V48.3203H218.484L218.695 51.0273ZM218.203 54.2148H217.289C217.289 53.2773 217.41 52.4336 217.652 51.6836C217.895 50.9258 218.234 50.2812 218.672 49.75C219.109 49.2109 219.629 48.8008 220.23 48.5195C220.84 48.2305 221.52 48.0859 222.27 48.0859C222.863 48.0859 223.406 48.1719 223.898 48.3438C224.391 48.5156 224.812 48.7891 225.164 49.1641C225.523 49.5391 225.797 50.0352 225.984 50.6523C226.18 51.2695 226.277 52.0234 226.277 52.9141V61H222.879V52.9023C222.879 52.3398 222.801 51.9023 222.645 51.5898C222.488 51.2773 222.258 51.0586 221.953 50.9336C221.656 50.8008 221.289 50.7344 220.852 50.7344C220.398 50.7344 220.004 50.8242 219.668 51.0039C219.34 51.1836 219.066 51.4336 218.848 51.7539C218.637 52.0664 218.477 52.4336 218.367 52.8555C218.258 53.2773 218.203 53.7305 218.203 54.2148ZM236.332 58.2344V43H239.73V61H236.672L236.332 58.2344ZM228.316 54.8125V54.5664C228.316 53.5977 228.426 52.7188 228.645 51.9297C228.863 51.1328 229.184 50.4492 229.605 49.8789C230.027 49.3086 230.547 48.8672 231.164 48.5547C231.781 48.2422 232.484 48.0859 233.273 48.0859C234.016 48.0859 234.664 48.2422 235.219 48.5547C235.781 48.8672 236.258 49.3125 236.648 49.8906C237.047 50.4609 237.367 51.1367 237.609 51.918C237.852 52.6914 238.027 53.5391 238.137 54.4609V55C238.027 55.8828 237.852 56.7031 237.609 57.4609C237.367 58.2188 237.047 58.8828 236.648 59.4531C236.258 60.0156 235.781 60.4531 235.219 60.7656C234.656 61.0781 234 61.2344 233.25 61.2344C232.461 61.2344 231.758 61.0742 231.141 60.7539C230.531 60.4336 230.016 59.9844 229.594 59.4062C229.18 58.8281 228.863 58.1484 228.645 57.3672C228.426 56.5859 228.316 55.7344 228.316 54.8125ZM231.691 54.5664V54.8125C231.691 55.3359 231.73 55.8242 231.809 56.2773C231.895 56.7305 232.031 57.1328 232.219 57.4844C232.414 57.8281 232.664 58.0977 232.969 58.293C233.281 58.4805 233.66 58.5742 234.105 58.5742C234.684 58.5742 235.16 58.4453 235.535 58.1875C235.91 57.9219 236.195 57.5586 236.391 57.0977C236.594 56.6367 236.711 56.1055 236.742 55.5039V53.9688C236.719 53.4766 236.648 53.0352 236.531 52.6445C236.422 52.2461 236.258 51.9062 236.039 51.625C235.828 51.3438 235.562 51.125 235.242 50.9688C234.93 50.8125 234.559 50.7344 234.129 50.7344C233.691 50.7344 233.316 50.8359 233.004 51.0391C232.691 51.2344 232.438 51.5039 232.242 51.8477C232.055 52.1914 231.914 52.5977 231.82 53.0664C231.734 53.5273 231.691 54.0273 231.691 54.5664Z" fill="#888888"/>
<path d="M112.125 84.875V119H103.898V84.875H112.125ZM122.391 84.875V91.2266H93.8672V84.875H122.391ZM135.68 119.469C133.617 119.469 131.773 119.148 130.148 118.508C128.523 117.852 127.148 116.953 126.023 115.812C124.914 114.672 124.062 113.359 123.469 111.875C122.891 110.391 122.602 108.82 122.602 107.164V106.273C122.602 104.414 122.859 102.695 123.375 101.117C123.891 99.5234 124.656 98.1328 125.672 96.9453C126.688 95.7578 127.961 94.8359 129.492 94.1797C131.023 93.5078 132.805 93.1719 134.836 93.1719C136.633 93.1719 138.242 93.4609 139.664 94.0391C141.086 94.6172 142.289 95.4453 143.273 96.5234C144.273 97.6016 145.031 98.9062 145.547 100.438C146.078 101.969 146.344 103.688 146.344 105.594V108.805H125.625V103.859H138.633V103.25C138.648 102.406 138.5 101.688 138.188 101.094C137.891 100.5 137.453 100.047 136.875 99.7344C136.297 99.4219 135.594 99.2656 134.766 99.2656C133.906 99.2656 133.195 99.4531 132.633 99.8281C132.086 100.203 131.656 100.719 131.344 101.375C131.047 102.016 130.836 102.758 130.711 103.602C130.586 104.445 130.523 105.336 130.523 106.273V107.164C130.523 108.102 130.648 108.953 130.898 109.719C131.164 110.484 131.539 111.141 132.023 111.688C132.523 112.219 133.117 112.633 133.805 112.93C134.508 113.227 135.305 113.375 136.195 113.375C137.273 113.375 138.336 113.172 139.383 112.766C140.43 112.359 141.328 111.688 142.078 110.75L145.664 115.016C145.148 115.75 144.414 116.461 143.461 117.148C142.523 117.836 141.398 118.398 140.086 118.836C138.773 119.258 137.305 119.469 135.68 119.469ZM160.266 113.375C161 113.375 161.625 113.242 162.141 112.977C162.672 112.695 163.07 112.305 163.336 111.805C163.617 111.289 163.75 110.672 163.734 109.953H171.164C171.18 111.859 170.711 113.531 169.758 114.969C168.82 116.391 167.539 117.5 165.914 118.297C164.305 119.078 162.484 119.469 160.453 119.469C158.469 119.469 156.734 119.148 155.25 118.508C153.766 117.852 152.523 116.945 151.523 115.789C150.539 114.617 149.797 113.25 149.297 111.688C148.812 110.125 148.57 108.43 148.57 106.602V106.062C148.57 104.234 148.812 102.539 149.297 100.977C149.797 99.3984 150.539 98.0312 151.523 96.875C152.523 95.7031 153.758 94.7969 155.227 94.1562C156.711 93.5 158.438 93.1719 160.406 93.1719C162.516 93.1719 164.375 93.5703 165.984 94.3672C167.609 95.1641 168.883 96.3203 169.805 97.8359C170.727 99.3516 171.18 101.188 171.164 103.344H163.734C163.75 102.578 163.633 101.891 163.383 101.281C163.133 100.672 162.742 100.188 162.211 99.8281C161.695 99.4531 161.031 99.2656 160.219 99.2656C159.406 99.2656 158.75 99.4453 158.25 99.8047C157.75 100.164 157.367 100.664 157.102 101.305C156.852 101.93 156.68 102.648 156.586 103.461C156.508 104.273 156.469 105.141 156.469 106.062V106.602C156.469 107.539 156.508 108.422 156.586 109.25C156.68 110.062 156.859 110.781 157.125 111.406C157.391 112.016 157.773 112.5 158.273 112.859C158.773 113.203 159.438 113.375 160.266 113.375ZM182.273 83V119H174.375V83H182.273ZM181.336 105.453L179.484 105.5C179.484 103.719 179.703 102.078 180.141 100.578C180.578 99.0781 181.203 97.7734 182.016 96.6641C182.828 95.5547 183.805 94.6953 184.945 94.0859C186.086 93.4766 187.352 93.1719 188.742 93.1719C189.992 93.1719 191.133 93.3516 192.164 93.7109C193.211 94.0703 194.109 94.6484 194.859 95.4453C195.625 96.2422 196.211 97.2812 196.617 98.5625C197.039 99.8438 197.25 101.406 197.25 103.25V119H189.305V103.203C189.305 102.172 189.156 101.375 188.859 100.812C188.578 100.234 188.172 99.8359 187.641 99.6172C187.109 99.3828 186.461 99.2656 185.695 99.2656C184.773 99.2656 184.023 99.4219 183.445 99.7344C182.867 100.047 182.422 100.484 182.109 101.047C181.812 101.594 181.609 102.242 181.5 102.992C181.391 103.742 181.336 104.562 181.336 105.453ZM231.539 109.93C231.539 109.398 231.461 108.922 231.305 108.5C231.148 108.062 230.859 107.656 230.438 107.281C230.016 106.906 229.406 106.531 228.609 106.156C227.828 105.766 226.797 105.359 225.516 104.938C224.016 104.438 222.57 103.875 221.18 103.25C219.789 102.609 218.547 101.867 217.453 101.023C216.359 100.164 215.492 99.1641 214.852 98.0234C214.211 96.8672 213.891 95.5234 213.891 93.9922C213.891 92.5234 214.219 91.2031 214.875 90.0312C215.531 88.8438 216.445 87.8359 217.617 87.0078C218.805 86.1641 220.195 85.5234 221.789 85.0859C223.383 84.6328 225.125 84.4062 227.016 84.4062C229.516 84.4062 231.719 84.8438 233.625 85.7188C235.547 86.5781 237.047 87.8047 238.125 89.3984C239.219 90.9766 239.766 92.8438 239.766 95H231.586C231.586 94.1406 231.406 93.3828 231.047 92.7266C230.703 92.0703 230.18 91.5547 229.477 91.1797C228.773 90.8047 227.891 90.6172 226.828 90.6172C225.797 90.6172 224.93 90.7734 224.227 91.0859C223.523 91.3984 222.992 91.8203 222.633 92.3516C222.273 92.8672 222.094 93.4375 222.094 94.0625C222.094 94.5781 222.234 95.0469 222.516 95.4688C222.812 95.875 223.227 96.2578 223.758 96.6172C224.305 96.9766 224.961 97.3203 225.727 97.6484C226.508 97.9766 227.383 98.2969 228.352 98.6094C230.164 99.1875 231.773 99.8359 233.18 100.555C234.602 101.258 235.797 102.062 236.766 102.969C237.75 103.859 238.492 104.875 238.992 106.016C239.508 107.156 239.766 108.445 239.766 109.883C239.766 111.414 239.469 112.773 238.875 113.961C238.281 115.148 237.43 116.156 236.32 116.984C235.211 117.797 233.883 118.414 232.336 118.836C230.789 119.258 229.062 119.469 227.156 119.469C225.406 119.469 223.68 119.25 221.977 118.812C220.289 118.359 218.758 117.672 217.383 116.75C216.008 115.812 214.906 114.617 214.078 113.164C213.266 111.695 212.859 109.953 212.859 107.938H221.109C221.109 108.938 221.242 109.781 221.508 110.469C221.773 111.156 222.164 111.711 222.68 112.133C223.195 112.539 223.828 112.836 224.578 113.023C225.328 113.195 226.188 113.281 227.156 113.281C228.203 113.281 229.047 113.133 229.688 112.836C230.328 112.523 230.797 112.117 231.094 111.617C231.391 111.102 231.539 110.539 231.539 109.93ZM256.992 93.6406V99.125H241.711V93.6406H256.992ZM244.922 87.3359H252.82V110.727C252.82 111.398 252.898 111.922 253.055 112.297C253.211 112.656 253.477 112.914 253.852 113.07C254.242 113.211 254.758 113.281 255.398 113.281C255.852 113.281 256.227 113.273 256.523 113.258C256.82 113.227 257.102 113.188 257.367 113.141V118.789C256.695 119.008 255.992 119.172 255.258 119.281C254.523 119.406 253.742 119.469 252.914 119.469C251.227 119.469 249.781 119.203 248.578 118.672C247.391 118.141 246.484 117.305 245.859 116.164C245.234 115.023 244.922 113.539 244.922 111.711V87.3359ZM273.305 112.625V102.172C273.305 101.453 273.203 100.836 273 100.32C272.797 99.8047 272.477 99.4062 272.039 99.125C271.602 98.8281 271.016 98.6797 270.281 98.6797C269.688 98.6797 269.18 98.7812 268.758 98.9844C268.336 99.1875 268.016 99.4922 267.797 99.8984C267.578 100.305 267.469 100.82 267.469 101.445H259.57C259.57 100.273 259.828 99.1875 260.344 98.1875C260.875 97.1719 261.625 96.2891 262.594 95.5391C263.578 94.7891 264.75 94.2109 266.109 93.8047C267.484 93.3828 269.016 93.1719 270.703 93.1719C272.719 93.1719 274.516 93.5078 276.094 94.1797C277.688 94.8516 278.945 95.8594 279.867 97.2031C280.789 98.5312 281.25 100.203 281.25 102.219V112.602C281.25 114.258 281.344 115.516 281.531 116.375C281.719 117.219 281.984 117.961 282.328 118.602V119H274.406C274.031 118.219 273.75 117.266 273.562 116.141C273.391 115 273.305 113.828 273.305 112.625ZM274.266 103.508L274.312 107.727H270.82C270.086 107.727 269.461 107.828 268.945 108.031C268.445 108.234 268.039 108.516 267.727 108.875C267.43 109.219 267.211 109.609 267.07 110.047C266.945 110.484 266.883 110.945 266.883 111.43C266.883 111.898 266.992 112.32 267.211 112.695C267.445 113.055 267.758 113.336 268.148 113.539C268.539 113.742 268.977 113.844 269.461 113.844C270.336 113.844 271.078 113.68 271.688 113.352C272.312 113.008 272.789 112.594 273.117 112.109C273.445 111.625 273.609 111.172 273.609 110.75L275.344 113.984C275.031 114.609 274.672 115.242 274.266 115.883C273.875 116.523 273.383 117.117 272.789 117.664C272.211 118.195 271.5 118.633 270.656 118.977C269.812 119.305 268.789 119.469 267.586 119.469C266.023 119.469 264.586 119.148 263.273 118.508C261.977 117.867 260.938 116.977 260.156 115.836C259.375 114.68 258.984 113.352 258.984 111.852C258.984 110.539 259.219 109.367 259.688 108.336C260.172 107.305 260.898 106.43 261.867 105.711C262.836 104.992 264.07 104.445 265.57 104.07C267.07 103.695 268.836 103.508 270.867 103.508H274.266ZM296.344 113.375C297.078 113.375 297.703 113.242 298.219 112.977C298.75 112.695 299.148 112.305 299.414 111.805C299.695 111.289 299.828 110.672 299.812 109.953H307.242C307.258 111.859 306.789 113.531 305.836 114.969C304.898 116.391 303.617 117.5 301.992 118.297C300.383 119.078 298.562 119.469 296.531 119.469C294.547 119.469 292.812 119.148 291.328 118.508C289.844 117.852 288.602 116.945 287.602 115.789C286.617 114.617 285.875 113.25 285.375 111.688C284.891 110.125 284.648 108.43 284.648 106.602V106.062C284.648 104.234 284.891 102.539 285.375 100.977C285.875 99.3984 286.617 98.0312 287.602 96.875C288.602 95.7031 289.836 94.7969 291.305 94.1562C292.789 93.5 294.516 93.1719 296.484 93.1719C298.594 93.1719 300.453 93.5703 302.062 94.3672C303.688 95.1641 304.961 96.3203 305.883 97.8359C306.805 99.3516 307.258 101.188 307.242 103.344H299.812C299.828 102.578 299.711 101.891 299.461 101.281C299.211 100.672 298.82 100.188 298.289 99.8281C297.773 99.4531 297.109 99.2656 296.297 99.2656C295.484 99.2656 294.828 99.4453 294.328 99.8047C293.828 100.164 293.445 100.664 293.18 101.305C292.93 101.93 292.758 102.648 292.664 103.461C292.586 104.273 292.547 105.141 292.547 106.062V106.602C292.547 107.539 292.586 108.422 292.664 109.25C292.758 110.062 292.938 110.781 293.203 111.406C293.469 112.016 293.852 112.5 294.352 112.859C294.852 113.203 295.516 113.375 296.344 113.375ZM318.586 82.9766V119H310.688V82.9766H318.586ZM334.805 93.6406L323.789 106.555L318.023 112.32L314.578 107.305L319.383 101.047L325.336 93.6406H334.805ZM326.344 119L319.57 107.445L325.406 103.297L335.391 119H326.344Z" fill="black"/>
<path d="M1134 0H1348C1356.28 0 1363 6.71573 1363 15V148C1363 156.284 1356.28 163 1348 163H1134V0Z" fill="#20E399"/>
<path fill-rule="evenodd" clip-rule="evenodd" d="M1218.75 53C1218.62 53 1218.49 53.0527 1218.4 53.1464C1218.3 53.2402 1218.25 53.3674 1218.25 53.5V109.5C1218.25 109.633 1218.3 109.76 1218.4 109.854C1218.49 109.947 1218.62 110 1218.75 110H1278.25C1278.38 110 1278.51 109.947 1278.6 109.854C1278.7 109.76 1278.75 109.633 1278.75 109.5V64C1278.75 63.8674 1278.7 63.7402 1278.6 63.6464C1278.51 63.5527 1278.38 63.5 1278.25 63.5H1248.5C1247.61 63.5 1246.77 63.1045 1246.2 62.4206L1238.34 53H1218.75ZM1214.15 48.9038C1215.37 47.6848 1217.03 47 1218.75 47H1239.75C1240.64 47 1241.48 47.3955 1242.05 48.0794L1249.91 57.5H1278.25C1279.97 57.5 1281.63 58.1848 1282.85 59.4038C1284.07 60.6228 1284.75 62.2761 1284.75 64V109.5C1284.75 111.224 1284.07 112.877 1282.85 114.096C1281.63 115.315 1279.97 116 1278.25 116H1218.75C1217.03 116 1215.37 115.315 1214.15 114.096C1212.93 112.877 1212.25 111.224 1212.25 109.5V53.5C1212.25 51.7761 1212.93 50.1228 1214.15 48.9038Z" fill="white"/>
<path fill-rule="evenodd" clip-rule="evenodd" d="M1243.97 75.5251C1245.34 76.892 1245.34 79.108 1243.97 80.4749L1237.7 86.75L1243.97 93.0251C1245.34 94.392 1245.34 96.608 1243.97 97.9749C1242.61 99.3417 1240.39 99.3417 1239.03 97.9749L1230.28 89.2249C1228.91 87.858 1228.91 85.642 1230.28 84.2751L1239.03 75.5251C1240.39 74.1583 1242.61 74.1583 1243.97 75.5251Z" fill="white"/>
<path fill-rule="evenodd" clip-rule="evenodd" d="M1252.28 97.9749C1250.91 96.608 1250.91 94.392 1252.28 93.0251L1258.55 86.75L1252.28 80.4749C1250.91 79.108 1250.91 76.892 1252.28 75.5251C1253.64 74.1583 1255.86 74.1583 1257.22 75.5251L1265.97 84.2751C1267.34 85.642 1267.34 87.858 1265.97 89.2249L1257.22 97.9749C1255.86 99.3417 1253.64 99.3417 1252.28 97.9749Z" fill="white"/>
</svg>
