<svg width="1363" height="163" viewBox="0 0 1363 163" fill="none" xmlns="http://www.w3.org/2000/svg">
<path d="M0 15C0 6.71573 6.71573 0 15 0H37V163H15C6.71573 163 0 156.284 0 148V15Z" fill="#424242"/>
<rect width="1097" height="163" transform="translate(37)" fill="#F0F0F0"/>
<path d="M101.906 53.9219L94.3945 51.2383V48.0859L104.602 52.375V54.6367L101.906 53.9219ZM94.3945 56.1719L101.918 53.4297L104.602 52.7852V55.0352L94.3945 59.3242V56.1719ZM118.137 61H114.422L114.445 58.2578H118.137C119.059 58.2578 119.836 58.0508 120.469 57.6367C121.102 57.2148 121.578 56.6016 121.898 55.7969C122.227 54.9922 122.391 54.0195 122.391 52.8789V52.0469C122.391 51.1719 122.297 50.4023 122.109 49.7383C121.93 49.0742 121.66 48.5156 121.301 48.0625C120.941 47.6094 120.5 47.2695 119.977 47.043C119.453 46.8086 118.852 46.6914 118.172 46.6914H114.352V43.9375H118.172C119.312 43.9375 120.355 44.1328 121.301 44.5234C122.254 44.9062 123.078 45.457 123.773 46.1758C124.469 46.8945 125.004 47.7539 125.379 48.7539C125.762 49.7461 125.953 50.8516 125.953 52.0703V52.8789C125.953 54.0898 125.762 55.1953 125.379 56.1953C125.004 57.1953 124.469 58.0547 123.773 58.7734C123.086 59.4844 122.262 60.0352 121.301 60.4258C120.348 60.8086 119.293 61 118.137 61ZM116.414 43.9375V61H112.898V43.9375H116.414ZM131.859 48.3203V61H128.473V48.3203H131.859ZM128.262 45.0156C128.262 44.5234 128.434 44.1172 128.777 43.7969C129.121 43.4766 129.582 43.3164 130.16 43.3164C130.73 43.3164 131.188 43.4766 131.531 43.7969C131.883 44.1172 132.059 44.5234 132.059 45.0156C132.059 45.5078 131.883 45.9141 131.531 46.2344C131.188 46.5547 130.73 46.7148 130.16 46.7148C129.582 46.7148 129.121 46.5547 128.777 46.2344C128.434 45.9141 128.262 45.5078 128.262 45.0156ZM142.676 48.3203H145.734V60.5781C145.734 61.7344 145.477 62.7148 144.961 63.5195C144.453 64.332 143.742 64.9453 142.828 65.3594C141.914 65.7812 140.852 65.9922 139.641 65.9922C139.109 65.9922 138.547 65.9219 137.953 65.7812C137.367 65.6406 136.805 65.4219 136.266 65.125C135.734 64.8281 135.289 64.4531 134.93 64L136.418 62.0078C136.809 62.4609 137.262 62.8125 137.777 63.0625C138.293 63.3203 138.863 63.4492 139.488 63.4492C140.098 63.4492 140.613 63.3359 141.035 63.1094C141.457 62.8906 141.781 62.5664 142.008 62.1367C142.234 61.7148 142.348 61.2031 142.348 60.6016V51.25L142.676 48.3203ZM134.145 54.8125V54.5664C134.145 53.5977 134.262 52.7188 134.496 51.9297C134.738 51.1328 135.078 50.4492 135.516 49.8789C135.961 49.3086 136.5 48.8672 137.133 48.5547C137.766 48.2422 138.48 48.0859 139.277 48.0859C140.121 48.0859 140.828 48.2422 141.398 48.5547C141.969 48.8672 142.438 49.3125 142.805 49.8906C143.172 50.4609 143.457 51.1367 143.66 51.918C143.871 52.6914 144.035 53.5391 144.152 54.4609V55C144.035 55.8828 143.859 56.7031 143.625 57.4609C143.391 58.2188 143.082 58.8828 142.699 59.4531C142.316 60.0156 141.84 60.4531 141.27 60.7656C140.707 61.0781 140.035 61.2344 139.254 61.2344C138.473 61.2344 137.766 61.0742 137.133 60.7539C136.508 60.4336 135.973 59.9844 135.527 59.4062C135.082 58.8281 134.738 58.1484 134.496 57.3672C134.262 56.5859 134.145 55.7344 134.145 54.8125ZM137.52 54.5664V54.8125C137.52 55.3359 137.57 55.8242 137.672 56.2773C137.773 56.7305 137.93 57.1328 138.141 57.4844C138.359 57.8281 138.629 58.0977 138.949 58.293C139.277 58.4805 139.664 58.5742 140.109 58.5742C140.727 58.5742 141.23 58.4453 141.621 58.1875C142.012 57.9219 142.305 57.5586 142.5 57.0977C142.695 56.6367 142.809 56.1055 142.84 55.5039V53.9688C142.824 53.4766 142.758 53.0352 142.641 52.6445C142.523 52.2461 142.359 51.9062 142.148 51.625C141.938 51.3438 141.664 51.125 141.328 50.9688C140.992 50.8125 140.594 50.7344 140.133 50.7344C139.688 50.7344 139.301 50.8359 138.973 51.0391C138.652 51.2344 138.383 51.5039 138.164 51.8477C137.953 52.1914 137.793 52.5977 137.684 53.0664C137.574 53.5273 137.52 54.0273 137.52 54.5664ZM151.922 48.3203V61H148.535V48.3203H151.922ZM148.324 45.0156C148.324 44.5234 148.496 44.1172 148.84 43.7969C149.184 43.4766 149.645 43.3164 150.223 43.3164C150.793 43.3164 151.25 43.4766 151.594 43.7969C151.945 44.1172 152.121 44.5234 152.121 45.0156C152.121 45.5078 151.945 45.9141 151.594 46.2344C151.25 46.5547 150.793 46.7148 150.223 46.7148C149.645 46.7148 149.184 46.5547 148.84 46.2344C148.496 45.9141 148.324 45.5078 148.324 45.0156ZM160.922 48.3203V50.7109H153.539V48.3203H160.922ZM155.367 45.1914H158.742V57.1797C158.742 57.5469 158.789 57.8281 158.883 58.0234C158.984 58.2188 159.133 58.3555 159.328 58.4336C159.523 58.5039 159.77 58.5391 160.066 58.5391C160.277 58.5391 160.465 58.5312 160.629 58.5156C160.801 58.4922 160.945 58.4688 161.062 58.4453L161.074 60.9297C160.785 61.0234 160.473 61.0977 160.137 61.1523C159.801 61.207 159.43 61.2344 159.023 61.2344C158.281 61.2344 157.633 61.1133 157.078 60.8711C156.531 60.6211 156.109 60.2227 155.812 59.6758C155.516 59.1289 155.367 58.4102 155.367 57.5195V45.1914ZM169.688 58.1406V52.4922C169.688 52.0859 169.621 51.7383 169.488 51.4492C169.355 51.1523 169.148 50.9219 168.867 50.7578C168.594 50.5938 168.238 50.5117 167.801 50.5117C167.426 50.5117 167.102 50.5781 166.828 50.7109C166.555 50.8359 166.344 51.0195 166.195 51.2617C166.047 51.4961 165.973 51.7734 165.973 52.0938H162.598C162.598 51.5547 162.723 51.043 162.973 50.5586C163.223 50.0742 163.586 49.6484 164.062 49.2812C164.539 48.9062 165.105 48.6133 165.762 48.4023C166.426 48.1914 167.168 48.0859 167.988 48.0859C168.973 48.0859 169.848 48.25 170.613 48.5781C171.379 48.9062 171.98 49.3984 172.418 50.0547C172.863 50.7109 173.086 51.5312 173.086 52.5156V57.9414C173.086 58.6367 173.129 59.207 173.215 59.6523C173.301 60.0898 173.426 60.4727 173.59 60.8008V61H170.18C170.016 60.6562 169.891 60.2266 169.805 59.7109C169.727 59.1875 169.688 58.6641 169.688 58.1406ZM170.133 53.2773L170.156 55.1875H168.27C167.824 55.1875 167.438 55.2383 167.109 55.3398C166.781 55.4414 166.512 55.5859 166.301 55.7734C166.09 55.9531 165.934 56.1641 165.832 56.4062C165.738 56.6484 165.691 56.9141 165.691 57.2031C165.691 57.4922 165.758 57.7539 165.891 57.9883C166.023 58.2148 166.215 58.3945 166.465 58.5273C166.715 58.6523 167.008 58.7148 167.344 58.7148C167.852 58.7148 168.293 58.6133 168.668 58.4102C169.043 58.207 169.332 57.957 169.535 57.6602C169.746 57.3633 169.855 57.082 169.863 56.8164L170.754 58.2461C170.629 58.5664 170.457 58.8984 170.238 59.2422C170.027 59.5859 169.758 59.9102 169.43 60.2148C169.102 60.5117 168.707 60.7578 168.246 60.9531C167.785 61.1406 167.238 61.2344 166.605 61.2344C165.801 61.2344 165.07 61.0742 164.414 60.7539C163.766 60.4258 163.25 59.9766 162.867 59.4062C162.492 58.8281 162.305 58.1719 162.305 57.4375C162.305 56.7734 162.43 56.1836 162.68 55.668C162.93 55.1523 163.297 54.7188 163.781 54.3672C164.273 54.0078 164.887 53.7383 165.621 53.5586C166.355 53.3711 167.207 53.2773 168.176 53.2773H170.133ZM179.25 43V61H175.863V43H179.25ZM189.832 43.9375H192.809L197.191 56.4648L201.574 43.9375H204.551L198.387 61H195.996L189.832 43.9375ZM188.227 43.9375H191.191L191.73 56.1484V61H188.227V43.9375ZM203.191 43.9375H206.168V61H202.652V56.1484L203.191 43.9375ZM212.602 48.3203V61H209.215V48.3203H212.602ZM209.004 45.0156C209.004 44.5234 209.176 44.1172 209.52 43.7969C209.863 43.4766 210.324 43.3164 210.902 43.3164C211.473 43.3164 211.93 43.4766 212.273 43.7969C212.625 44.1172 212.801 44.5234 212.801 45.0156C212.801 45.5078 212.625 45.9141 212.273 46.2344C211.93 46.5547 211.473 46.7148 210.902 46.7148C210.324 46.7148 209.863 46.5547 209.52 46.2344C209.176 45.9141 209.004 45.5078 209.004 45.0156ZM218.695 51.0273V61H215.32V48.3203H218.484L218.695 51.0273ZM218.203 54.2148H217.289C217.289 53.2773 217.41 52.4336 217.652 51.6836C217.895 50.9258 218.234 50.2812 218.672 49.75C219.109 49.2109 219.629 48.8008 220.23 48.5195C220.84 48.2305 221.52 48.0859 222.27 48.0859C222.863 48.0859 223.406 48.1719 223.898 48.3438C224.391 48.5156 224.812 48.7891 225.164 49.1641C225.523 49.5391 225.797 50.0352 225.984 50.6523C226.18 51.2695 226.277 52.0234 226.277 52.9141V61H222.879V52.9023C222.879 52.3398 222.801 51.9023 222.645 51.5898C222.488 51.2773 222.258 51.0586 221.953 50.9336C221.656 50.8008 221.289 50.7344 220.852 50.7344C220.398 50.7344 220.004 50.8242 219.668 51.0039C219.34 51.1836 219.066 51.4336 218.848 51.7539C218.637 52.0664 218.477 52.4336 218.367 52.8555C218.258 53.2773 218.203 53.7305 218.203 54.2148ZM236.332 58.2344V43H239.73V61H236.672L236.332 58.2344ZM228.316 54.8125V54.5664C228.316 53.5977 228.426 52.7188 228.645 51.9297C228.863 51.1328 229.184 50.4492 229.605 49.8789C230.027 49.3086 230.547 48.8672 231.164 48.5547C231.781 48.2422 232.484 48.0859 233.273 48.0859C234.016 48.0859 234.664 48.2422 235.219 48.5547C235.781 48.8672 236.258 49.3125 236.648 49.8906C237.047 50.4609 237.367 51.1367 237.609 51.918C237.852 52.6914 238.027 53.5391 238.137 54.4609V55C238.027 55.8828 237.852 56.7031 237.609 57.4609C237.367 58.2188 237.047 58.8828 236.648 59.4531C236.258 60.0156 235.781 60.4531 235.219 60.7656C234.656 61.0781 234 61.2344 233.25 61.2344C232.461 61.2344 231.758 61.0742 231.141 60.7539C230.531 60.4336 230.016 59.9844 229.594 59.4062C229.18 58.8281 228.863 58.1484 228.645 57.3672C228.426 56.5859 228.316 55.7344 228.316 54.8125ZM231.691 54.5664V54.8125C231.691 55.3359 231.73 55.8242 231.809 56.2773C231.895 56.7305 232.031 57.1328 232.219 57.4844C232.414 57.8281 232.664 58.0977 232.969 58.293C233.281 58.4805 233.66 58.5742 234.105 58.5742C234.684 58.5742 235.16 58.4453 235.535 58.1875C235.91 57.9219 236.195 57.5586 236.391 57.0977C236.594 56.6367 236.711 56.1055 236.742 55.5039V53.9688C236.719 53.4766 236.648 53.0352 236.531 52.6445C236.422 52.2461 236.258 51.9062 236.039 51.625C235.828 51.3438 235.562 51.125 235.242 50.9688C234.93 50.8125 234.559 50.7344 234.129 50.7344C233.691 50.7344 233.316 50.8359 233.004 51.0391C232.691 51.2344 232.438 51.5039 232.242 51.8477C232.055 52.1914 231.914 52.5977 231.82 53.0664C231.734 53.5273 231.691 54.0273 231.691 54.5664Z" fill="#888888"/>
<path d="M109.219 107.422H100.734V101.07H109.219C110.375 101.07 111.312 100.875 112.031 100.484C112.75 100.094 113.273 99.5547 113.602 98.8672C113.945 98.1641 114.117 97.375 114.117 96.5C114.117 95.5625 113.945 94.6953 113.602 93.8984C113.273 93.1016 112.75 92.4609 112.031 91.9766C111.312 91.4766 110.375 91.2266 109.219 91.2266H103.828V119H95.6016V84.875H109.219C111.953 84.875 114.305 85.375 116.273 86.375C118.258 87.375 119.781 88.75 120.844 90.5C121.906 92.2344 122.438 94.2188 122.438 96.4531C122.438 98.6562 121.906 100.578 120.844 102.219C119.781 103.859 118.258 105.141 116.273 106.062C114.305 106.969 111.953 107.422 109.219 107.422ZM138.445 119.469C136.383 119.469 134.539 119.148 132.914 118.508C131.289 117.852 129.914 116.953 128.789 115.812C127.68 114.672 126.828 113.359 126.234 111.875C125.656 110.391 125.367 108.82 125.367 107.164V106.273C125.367 104.414 125.625 102.695 126.141 101.117C126.656 99.5234 127.422 98.1328 128.438 96.9453C129.453 95.7578 130.727 94.8359 132.258 94.1797C133.789 93.5078 135.57 93.1719 137.602 93.1719C139.398 93.1719 141.008 93.4609 142.43 94.0391C143.852 94.6172 145.055 95.4453 146.039 96.5234C147.039 97.6016 147.797 98.9062 148.312 100.438C148.844 101.969 149.109 103.688 149.109 105.594V108.805H128.391V103.859H141.398V103.25C141.414 102.406 141.266 101.688 140.953 101.094C140.656 100.5 140.219 100.047 139.641 99.7344C139.062 99.4219 138.359 99.2656 137.531 99.2656C136.672 99.2656 135.961 99.4531 135.398 99.8281C134.852 100.203 134.422 100.719 134.109 101.375C133.812 102.016 133.602 102.758 133.477 103.602C133.352 104.445 133.289 105.336 133.289 106.273V107.164C133.289 108.102 133.414 108.953 133.664 109.719C133.93 110.484 134.305 111.141 134.789 111.688C135.289 112.219 135.883 112.633 136.57 112.93C137.273 113.227 138.07 113.375 138.961 113.375C140.039 113.375 141.102 113.172 142.148 112.766C143.195 112.359 144.094 111.688 144.844 110.75L148.43 115.016C147.914 115.75 147.18 116.461 146.227 117.148C145.289 117.836 144.164 118.398 142.852 118.836C141.539 119.258 140.07 119.469 138.445 119.469ZM160.289 99.9219V119H152.391V93.6406H159.773L160.289 99.9219ZM167.789 93.4531L167.648 100.789C167.336 100.758 166.914 100.719 166.383 100.672C165.852 100.625 165.406 100.602 165.047 100.602C164.125 100.602 163.328 100.711 162.656 100.93C162 101.133 161.453 101.445 161.016 101.867C160.594 102.273 160.281 102.789 160.078 103.414C159.891 104.039 159.805 104.766 159.82 105.594L158.391 104.656C158.391 102.953 158.555 101.406 158.883 100.016C159.227 98.6094 159.711 97.3984 160.336 96.3828C160.961 95.3516 161.719 94.5625 162.609 94.0156C163.5 93.4531 164.5 93.1719 165.609 93.1719C166 93.1719 166.383 93.1953 166.758 93.2422C167.148 93.2891 167.492 93.3594 167.789 93.4531ZM180.703 119H172.758V91.5781C172.758 89.6094 173.156 87.9531 173.953 86.6094C174.75 85.2656 175.875 84.25 177.328 83.5625C178.781 82.8594 180.5 82.5078 182.484 82.5078C183.172 82.5078 183.82 82.5547 184.43 82.6484C185.039 82.7422 185.633 82.8594 186.211 83L186.234 88.8125C185.953 88.7344 185.664 88.6797 185.367 88.6484C185.07 88.6172 184.703 88.6016 184.266 88.6016C183.5 88.6016 182.852 88.7188 182.32 88.9531C181.789 89.1719 181.383 89.5078 181.102 89.9609C180.836 90.3984 180.703 90.9375 180.703 91.5781V119ZM185.625 93.6406V99.125H169.102V93.6406H185.625ZM187.477 106.578V106.086C187.477 104.227 187.742 102.516 188.273 100.953C188.805 99.375 189.586 98.0078 190.617 96.8516C191.648 95.6953 192.922 94.7969 194.438 94.1562C195.953 93.5 197.703 93.1719 199.688 93.1719C201.688 93.1719 203.445 93.5 204.961 94.1562C206.492 94.7969 207.773 95.6953 208.805 96.8516C209.836 98.0078 210.617 99.375 211.148 100.953C211.68 102.516 211.945 104.227 211.945 106.086V106.578C211.945 108.422 211.68 110.133 211.148 111.711C210.617 113.273 209.836 114.641 208.805 115.812C207.773 116.969 206.5 117.867 204.984 118.508C203.469 119.148 201.719 119.469 199.734 119.469C197.75 119.469 195.992 119.148 194.461 118.508C192.93 117.867 191.648 116.969 190.617 115.812C189.586 114.641 188.805 113.273 188.273 111.711C187.742 110.133 187.477 108.422 187.477 106.578ZM195.375 106.086V106.578C195.375 107.531 195.445 108.422 195.586 109.25C195.727 110.078 195.961 110.805 196.289 111.43C196.617 112.039 197.062 112.516 197.625 112.859C198.188 113.203 198.891 113.375 199.734 113.375C200.562 113.375 201.25 113.203 201.797 112.859C202.359 112.516 202.805 112.039 203.133 111.43C203.461 110.805 203.695 110.078 203.836 109.25C203.977 108.422 204.047 107.531 204.047 106.578V106.086C204.047 105.164 203.977 104.297 203.836 103.484C203.695 102.656 203.461 101.93 203.133 101.305C202.805 100.664 202.359 100.164 201.797 99.8047C201.234 99.4453 200.531 99.2656 199.688 99.2656C198.859 99.2656 198.164 99.4453 197.602 99.8047C197.055 100.164 196.617 100.664 196.289 101.305C195.961 101.93 195.727 102.656 195.586 103.484C195.445 104.297 195.375 105.164 195.375 106.086ZM223.43 99.9219V119H215.531V93.6406H222.914L223.43 99.9219ZM230.93 93.4531L230.789 100.789C230.477 100.758 230.055 100.719 229.523 100.672C228.992 100.625 228.547 100.602 228.188 100.602C227.266 100.602 226.469 100.711 225.797 100.93C225.141 101.133 224.594 101.445 224.156 101.867C223.734 102.273 223.422 102.789 223.219 103.414C223.031 104.039 222.945 104.766 222.961 105.594L221.531 104.656C221.531 102.953 221.695 101.406 222.023 100.016C222.367 98.6094 222.852 97.3984 223.477 96.3828C224.102 95.3516 224.859 94.5625 225.75 94.0156C226.641 93.4531 227.641 93.1719 228.75 93.1719C229.141 93.1719 229.523 93.1953 229.898 93.2422C230.289 93.2891 230.633 93.3594 230.93 93.4531ZM241.617 99.0078V119H233.719V93.6406H241.125L241.617 99.0078ZM240.656 105.453L238.852 105.5C238.852 103.719 239.062 102.078 239.484 100.578C239.906 99.0781 240.531 97.7734 241.359 96.6641C242.188 95.5547 243.203 94.6953 244.406 94.0859C245.625 93.4766 247.031 93.1719 248.625 93.1719C249.734 93.1719 250.742 93.3438 251.648 93.6875C252.555 94.0156 253.336 94.5391 253.992 95.2578C254.648 95.9609 255.148 96.8828 255.492 98.0234C255.852 99.1484 256.031 100.5 256.031 102.078V119H248.133V103.086C248.133 102.008 248.008 101.195 247.758 100.648C247.523 100.102 247.18 99.7344 246.727 99.5469C246.273 99.3594 245.719 99.2656 245.062 99.2656C244.375 99.2656 243.758 99.4219 243.211 99.7344C242.664 100.047 242.195 100.484 241.805 101.047C241.43 101.594 241.141 102.242 240.938 102.992C240.75 103.742 240.656 104.562 240.656 105.453ZM255.141 105.453L252.938 105.5C252.938 103.719 253.133 102.078 253.523 100.578C253.93 99.0781 254.531 97.7734 255.328 96.6641C256.141 95.5547 257.148 94.6953 258.352 94.0859C259.555 93.4766 260.953 93.1719 262.547 93.1719C263.703 93.1719 264.766 93.3438 265.734 93.6875C266.703 94.0312 267.539 94.5859 268.242 95.3516C268.945 96.1172 269.492 97.1328 269.883 98.3984C270.273 99.6484 270.469 101.195 270.469 103.039V119H262.547V103.039C262.547 101.992 262.422 101.203 262.172 100.672C261.938 100.125 261.594 99.7578 261.141 99.5703C260.688 99.3672 260.148 99.2656 259.523 99.2656C258.773 99.2656 258.125 99.4219 257.578 99.7344C257.031 100.047 256.57 100.484 256.195 101.047C255.836 101.594 255.57 102.242 255.398 102.992C255.227 103.742 255.141 104.562 255.141 105.453ZM288.164 112.625V102.172C288.164 101.453 288.062 100.836 287.859 100.32C287.656 99.8047 287.336 99.4062 286.898 99.125C286.461 98.8281 285.875 98.6797 285.141 98.6797C284.547 98.6797 284.039 98.7812 283.617 98.9844C283.195 99.1875 282.875 99.4922 282.656 99.8984C282.438 100.305 282.328 100.82 282.328 101.445H274.43C274.43 100.273 274.688 99.1875 275.203 98.1875C275.734 97.1719 276.484 96.2891 277.453 95.5391C278.438 94.7891 279.609 94.2109 280.969 93.8047C282.344 93.3828 283.875 93.1719 285.562 93.1719C287.578 93.1719 289.375 93.5078 290.953 94.1797C292.547 94.8516 293.805 95.8594 294.727 97.2031C295.648 98.5312 296.109 100.203 296.109 102.219V112.602C296.109 114.258 296.203 115.516 296.391 116.375C296.578 117.219 296.844 117.961 297.188 118.602V119H289.266C288.891 118.219 288.609 117.266 288.422 116.141C288.25 115 288.164 113.828 288.164 112.625ZM289.125 103.508L289.172 107.727H285.68C284.945 107.727 284.32 107.828 283.805 108.031C283.305 108.234 282.898 108.516 282.586 108.875C282.289 109.219 282.07 109.609 281.93 110.047C281.805 110.484 281.742 110.945 281.742 111.43C281.742 111.898 281.852 112.32 282.07 112.695C282.305 113.055 282.617 113.336 283.008 113.539C283.398 113.742 283.836 113.844 284.32 113.844C285.195 113.844 285.938 113.68 286.547 113.352C287.172 113.008 287.648 112.594 287.977 112.109C288.305 111.625 288.469 111.172 288.469 110.75L290.203 113.984C289.891 114.609 289.531 115.242 289.125 115.883C288.734 116.523 288.242 117.117 287.648 117.664C287.07 118.195 286.359 118.633 285.516 118.977C284.672 119.305 283.648 119.469 282.445 119.469C280.883 119.469 279.445 119.148 278.133 118.508C276.836 117.867 275.797 116.977 275.016 115.836C274.234 114.68 273.844 113.352 273.844 111.852C273.844 110.539 274.078 109.367 274.547 108.336C275.031 107.305 275.758 106.43 276.727 105.711C277.695 104.992 278.93 104.445 280.43 104.07C281.93 103.695 283.695 103.508 285.727 103.508H289.125ZM308.25 99.0547V119H300.352V93.6406H307.758L308.25 99.0547ZM307.312 105.453L305.461 105.5C305.461 103.562 305.695 101.836 306.164 100.32C306.633 98.7891 307.297 97.4922 308.156 96.4297C309.016 95.3672 310.039 94.5625 311.227 94.0156C312.43 93.4531 313.766 93.1719 315.234 93.1719C316.406 93.1719 317.477 93.3438 318.445 93.6875C319.43 94.0312 320.273 94.5859 320.977 95.3516C321.695 96.1172 322.242 97.1328 322.617 98.3984C323.008 99.6484 323.203 101.195 323.203 103.039V119H315.258V103.016C315.258 102 315.117 101.227 314.836 100.695C314.555 100.148 314.148 99.7734 313.617 99.5703C313.086 99.3672 312.438 99.2656 311.672 99.2656C310.859 99.2656 310.172 99.4219 309.609 99.7344C309.047 100.047 308.594 100.484 308.25 101.047C307.922 101.594 307.68 102.242 307.523 102.992C307.383 103.742 307.312 104.562 307.312 105.453ZM338.297 113.375C339.031 113.375 339.656 113.242 340.172 112.977C340.703 112.695 341.102 112.305 341.367 111.805C341.648 111.289 341.781 110.672 341.766 109.953H349.195C349.211 111.859 348.742 113.531 347.789 114.969C346.852 116.391 345.57 117.5 343.945 118.297C342.336 119.078 340.516 119.469 338.484 119.469C336.5 119.469 334.766 119.148 333.281 118.508C331.797 117.852 330.555 116.945 329.555 115.789C328.57 114.617 327.828 113.25 327.328 111.688C326.844 110.125 326.602 108.43 326.602 106.602V106.062C326.602 104.234 326.844 102.539 327.328 100.977C327.828 99.3984 328.57 98.0312 329.555 96.875C330.555 95.7031 331.789 94.7969 333.258 94.1562C334.742 93.5 336.469 93.1719 338.438 93.1719C340.547 93.1719 342.406 93.5703 344.016 94.3672C345.641 95.1641 346.914 96.3203 347.836 97.8359C348.758 99.3516 349.211 101.188 349.195 103.344H341.766C341.781 102.578 341.664 101.891 341.414 101.281C341.164 100.672 340.773 100.188 340.242 99.8281C339.727 99.4531 339.062 99.2656 338.25 99.2656C337.438 99.2656 336.781 99.4453 336.281 99.8047C335.781 100.164 335.398 100.664 335.133 101.305C334.883 101.93 334.711 102.648 334.617 103.461C334.539 104.273 334.5 105.141 334.5 106.062V106.602C334.5 107.539 334.539 108.422 334.617 109.25C334.711 110.062 334.891 110.781 335.156 111.406C335.422 112.016 335.805 112.5 336.305 112.859C336.805 113.203 337.469 113.375 338.297 113.375ZM364.852 119.469C362.789 119.469 360.945 119.148 359.32 118.508C357.695 117.852 356.32 116.953 355.195 115.812C354.086 114.672 353.234 113.359 352.641 111.875C352.062 110.391 351.773 108.82 351.773 107.164V106.273C351.773 104.414 352.031 102.695 352.547 101.117C353.062 99.5234 353.828 98.1328 354.844 96.9453C355.859 95.7578 357.133 94.8359 358.664 94.1797C360.195 93.5078 361.977 93.1719 364.008 93.1719C365.805 93.1719 367.414 93.4609 368.836 94.0391C370.258 94.6172 371.461 95.4453 372.445 96.5234C373.445 97.6016 374.203 98.9062 374.719 100.438C375.25 101.969 375.516 103.688 375.516 105.594V108.805H354.797V103.859H367.805V103.25C367.82 102.406 367.672 101.688 367.359 101.094C367.062 100.5 366.625 100.047 366.047 99.7344C365.469 99.4219 364.766 99.2656 363.938 99.2656C363.078 99.2656 362.367 99.4531 361.805 99.8281C361.258 100.203 360.828 100.719 360.516 101.375C360.219 102.016 360.008 102.758 359.883 103.602C359.758 104.445 359.695 105.336 359.695 106.273V107.164C359.695 108.102 359.82 108.953 360.07 109.719C360.336 110.484 360.711 111.141 361.195 111.688C361.695 112.219 362.289 112.633 362.977 112.93C363.68 113.227 364.477 113.375 365.367 113.375C366.445 113.375 367.508 113.172 368.555 112.766C369.602 112.359 370.5 111.688 371.25 110.75L374.836 115.016C374.32 115.75 373.586 116.461 372.633 117.148C371.695 117.836 370.57 118.398 369.258 118.836C367.945 119.258 366.477 119.469 364.852 119.469Z" fill="black"/>
<path d="M1134 0H1348C1356.28 0 1363 6.71573 1363 15V148C1363 156.284 1356.28 163 1348 163H1134V0Z" fill="#20E399"/>
<path d="M1274.75 107.75H1236.25C1231.35 107.75 1228.9 107.75 1227.03 106.796C1225.38 105.957 1224.04 104.619 1223.2 102.972C1222.25 101.101 1222.25 98.6506 1222.25 93.75V55.25M1231 90.25L1242.67 78.5833L1254.33 90.25L1271.83 72.75M1271.83 72.75V84.4167M1271.83 72.75H1260.17" stroke="white" stroke-width="5.12" stroke-linecap="round" stroke-linejoin="round"/>
</svg>
