<svg width="482" height="415" viewBox="0 0 482 415" fill="none" xmlns="http://www.w3.org/2000/svg">
<path d="M215.572 86.9392H287.375C287.375 86.9392 291.683 66.8344 318.25 66.8344C344.817 66.8344 349.843 86.9393 349.843 98.4277C349.843 109.916 342.663 130.021 318.968 130.021C295.273 130.021 287.375 109.916 287.375 109.916H153.103V122.123H213.418L214.136 183.155H341.199C346.327 170.215 353.405 160.839 371.356 160.839C389.307 160.839 405.104 174.481 405.104 193.868C405.104 213.255 385.717 222.589 371.356 222.589C356.996 222.589 341.199 203.202 341.199 203.202L175.362 203.26V212.594H214.136V262.857H272.986C283.039 262.857 281.602 247.72 298.117 247.72C314.632 247.72 324.684 255.619 324.684 269.261C324.684 282.904 316.786 298.7 298.117 298.7C279.448 298.7 272.986 275.063 272.986 275.063H185.414V289.424H213.418V338.968C213.418 338.968 249.347 339.011 334.046 339.011C334.046 339.011 331.865 308.078 364.894 308.078C397.923 308.078 398.641 337.474 397.205 351.117C395.769 364.759 380.691 376.248 364.894 376.248C349.097 376.248 331.892 359.79 331.892 359.79H164.591C157.411 359.79 159.565 369.843 164.591 369.843H207.673C207.673 369.843 217.008 377.741 192.595 397.846C168.182 417.951 139.645 420.772 107.867 397.846C107.867 397.846 100.687 390.666 93.5066 375.587C86.3263 360.509 86.6757 343.646 85.9228 333.941C85.1699 324.237 78.4094 331.621 78.0245 333.941C77.6396 336.262 74.9898 362.663 79.581 366.253C84.1722 369.843 78.082 377.567 68.2833 368.407C52.8658 354.576 43.8636 344.862 51.4401 318.145C51.9586 316.719 53.3484 316.566 56.169 316.495C61.3005 316.512 60.1655 317.157 62.7461 315.273C65.1935 313.485 70.6783 307.336 72.6559 303.727C79.1183 279.381 91.4694 271.427 111.457 269.261C137.667 266.421 155.596 295.901 150.949 307.374C148.951 312.307 159.376 312.308 158.847 307.374C157.247 286.926 145.895 261.42 111.457 261.42C72.2698 261.42 66.2526 303.422 60.4772 307.374C54.7018 311.327 33.3211 297.996 17.3954 275.063C9.5842 258.939 7.34302 247.06 13.0873 229.109C24.134 239.016 37.5214 242.809 64.7854 241.316C89.4781 237.499 102.699 234.057 123.664 222.647C129.913 213.609 125.189 210.743 123.664 210.44C66.1557 243.508 13.0873 226.237 5.18894 211.876C-2.7094 197.516 2.3168 165.923 3.75287 163.768C5.18894 161.614 7.34303 162.332 8.77908 163.768C10.2151 165.204 49.7068 188.899 56.169 184.591C62.6313 180.283 56.8871 175.257 55.451 175.257C54.015 175.257 10.3243 166.743 10.2151 145.818C9.96616 98.0978 21.7641 72.3929 87.7623 58.9361V112.07C87.7623 119.251 100.687 119.251 100.687 112.07V86.9392C100.687 72.5787 113.611 13.7003 162.437 15.8544C211.263 18.0085 214.627 82.3828 215.572 86.9392Z" fill="#20E399" stroke="#20E399" stroke-width="1.43606"/>
<path d="M305.298 16.5147C305.298 25.2244 298.079 32.3113 289.142 32.3113C280.205 32.3113 272.986 25.2244 272.986 16.5147C272.986 7.80491 280.205 0.71803 289.142 0.71803C298.079 0.71803 305.298 7.80491 305.298 16.5147Z" fill="#20E399" stroke="#20E399" stroke-width="1.43606"/>
<path d="M305.298 397.07C305.298 405.78 298.079 412.867 289.142 412.867C280.205 412.867 272.986 405.78 272.986 397.07C272.986 388.361 280.205 381.274 289.142 381.274C298.079 381.274 305.298 388.361 305.298 397.07Z" fill="#20E399" stroke="#20E399" stroke-width="1.43606"/>
<path d="M480.497 148.632C480.497 157.342 473.278 164.429 464.341 164.429C455.404 164.429 448.185 157.342 448.185 148.632C448.185 139.922 455.404 132.835 464.341 132.835C473.278 132.835 480.497 139.922 480.497 148.632Z" fill="#20E399" stroke="#20E399" stroke-width="1.43606"/>
</svg>
